<mxfile host="65bd71144e">
    <diagram id="Lu83tjWo-Wz-DkkKe9Yt" name="第 1 页">
        <mxGraphModel dx="1200" dy="545" grid="0" gridSize="10" guides="1" tooltips="1" connect="1" arrows="1" fold="1" page="0" pageScale="1" pageWidth="850" pageHeight="1100" math="0" shadow="0">
            <root>
                <mxCell id="0"/>
                <mxCell id="1" parent="0"/>
                <mxCell id="3" value="" style="shape=image;verticalLabelPosition=bottom;labelBackgroundColor=default;verticalAlign=top;aspect=fixed;imageAspect=0;image=data:image/png,iVBORw0KGgoAAAANSUhEUgAAAJAAAACUCAYAAAB816CuAAAgAElEQVR4nO2d+ZNc13XfP/d193TPDgxmBgCxEgQpgptkkRQl0lEYSrIsL5HixI7LVUklrlS5nJR/SP6CVFL5KUs5qVQqlaRc2ZzYiVOOKTqWLYtiRIsUKVHcQRIESGIdAANg9un1vZsf3rt9z11eT88AlJ0EB9WYfu/d/X7vOd9zl9cK0NyW27JDSf60C3Bb/u+W2wC6LTcltwF0W25KbgPottyU3AbQbbkpuQ2g23JTchtAt+WmpPojz1HxZ3TmSW35RP/ZLPi2pLyWoQxT26EAND8/z4l776VWG0ElA4qgBmer1OCC5dHj6asiZuypNmlqRG+rIKy2j/rpoVSeqlagRMmK+IkGhSrCQWbqoE3YkhGh9ICm0EVbDKprNFqRpBJ1LcskvJ8UKatIBrrfgEUZinbRGt479S7nz58nTdMg3lAA+rGHPsk//Pv/gOnxKZJeBlm/y8JCq6y0AnlHlGBEF+DQoVVVWqPQ5NHDdB0AmZbVCbGu0EqjVYbClFOhqZiMnNImmSLRNXSlQS+p0EkUqUr6OfY70ymTvSsgG6lwHsYv4UANofPGi+bbB1NYFsgBkbeIimeiQeusaD6FShI0iuqI5h//03/Ef/mvv8nGRjOINhSApicmOb7vEN2z12h+/yS1XgdVog3od0wWeVZSePNUZ1SibW0bJgagIrIT3GQjs1P9Rk5t+bQCKnk45Ta+zjQtZjhfu5cz1cMsJ41cAw3qZWvv+gDxy6zJB0WiI22oByUfA6fMNw4e0+yF/ommr7QWGg4gg8oSj39hjt3T0yQqTpeH40BK0Vxb5ezXv8GVX/8PTNGyaHZEe59IUgOap0pKNQK8QplGO4P+PRsvAZKiDKrIUcY3n7w0plOU0Eq5ZHS4zCGe5hf4XX6WS+zz6qVEfVxtIweY8jrW5J9IIPfDDgZQrhcy4u0sr8NnyimvK75CULRRlVf5J//6c5CWm+OhAJShSRNNowa7SBkn6ze/X0GbU4bfFAqKBohVIkPRKxrVjbM1gEzeJg9roqwWyIpOkx3o18Fv8IwNMiqM0GUXKbucOrodIrWDvNYe+TZgz9DF3zIJWylDkzoA8vMbDkAxfmQGnTHONUgnQFdJVAVV4rAP7YVlOqWTdsjIimL7DWPFqsp4Z0eYSalpEla86Aw/LSXAZaBkYGobUcLWhM9AhHRHdJ5e/jSlQo8RMipFp+siF3/kSmKtsJ0mn7uGrYzomxKp4KkFrwln83RbzBWjieOAdds/7be0rGlMhjRh+Z9M6wGwsaL7gIgT3lgMyErMogwzyABSUjJ3xOWgMU9MKS14FBJwBiIurHRUi2rxTBd/wUDMh0uZqZIaN/7M5mFr5oeNk3pJ+31xU/DaRWmPH1oZAkC20fwMyzqzrICq36wxAh5TrbLbhpcYgQ7LZrSVNQVhPB2JFxOXexhTkUTrWT644uCJgcG0VSxsuQkLNaLJ1e9b5ZRSx7EDDAUgnaegBxktW8TykaXFZ6Az3g8fElZ/nIThQu/QL3XIA2LpRJoRCXxbTz9/5bVBFjFDSsR1y1AGCD9NUy8VCRvyKpcPWglL5tZKDDIdH+JDcyCNRvdN2CAo+RXzC+uTP/N0sGEcRgPJDnA7yCXK9q47Gv0GzmuSRUBqzGAcPBTxYsCz9zKnzvGyx7SUq8F0EDbU4mFb+3HC1q0gYSdr5/b8tpcybnY6X1Z7MJ/xO5Mt4sQb3IrvLQ1vFLXzTUc6QHvgywEi//qemKbMbFoOGfPCbLdaM2ZT8FvJTpaWaUy3ltZPSzEMbnA/bRtA2+EivoQsylXmsWq5DSupaMhPpGaJ5W49NSXiDR4QlkzGVbgFgw93/yPrFJqwMG5ZaYyeykQtYkDSxEoc1/S++ctcAN8cB/r4xB8vofKNbRcoA5EkxVtpGNOwijJYDCrvsDKc2d1uzkoMhGHFakpfs8fCbEd+5AAKQSNJZTx83IaXwc4dfzaOP+r9kTuc+Cp90PdBXmpo8kKNGj6zYHddkVAH+6Ar04ZuvHJ4lck2ABT6H/FC5GFctT7YOG3Nb4Ypl6286wfFSGSsXL4Gi7OwsrJKcEq+EatTCKCwNjHD7s7G+2CQIJDcLCxTrPySA0l6UQZyI0PPA9ktDb4fILtNDwBD2FlhCGm3lRPa7wo7pySvwhEUagxrttxZEUlzJVkuL68J6XaMdMVDzeLn4dcp1vl+eH+iVtZAlcSXgA7ngvw4XmsrWT+31MPPRCuwq0y+8rTTg66rF6e15TOiMl1LGDPcSsswOiiBnWQwxXYn4mU6rmGLaar8X6VIxdZKpm9T9Bc5/QlYOw/mzy+ZdPOyZridKMESAksOIxnenybwdbMrkkSbfMI1N18HDW3CjJbRkSr4FXHHpK+nTOiYzXe1jz+CQt1i8zb3pEawTS6XFWRnKPEkrK+ZT1bFUuNWkJfjU3n37JrdYM5lYFemxdz0Y3NuWRBPAmxw/u4wGkQ8zLMdkeiY5fUz8LPzm9XG9dW4NS9mRMpQLmxCA+SvOul+WiEf2Rn3CudwBoWVsSzPkM/9FhwMMJmajJGnWb6yv1X5YkQ6Phflyo69sJjKD3lRPF7+XDZjTA/kOZjFT9kVYb4uJH0WZcxgJVL2WD2GF2nMBj2XeQ0fvhxgMZANB7xy0MieK8sjlEE7nIcqjp+9fy82Vt3i5SzFspcwjlTKZqdPmLfrn8iyyGd+2f3v5TJcKJ/X7CyNrdLOxfXmQqC5zyQ/G7QPaVD5Q6n6rHqw5AnLcSf/Qjj681ghp/GZkTVnsjR2rkNuwzBgS0rTw7sfV8VbaZ+wGctbKu51yvCmA5UHc5luOPzK0nPB4Zcriww/v7T+UNvKpsSlCtZEDApqOsJoiBj3Mdg2nobUDa7yVl7FBnW/6+NYXaIEqMp3AplUTNkS71mZyK6K7/3xn0o96GsFq1cTp20GAcXVrfa7FrPzg8ybzdNcDwbusKbSlT4HMpUeRMO01sWORLvRyhTNnbDyDQvi2qW5FjrhCDB02sST1Uo8EGmnwqE/aMNJJ958c+vg1ZqQstr4iQCD6t+LDRTVf1becTId2YbGJ8y8VpMi18797RtlYHXrWX5dHi8g0aUmTZvtHGXZb+V/Seda+lp+fLnTzt25I2FhtqMC4rs0qC6jMtd5iHBr7NZSpnNtHvbjmiTrRhtAlXXWIGANKpfMR4JnOLvigktOVwxpwj4OcY2PhIALB98DM6bSB5EbNr+vsZ1lq+nyBB98ZcYydrfcVY83bMxVcNOItcNWYBmkMVyAulrfTdetvw9YP68irtJbjq4fyWKq22l2/MdngZXXzCHALGiUEw+sxjP3VHAPL0aZ+E8lFMLOUeK7CeMDMARYTBv5YULTXq4ZykEtZ751kG4ZsLeWj/XlCoOsqD9+3C1USlyr/iEYLZ4ZyfrjLdbh/nU5g9hKLEczTWZc4XhHlk/CDWeOBj8PNUvMdCnvGqdViX530y3yGaCJbjmAJOsAWQ35zN8QKsevq5DD9Wejg6RhCxWzHGdu+bT4P8zTr4msRdL/LlfgQu+m3PTJtAflF7veKm5ZvmE6hpJb4JiPu81267JAdfjR6FPEmFqVkmD0g78SBTHj4hoBl9vY0D58jNL1R4+rnJXzzYYpcxnCjlRo6tUm42MVej3Y2EzJ18kGw9BPx03TPgtNTcwcxp6VlTfOybbiW9LhMDKoXsMBqDjUb/HqLyzKnW6y4xOUmNQyrnIe1r3rX7tcBxEjZDQWRCGozekucz2oOeRTm3fOVTRLPHTfKk/+uSobqeL06TE+PDXKwqUe3V6CpoI9yiNNmypJ33wyrHmUZkY75Sj3qNzBZP/6YI0BSJbMxuz/34+iUCVvTdnWhrJ87rdC1n9RiMnemoWkOPZsCqL705TuMmkcuDsFkdUlrl6LnYHyy53gn9Z01XvOdZLKWR5/fIW//feaMNHi0tmjvPzcLK+/OsnZjyZ4/z3N8o0aCXV0/9iy20r+x4Anxsy0iCOdiVBrSbD5uiMT7aXFVIcvssXyNsml+FsCHtj2jkTzSZximOMvudFKnBV0ucJlUvH1gGmmxDEqW4NIAk7O7/p5xPZJa/FNe9c2fbMvR5GoGidPLfL1r5/kgUc3OH73KY7/8m5+fuMYp0/O8t3nRjjz3lHOfTjK+6c7rGxkpFTQEZoZEthBorCuQrkZC0l7bEvI4O0cOvi2tX26pW58vPPKus01Y664jnoIIr/Rfb1j/5eby0DCTxpdVcyvm9FuF2NU8S6AXu8Izz6neOWVNR7/8U2efCrjxD1XuOf4Ig89PMYnH5ljY7XF6y8d4Plv7eF7L0zzzukOm93U0x1lHMVvSQMSFzyxJWGX1NtnMsfBIC17/mcAQLmESjqcDbLjy4eMv/hRrstykcYjJaNbvCxgBKgXei7BbvCSnWnX2xDfNJoJ0uxxllce4Ru/f5Hnv/0+9923zGOPJRw5kjA2tsns7JscP/EBv/qZT/Do89N893nFu+9XeeutEW4sTQL1oj5ppEXCmsSXh7T3PCTg0vzJdMpFtqgtxdba8WOYSDQjV3aE3GDvggjnqVTMIZT8Ccb8k+DC0BgeRb7/p1cFjkyQHG2wcX2Z9XNNknXNaFcxphNq/TK4+ivrG9QqkhNoRkm5i9XNY7z4gx4v/iB/JU1DNTl+5COe/MIHfOVnT/HYT1zjya9lvPPqDP/yn43wzT88Rrf7CaCGJNmmtmFnSW4j18B8beNzKO2ExXtWTqKNTTBsa2vtAx/zTLSksv7hO7e73Jkco1fkVo5wFFlzk4cxmsRea1JGZ6fZ+3P3UfvqOBcufsTqa8uohR69Ky3WrzTpLbTJrvdodDImSKh6hsIdzX43m7fqaNq6wbsfHeHMb1R5+80mf+nnF/j8l97hgU+f5xf+2ibXrl3l9VcSut1jwIij+XzggNUm4QRfCJjyv64Gis1Z2VxNfnZ4DgOhWwygOFCsBvGfuUzIxrDAsCPC5UGuAZPwsg2eAZXaCCMjDUanxjn+ibtJvpyRbXRpLmyw9MENlk6u0Hqnyea5ddYvrFO9mjLZVoxRKWZ5rI7wdagq9JwdBA1SfYyXXt7g3Edw5r0Ov/Q3L/D5L6T00uv8619/hTdfrdDrHiVv+tj7JG0n2/pmuHuqfTMm6+2aMDkQQw5lxfZBFpRokNxCANmxZNx8UyGzAWQQiNyUQsLsgkhCUubvgitDsXT+Gu3feY3JlXnS+yuooymTh0bZdWCSiTvv4NCTB2jf6HL9wyUuvH6VzjubNM9qmqeaTF5uoYuXIlaKzfX+jiiF2dJhJhVTNONcuXoPv/WbivWVLr/ya5ovfnGNtHONf/Xr3+fkGxV0dgQ70iV1twCRQ0m+rEGCItZuiHhWExkQ2ufl4muzcvlYV+NzjgIgt1+UmTN30VTqLt9chX5Znp59j0ZKN8noTcPYwTGyvQnXb1yle0ZRVRUqE3NMTqZU6hmqoanu08zv283co7vprlVYOT/Nqf98gc5vvUZjNWZoXPNiTm+4IKiw0TzIM0+32Te3i7/1a1f4whfPsrT0If/uX1U4d2YMnc0UNQlX9OzgiWsdv/X8iUf7XQ5R6V6Ug8Ny163lY1+Nz1D9TVdxTWSLKsei1CcxEJlQTvMkirE7phi9d4rOvCY7rBl7YJQ9d00zsa+BmoSUFK0Vih4pPZIMlNIolaLqCTqrs9SY4Pzeveyf30NjVZJdV6SWlWTYaokRWu2jfPvZlJnZKl/+2gI/+VOarLXKf/6Ni5x+vw6MCSC6HSdn8WV+MdIcM2WSqMdMcFxcp2Qr+ZgBlE8tSq7igyj/5po0l9+YsGBUsUZTKZZTUjIqIwkTh3czet8uph/bxe6n5tCHNGm1xdK1Ra5cXODCR12ypkIb2pGAnkrZc3yS+cPTJDVor3c4/+YKX//6m3z31ZSf27OHvc0q2cW0MFIJaeGCy7KFnWqeJCganHy3zY1/M0I7m+UX/3qPn/vFKq2NFf79v1vj8uUxEcNqCBUFgj+b7HIa3413nw2je2xYeRJGK5+lWflYAOT6Q3He4xsEd0Opy37Md+sHFYd06hUad06y61OzzDyxh11/fhrme6xsXuTSyQU23umx+vYSN965RnaxR20tIdGKNj2qByeYfGqO+swoswcUa5fXOPvcJU7/r0WWLjS4uAx/NF7l0H2fY0LtJb2QFXPt8i2ycptpHET53REuXz7K07/T5tDhjJ/4i9f48lcv8PZb+3n6f3ZRVBzAuOYp5q5LUixb3J2MCPmO1UhlIDJx+nvHVQ6gTMmcrVSHt3bbF+tjmT3J1k+wfMclzLaYIebNvExGhdpEnclHZ5j9q/uZ+/xu0pkmm2uXWX5ljfMvXebccxfpvJExvqLYoxPGmaBOBV3LUHeNs/crx9n71YPowx0WT13hzO+cZunrVxk/32Df3CSj1ZQ3lld4/cExjnzlfvb98QgLH3YH7H+RvMiU3xodxRin3p3j9393gzvv6XH/J1e49/41vv1Hmo3NVOhlV6x5cj+u1ot7ZUSey14Jy+/n7NculBINFBoRrWQTec/EtxgczDc5nyOVdXnhtXOtUaASxg/tYd+TB5n72gT1xzVra1e4+uI1lr+3zI3nr9N8a5OZtRpjuk6NKhXS3IeaqVP59ARzf/kg81/eR1rtcuO1G5z5zTOsP7PIwZU6mgkWq3v47MPHSKfHWUszOr2LTM0cRn3YE9oi1lHxTe9WE8/x0oubnPiDlDsOt/nMIwnff7DOC99v08tMPNse8Xkbf25ILry4HqLfA+EzgnAued9aqmEg30nUaKXJVEamFD3yT4hh/zquRSQl9R1vSfbcjsjLUxutM3XPHvb/lePMfW03nfErLLx6lcvPXuXKtxbZPLnBVGuUPcxQKRrLLPDWx+rMPHmIXb96gMb9CatLi1z7zjWu/o+L6O/d4MB6gwaKJnBwbpY9997PW5cvcfnMJZYvXuKds8soJr16uXwj/2T9Y5I+kdXUWV0+wLPPKO490eLJzyd87asdFi4pzpxPkYZciXRNGxgO5IM3tmjq3retaL2xsj6z4WKzYL5UYzO8vqXUBYi0gpQKaXHfbupw6W6uo0KlF8e+BZMET07ksqK6PUaPjbPvqX3MfmEf459qcPX8e1x78Qo3nl1m/eU1xpoNJvpvkre7AnoFiR8/OMP8XzhKVk9Z+t0rLL5+icVnL1E7nTJLvSCnGVVa7F25zOU/+AbVZosThz7D+ZFD1LKJglgaDmQBY1ft8w5Ogrd0SFA0eOftSX7nPx5k3/wlnvjJNa4vHeG3/2uNcxdGyBgBrx3c/GKACe/F+VRZL7im0fZ91g/ue4hGBpDoMqtn79p1Zhef5TEH5aaEd5Z7PPkx5i7Jnjr7/sp+Dv+dPXTUJpeeu8IHv/ERmy+uMdquM8YEfmfZkuSla/Y6XPvhNdrfWmfluXN0l5vsoi5GZA+NYoQetVPvcCcJ933yQa5uNjlz4QLwaaFDpcZJC+AYzSMPX/u8xXiYszz/bJ0TD13gV/7uS/ylv3aFteU7+e3f2s3S2i4o1uHcFTKXX8WWJEJXPtYb/ncfjP4M3eCevGkvzDaq1EI3k1aegjkI2KXLzIPz7PvyfipjLVa+vcl7/+IM7R9sMEoDOz2ZN5sLZKsp1z64xsoH16mgqJJPA2Tk2+PcjbKqmCLQNF9/hTXOk3JQ7AwKTbfdGGbAI9/vo8UzyVfGeOXFSd7883U+9/mrfPFnx3n/3TrP/0mdnh7DFwse97XDoRsvJXZMdJAG2r5se1O9z/nBKnI5Rtxpr2E+oULOSOmRUjtYZfz4OJuXUs7/wSLrP2hSZxxdbNhyGYcW35P+BypUUcXKlf3JFdmt9MMbY6MYp9IHm2+QDd8x5k95qYL8cRe/too3fzDBN353hosXUu577Cpf+eoKRw9vouiI1pCnP1wQ+R9Xwl8BKgeUD8LhAbXjUxlZ0CwhdQyrOPhjp8qsom5Xu7QmNtCNNhfeWuDs9y5Ro1boggr06bL5JKV5Z9g3rGWiay3dll0hOUHi3JPPrNkKh1F5LfNwvfQOvvPNgzz3jUla3SUe//ICn//iDaYmVouSuqUP04+byjLwSGJsv/uEOa9n4oQrl2R7eKNfFLdatmrZjj8JWQGGrNAjPaA7kZLt2SBT62yca7L5fosqVVx+YOlryBRksydenpJN+AuzbrP5utV2lCS2Mowl2C5c0/4H6iwuHODZZ2Y5+XqdXfuv89TPLPDAgysoNnHXyHQ/LVdfxz5S24WAKifUsn7CJA4ASPRUxiAwmWYymwtCMSc2dmZTZT5dUkbvGGXm+DirN1ZZO9tiojdKtUjfdLy7piZ3ZNvrjNSbqtPFrgEt1tgzUSfjHpiNZfbKGkbLeVxjGOrAPH6GCzANTPLG92f5H/9pgamZ6zz02Tqfe7LBe+/C0tI+dJ/oKy+PYVtxUD8oL4wpm5xmKVqiJEPHhA3f5f5cEbhKcCvFFxfZ7CnQpsP0XdMceugwF9+5zkffv0KFGtZwZEIPhMZD/iSJ7ps6q41cHWG7V+4XVFSx/qEiKfzDCimVQI+mTie7pfLDGgAmtFv7+ebTDX7vt29wY+0cn33qIp/69GWqyQoJXRRdjLe3fVIg//nmy2eiShhy2ZXlfRlwoGFB5INn575XTPKObVbaZHMpo/M5gW6e7aGo9btPC6YgX9Af6gPTXSaOCzrX8XZJtTVYLsUPc3CBE/KWGHhMB9fpbN7L89/Yx8t/ss7R+1Z44gs32L93lYQOilRME4RMczgSIt++WsaBbBqSA9leCXv5Yz0bvxPR/X+QTFep3VGlpzTpoqKynPtRab9J3S4zOiA+7vMmTJ1ry04yYZC0CG8kxvryWCmJSNWysazf6favNH2ygyoo9nPu1P18+5kG584t8MiT69z3qeskLAfsbtCnjFT7k5LuX3lf2hFdBCkHZ3JrNcdOJXTle6RMHxnnjofm2VxaZ/3sBo1eo9BAsisQ3eZrFN8zdOmuAUlPkOs06G7JE3wyK2Ol/VSSPsQlkFJx3+hC478qKtRQ2Z288t0JTr7W5PDxlANHF6klK55fGie+5nsMTPEeHsbWbK3ZtnewUBxvdrdfKO+vZnvAlOBRQEYnaTJxdJz5e6e4enqBxdeWaTCF6u8lTrHeF5gtpXJa0Z4MsRDL71X6ZUyx/peG4oAyRXy7Z9myo16Rd68PDuWAJxOwxtFxplPlT3tKDqIZZ/36cTavT1KpaGb2XWBi1zQrNw5gZqeH3VUoe8OIqaWK3JV/t9NzpQDybZ8BjzmJIA/NytAuvR6+KK6DrGiPdEgO1JmYH+PCs4re+4oxRtD00FTIt3WkWLDKhUjrK1r6m08OmBoYD81QcTlmzQjOf5TbgCEloUcOnPwoT4xIy3f5+2zM6ke7WGFKZ/7q3mGy5l7IPuTg3aeZP3id1RstoIYLnOGBJKUcPLIfw5cry1BSogAqJU/9aYEKxoV2i6Ixx/Z2KrrozspMwuihConKyJZHyDbMfK81VXYje15Ks+ldCcJoqap14u1cc1bMUWukRsgK7ZMWG0GsMcz6wMl3JRnTFHpYcrpSLj+4JFa2tNlTPYbu7Ub3rnPs7t0cPFzh9BtNYMJpJfM3NGmuxGyC32tuWrEXZZQ7SdXQnzIjIz5D5NIzNxtbjO3zKms2Enp0GT1UZ/bEFHSrJO0plG5gXHFTFvf9snbvtTumFX5D2w5MqGCc/ax/QMeMwEphkIx2q5BSo0u10DyS21igSJfebBOTGki2kuwY80KGGq3NCdrNUe44NMP8vgRFq689/f4YxHGsaTT/m6FVFta+hMFASfqdsfm9gRwoCK4kCbVZuziWHTu8SCPYUV1m9ifMHZmB5jiV9R5VRvpm08YwAMmbJWdFNm+XWVXEdV6zpN8tZo+1YUR5/EquC4u0elToUKNDtQ+aVIAoNqMkh1MZgGy7mZb86MwSl861uOuhCvXGCkmyQZbFB7RLGcqeKXFPDnoZVvI0e9/XUr6YSd0gc6lXhoOCMQrmW5kWi0vWz0/Rq/UYma0xNTNJegGyyx2qVMkc3WhykR1h/9pwOhoqN2957XrY8W/eaJShilOq5gcSUir0+uAxnKjSv5b+nz9HBG6pTUf5uiMv0bkzSyyca3PXg4pKbZlKdR3difESedjQit/qPojCvon1cnFPyetQBmogX+lLouni3q2UdX23T6IzFMmuGuOHx2nUR1k4dY2Lb5zD/OSS31TWA3MBYxSyLD/9/+VI1MW+phwqdrmigiKhU2imEbqM0KJK2zNdqTfBFy6oytZyJyu0V668PO2NGt31CZJsmcbYKvVGk6wTOzEa00DKeSZNum0N2XNWU8ZBNFgCAGkvQ2mq3CKHys51TrcneXoJGSn1fVWm7hxDdzMWP1jmwvtXmGA2Aljfp3Dpn8/Hyr6ZmvT6lDuP1WOEDg00PSZZI9/M28ZwGzkLZb3AsjkY7eRstYKrHTTQWsvobFRJsoT9B2rMzte4sBrv4FhLy/MwbntpZM5uS7iAHlaiGii28yXfVG/pp8xeEqydaB+wVUxpsWdfjX3HZqBdp7I5RZKNOvwnBIV9C5DLOGLiNplPNGWoJhU22EUPzRTXSRgl608jVLBaTr6N3jVZ8XbQTjdKL0cBrc2MdjM3VwcOTDI/N8nF04akK+RAKSPW0oGQT6T2la1k4b89KTVhIQTkqkk4uk0Y9+92RZOpDhP7x5k/Ok33Skb7iqJCo89/Qsoo93Dbssfqg1dm2dVW99ifcWhTZ6UPoGtUGC2mEetk1OkV+xnd+rujXa4WaRHGmjvZZjloOl1Ft1tDJTA+qRkdNWHdH2uw3R6ra3hVpvVc8+bWRombsXYdeKzHiaAleOIyaMxtJWaqr1tPSSe7MNLl+oVNrp5aId+EKjtfjirjjbldFweVb3bzuNLpTqliFiBajLHBGNBjjGWgQ5dacSg6JaHmTOaUkAkAABvbSURBVBP6BkqLnO1zMwwyTz8AxXGFfLoi3/NUG4Fqzc68009nGB1rcrbhw75xuaFMPUFjf+JiaBJd0v0qRpRlMQ2+ZYNtTzSabBz0TJ7+yuUm186tQAGgQRrOb053ZkOWMZwRsjM3lcKvqpJSpcMoKSPkXdqmWiyBGO2RTzfaHZGus+FOy5ltJSETc01K3xgr+n9RcjnY1SCSKPtt7poqa+zjmtIaPdtSdo9CWX8O/aO7GvKjPWK0hR1m/malGQ7IIifQ8xWmj4yRZKOkS13aSykjxVGXOLhlwxCUT9JZ/6/tcONP5Y56jwq9/pRh7mMlaKr0MNOVRtLiDWbuTIr52E0RsiySn1gYyHpYsHQ7KWmv6wEo7gT4g8jlYqZ1YlcSRLZ15GaWMpWwNYD69k+RKtkg7uyk67357vbWkje+Zmr/CLPHx0m7NViZhmaNtN/g8j2utimMgxsDiORr/vSeLX/iaJ9e/1OhV2iPpHjidp4mJRNLtXIlTG7C8LWfPeTtgif/v5JkJKqH1oq11R6b6x0SUsw6pG0zcOEZJ+yyvOGzmOYqSyuU6rA9rUVZwlkDk5n9Aabta6C8KSYmR5jaM0LWyVAbCTCCOTlumZk7Cu2uwxA0sgPdDaGupjCrW+avLqYIM5F6Uqx/0V8pS1DF+zqMOTPj1u5rsvlkoqa2Vd2Z8wzFSB1qtTz20lKXjbU2OUszm0BiQHB1iLQJLmO0gAln8nxWtnUvbnE23qZj2LhRsGHx/U0K2xOjgSqjFUbHR2FT09vsFuCxv/MXxvNHtwo6zX4PNajdH1jpL49mffBYrmdT6Al/yMDabnU3nZQVCyUSpBbcNrRxyulfQ6MB9dEeqB6rq0021lv9JWQJCBeI0iSCcUtsSMn+/Fxdor0dBlsOIKe3CiaujXU25sq1mGaOIvZy7a1Ekb/rJ6tApVIhXevRXmmKkWvzlGpc7l8ONY8lyLaTk/53uzfQrmpl/Q0atsnlxrCcD+UQy3cPZdgFaApdlBTaxKz3mxP6CrORX3pjiPJDRr3eo1Zvo5KU9dU2mxv2nFjMbbcdHtcgobsTUwF2B4NLsAdLCYCKCipdpJGATsi0UaTSwwm9r/j8aDyXvNB586cqI62kqAQ6mxmt9dzu2w2Zcjrf5Oq6ztarkmWRZ8XczaH0Fyb8DRk2n7zbzcp9gt3Q1itC5FvtwcwnmR8GlRS0WKbBmC3TBj6RzqiONKmOrKFUl86GotfMF1dUv62td+kactueVpP43/08DXjcHUrlfpcr5SS6D0JVfMwhPrubxgb0XdQyj6kso7xhemRklQxd1XS6Pdoty350QSOtWx77+VzpludhLJk1O4Vc7yg3ShJA2lugkAYwp82WEZm3lRn33tBjWw7DWHII2mEmu9t2Z16C8YkujfEmmU7J2hPo3pjoXNs5spXjdNjVRi7jscDK08g9vJAjacwujJhEACS5j9s5cgYELPH1Y26PQCvkD5MopVCJQiUVKkkFewrLdy5dJ9U2qXk3htE8lT4YDHjkadbYnkHfizPpx4432+UFoxnkMZpEhDFiN93KNpB66uixPew/uEmWrZJ2JtC9BvLVEzEfyTdT8e/0y6eDlpPOiTSFImXfQjLQhIXFCjEeItOfLBtOzFyBggyUVoyONpiYAMUycjez7YDQWku3WfW1hCTTSeEp2YZyibc8S2/+2rDGjPgDx4Wdyd3lE3kNJOCkI2/0Ug60I3fOcseBNXrtBdrNBlk6InRDxiC4DGxf0a8hiHzQDOvGD525vN468WFtqExXoch6ml63Q200YWR8BDE3i/RkZDz5um4JCMOD5Nb4UKuE8zYGqCFQJHx0YZLc1zlYZigZB1hwmXTknLDdYa5oMVLfYKTe5sLVDZavV1E0sEsfYfv7hCLWtrF+c0G0M9nh610iuix6Z7upVsk6PbrtDvUxTTJRxTCs8CemjOWWgJD8w548Nc8k4Y6fZnVZgc3PnuzUQSyrC80sch47wWzZl79IphxtavWgHSLrJFUFlXUunV9m8fIeVP94s1uyWHuHTCkM4V/dTL/dxPuBtqtGh5EK3XZGcz1jcryKGu0fMXTyCymk7XiF9bIyh2ibrirbM2jMltVG7siNj3xj3PKOcGEI5hV71pz5e5v9VkxUk6TaQVU2uHq5yY1rGfnWEaulhmt7f8Osfy9egu3Sjy0AZIpm3Nbc3ZNbxd0KScu/vYLkHVtlbaXL0mKPuT0KPdFDK43S9jVQ0kxJYm/HpiTc4aRi+IKUmGtPpA4yd7O5RPVz1F5prPG0dDrDTJfa9jJmUJGvBVbHL1OdatLNxrj20Sjri5PkvylkdGZS0rIuz/HNvPLKFNbL50nyWfE0gtQhNJBx5XqgLA0MiZi0+vHprnIx3lCN1QvrLJ7a5BOfalPd36IxW6G7aI8ku/VwzY8PGOuR5QAxp8jcmWH3PRuSO1mD5XIcCQzpXRnoZsJgmZf1SS9Ne+1k89ng6H2b3HHvKotXNAvvztFdmce84Fz3a2I1a8wjkz3nt3IY2qgBOyAUVlUoKP291LzWQ4tEqutf+CZie9rHxk2o0ruo2DwJKk3Z+1CVg4/N0KXXn9F1zY2rOeK7kSUXChmMhIS72GrCD3IaYuwppvusrotNGJjWpXKVBx9NuOfEDKff7PDR6Tqa8X4r2RfN+HmF2k85JddbfmJlc7VpXHZ4AtDnBfJ34OPNV/4xI1CjqFBtTrF2KuHKhzeYOVrnjkd2w2RKKmafZHMpcY0HKNd0aTEPJONI1W09JgOe2Fa1GKTcFomVoKwFcuOc0WJq7hJ33HOVRgM+eCth4WwdqCNZmeuHxtIj8kzKVmDy33o2WAIAqQHvggmbbND1dsRUtULCGIvvtTn13at0ai3mPp1w4FO76BWLmPLjgsA2szFR5pS61ZTmZIdPdbXTXPK71FFbaRXVz1l2nFmB80c6IpcMVbnCg59tcuLhKosLKR+dnKK1OlWc1bcrgFZDyEkK+3EXYsJ7seE7DFDKxAGQBE85kOT4uxnQWDGaJKfqFdoLDc493+Pch1eZfRAOfHaCrNb2Otp2l3zVpX1mm3WrJot1qSybBKnve7kA83N0jzYnQWeblDvccWydx396hCPH53j9u5rTr49SZVLoS6lr3UOMrtbwQeTfi/mVOwdRH0DDax5TBJyst18E34yYbtDQabDwcpd3//gS3eoGE/e3mb4TFD1hLM04dMe+TZN+mFDJSx4V+h2yjNZwSL1iZ6TtzsKtDLX09/KhYn5ErlJd4tGnEn7siQmy5i4+en0Pi+frQK1fF980xvmLX+tYi8fvWZUQ3zZTJqUcSGvt3xDFk9bSzsXaaoZhQyUfs+omdI3elTEuPNfhw3fPM/+I4tgXx9CjTdI+HZbp2vwNqDLCuRyXtprwdrVfR8OF4zXWce4wcJ/ZWsb4UZf9x5o88Lkus/N13v+h4uzJKZTejdygJ7VMbDhIXWnKGA7PsEay13zTty0OpIvd9zBIG8mJ+zJr6j53m8x/PaX7UpQc/3lT19JJrr+W8OYfLlAdb3PvT08y/0iDFq3+nFBo2XHyokR7hB5jXG8M8lRsbiYHOzPk8h3/hQuyxhqd3ODBJzrc++kurdUKrzyrOfNWRoW6N7Xp76cM3ZgyE+UOodibREy/mb0IKar//iPQSpWylW16YS6O/Q6L8QVJK2XTmeY0H2sakqJgCWppinPfynj/hUsc+GSDh35+P5NHa7QLPRSaIwkaf3xJbWSJdGi0wlrKmaEy78Z2rJwfcjvMjw8d9t65xgNPrDO3Hz54XfPuK6O0NycwO4wSATZ3+5xcl1PetX9P8jXLn3y+ZMHj+qs+LZAyJIAKraK108SDsG66ZvAIdzeJux2iGMmmWTs5ztn/nU/N3fmU4qGfm6E2m9AV3S/LIrehlhuZQWM5VprydvHB4dNuot9yMCTVZR7+CxkPPFajszHOa99p8MHJCop6EdK2nmt4Y5woZorss63rYcomvbsinQFJDLUW1i+OsknHG1wF8aSmcoFH5NpWR5NPLI6197HyYsLp36ty10+Mcv8vJCS7Njn78gZXftiidWmC/CUjZsUpPxiYp2yVttQnfhcQlCEGqLKW8b+Xt7bcRpbR495HN3jiZ1rs2T3HK384yqvPalqrjWJ7WtYvq09rTc3Ky2dgaltXi7/DyXBUeujF1GKrTn8Sf9gRGwdPqKFMaC2aJy9gnRtval765y300gx3fbXO5361zZEvt3jjtzqc+u9NVi/WULrRfxELuIbCL5+rtXYqJmXZFj6gYqCsoOkxtafFj38t48RnFQtvTvPcb47ywetNqtTIil2PqqiRTMl+twPEr4kf3jwvM0M3IzexnSMGIBfn2wOPq3DlJgmAK6fWeenfXmL5wiRHfnqKQ49MMfY3lpjb2+LMtxTnX23TvGZfI1Wm3WT5bRmGH5dxCU1MCKgcDildpmebPP4zGQ8+XqOzPM/L32hw6o0eigZ2Hsl6s7JllZebq2vM4HZP6Zkn/l5Gt4Q7a4Nb+qO7rhPpj8dy8MhKuKbGikKzeHaDpf/Q5OLbu/jkV6fZ99QYP/bLisOfSXjvD1Pe+3aTS2+vw0adSvFCci30krXsZo3L3Zu801rnYjamSw0goaTJaDI5s8nnfgp+8pc1e+ZnePnpfbzwTJula13MO9H8koTD0hd/WVs58WL61m9dP4wc9oNkeBMG/Ve8+JrDFjNEuS1+/k36L+78Ef00Qo5kwlTpNhM+eH6V5dOb3PtRhbt/qcf8/Q1m7hpl32cT3n+uxdk/aXP5jRXoTqNpkBQvKjCrTnIDhqSdO5OY2bLj3+yk1nSZ2rvJZ76S8qW/DgdOtPj+1xs8/RtrfPBeRkIVjVzFlzzHGnbdJxDhrmYb0jdhxoBZoITvOnNZoUasxqvy4bUtDWQ4kOu6lZPN0GxJ8EiNFXIV13uzXkVWkMvFhZT1325x5Zzini9VOfLnFMc/X+Xwo1N88MQarz+9yrlXLrN4tkbSnGFETxXpGs/v5syWBKDs8LyL7caOlC6VkU2O3J/x6E9rHvupLvvuSvng7R7f/G/rnHmngaKB2dYqwWDycc2Sb75saaTuCXmQu0HXN4eu2+6nT2lzDQmgAoLKH6kx8KhIVcvA45swn5v486dgwabZWKzw9tfbLLzW5eiLI4zfv8TkfS0Of2ovX7pvjjM/uMbVd0fg2i6a56b46M0WSwtdkmKHn/Un/XJsV/yYPaDDzNwYxz45wd57utz9xAafeLzLytplvvV7HX7wzB7eeamOooY5MuQ6E5b2SpPomtxBugfvqnz3s89S7X2fiISyBYBcymY61nWFTRXshk636O60Wxw8MSLtz3Dkz+QqvKJCRY+wdK7L4n9ZpTO2zPSJDY4/2ebBL+/n4Z88QvVn6iSbk6ycqXHq+WnOfq/KpdcXWby0TqblRrIY+xgs2vsoNKMjPe66dzcHHqgwd0+LB368x967oVvZ4M1Xz/L80yu88a3dLH00RSUbF8vAcvutaW/l/O8yTPebcuL58ApBIGtqyr4THji0CVMAWi4RuL5B6C+Aj+Fy8NgRFAOPb+uNFbfzJDUq7Ka+Oc36K6u89t4Syz9c58ITPaaPpxx5cJY994zzmeNz3P/kBB++sIuFk7tZPpfw4Ts3uHZlAzDbTiUo5HCwExhp0eEJPUZGNNMzU8wdmmbuzg5T+5e57+Euxx5L0NMrpHqZM+9d4K0Xl/nu/8p4/+UDVNr3UGVXoQkteNwujIFI9oYtj41bDiJEavGe2hkPHGpPtOkmuWFdOUWRf30JzZKfsp+OCyQJQJekywZVVMnf5TGLWp/h0rfXOfsny4wd0Rx55AZ7T1zj0MMXOfTALCfumeX+jd2snKpz+qW9nPlBl7Mnb7B4cY1uW2NfLp4wMlJjbLLO2OQoY5M1RieqjO+eZHRyHDWySX1qiZkDVe64K2HuRIuR+WU0i6yudbj0wybn3kp55TstTr4wSmvpGCN6H/lMs9U5ro63ba+QVNYHkWvKXG5k2yfmnYU9FLKqYWXoc2H2BWU+zfKxbEWaPKlZ/LRdgPgay81L+h7+M9VPIyFjGrqTrJ3u8fqZTZLJVfY9vMyBz19i9hMV7joxyx2fPsgjD+3nrp8Y5YNXRrhyeob2unmZFSSJpj4KE7tGmNhVZ3wmZWymw67ZFqPTCbreQjdaUFsF2ixeusaZb15l6WKD5fPTnHuzytmTDVav343SuxhhDPu2fR8s9OtnibDVC2676ZLvMfHzij3ZPnCMxN/S6m/lQHL4kP+4RYoBwjVzvhYx6jduwux1mJ/Jx/xvd9uYtz4n1En0JHp1jnPfucz7P7zAxME1jn2qzaEHb3Dw/g85dt88D//VCejugjTpZ5MmGVmli0420aQktFC6STftsdRu09rocv1Mi0sfrrJ+TXP11CTvf7/OjUsJ2eYodOeBSWr9N7rmdbdvT5J1jGmBsn4ol1CTyTQHtWIY2odtTML3RDvgsepRAUonweScDCdNjku4TRhF5oBHAkuUQcRzNZdPtmU6chuJMbWmOXNw1dL9VFdm6a00efudJU4+s8aB+6t84tMJEzNrdNUyqUowP/GYAakqtrloRTWdIOlO0+5omq0WrfUW185XOXdKs3Yd6O5HpbNoRkioofrHqN0jSdY1kTpWEYLIOvGIuGH3u9fSHliNFgJT8la5KGL0ef6SzTxgGZCGJ9HaACQpAOQaGF+j+GvE4J4i9TVYGdHGufYJuw9UuRZtu8tc5zS5QYVRkmwGVmDxhYSrL2gyunRJSRU2D62QZ+nzpYZRck23C02X/LxcjUaxe9AsgsqZbnfyz5QxEVvjysxMTNu6gJAHp60ud5eEZHq673O6+djy6X4KygBIlMYv5ZAHC23ht5IQADEt45Pp+LP4fZ9vheZUNp+7E5jIN+PAJtQZAV3t3zM/9+ROXdjZbPu7g/b8qW2FPH3/jnvXlEE7913Imdju5KLvXeX/+1os9t2XUOuZsgzDjHb+w14fg/g6LRcXbFtD2MSR4UNQ2juy26zecrWlNM7mlK45poi4P1zphi2/y1lClyLmYtjyxIj28C04rNzSxdQyCYsdI4zmuoz7qCBM/Lsl7iEFdMPneZiz55X+SpS5a02ha5pdjaq8z/AifSzXqZdpD2JHPo8xz1xttd1ybUduqQYqG+03l579Hl/+8MO7hHWr8RZbHA7dCD/NcsBsf3yXzdGHcA9n08JSyBZyh9Ct1TxGdqyByjpwO0pykFX2waKDOPEm9VeP4nxLRcAwvHE0HMhnXNsZ7RKCPo32tYyr8co5i2RClrLbUg+qYWw4aD9ARLYNoNzax6FiuLv0fmRB3CrEzVgcEL6Fd02VT6LLtdPgem1tjnxSulNNK02W7Xy3m30eJHWJD6wQRDIN/6UK/q5PU1vjCpgU+m2m7D1fdqCBypEcAmaYWG78MvDYMHEFbs2XAdcwazsmrLuVNiz31kDZPtewK3lh3BAgUt/YpWs3DLhgtOWi/0wyu9j6lw0h2kGXD8Bb7oXFdFMMPMNpBBs/1DaxOHYMx3RdLn6jSZfY14a+wZSpmJR3yi3cowmuDs3TDjmMO726VZjQjbCgVU5Ym7ffCjr44srH4oW542nQyLRKNDb77HIVP+bgdTV7b7BWsKM3DKeiz32KvRPtI3MP043zmTA3ucjqayK8ZzHjGBva263Fxz4PtF0+Msx4joMnXnU9VJgyThXTDjejdQZLOBxM6cKhVR7GXtu0ZA3lO/i1F3b79bpl70j0n4VFKSe4bhi/o7caE8ppjpAXlYNYe2Fi7rwPF1e9+zsCdiK+mbFreIPX4nMiHmoiG8bqHaOH7N5F3b+2LbCTYbEDAJlGjqvt0I2WcUyYUGKawq4byWdxkTxJgsEFgLtGFE406ki4eJlDPeTCTFGemo7EiR0elPd1/7uElauRYutk4YKEjZM5se3TmIYrkx1poLJF/nKiO5jP+ByIaLiYAXG1T1yr2Pz9soZXKniS383jyhd9gll0LDdqbmpux2kn1bjHqIMUXO/L9alcaLm5W5Yk9VGCLbuEphbhlCrvNdjRPFA4c7u1hNrAB4e7oh4H4iAz45pNqbniJlHja6dyEJmwvvmSesGvq73y3Wrz1vpQQ8UXQ+XAyWPbWpQPZGsIwbxVVgnKGyu5uWNO3tgWLF9YvcmTqYONUZn4WiQOiFgcl9K6Dmv+bdBiQEw521L4/Et2gDQofhruqMYBQ1luEh4x5uKaLJm+b85DE6vF/34fuSbNBbYL+v5frVDavvnD75ubANB2wpYBpEyTWYBaXhOCx4IKtFgKlWamPA8/v/JnPkWVMLHXIXjiQ8mUKTxhJ58rUXcLlni6cZ6mB4QoW/iQtRNxVLwm8CNajY9LvGOtqtbiGsLOsceIdPC/vwdIAsnMPLud43pUUq+46962DMacxCYm5c7mWL3lGr+9K+/k5TNva5ap+Mf/4vFd8Y2oLYeN75fInpu7pRzo1sgg8OTP5bRXOJ8qtZI0b2V5SKD4z8u0T7lWkl1h8zYldnlGvJ5SI/u/HmiobQwSZk1rOxZgWCmzBGXPcvlTAFB8BPli1bWxvkZ7SJVurboWsVxOEjcDUhshUnNzL99JaSATI+rWQITelRwkbnlsbJf/yBCD531lTWL3y0Q5ZTdxYgMylKEApDSo4vVz7j7eeGHK1762GvV4HWpjau86JIhlG8hMqWImxZopmabLbEyH+r5NGfmVC7P+TI38xQvrUYUyeICVLRMnIHKX4Q3nUri7AEyJ3UOKslYAkUM6fRn6bHyVComq0CzeoReqXqmWYzRPYX9PPm6+rGvrNoE7OWkm5CXRlj9r6ZdHai6fI4H5fVNZLpe0y9fwpf00jemyv0UYe5W4/SVreRLf1sm829H1ocqdjPA1xr7I07VSC9syxvpAYc7bmrqlKLIkgaSCDsphZaiDhalOqU1UOfGlhxltNKiregRAW4tW7s9VBs+JjYO8DCHdk/EUOvriB/NXkf98Z6gRdH8E+tqpiKfiJteA2Lz2z89X8jIDoL7u0tYsD5qUdesh0x6sodzBIO7rcLtKmG6uOTOt0KrJ3T92iO+853I9KUP9Ws+FhXP8/v9+honxGdSDY1S0ouxHhwZWy8xqlriFuv9f9Em55DZ2UIAtkhgQecAj33MbTuSWip2Q4cHw0dqwRvlK9nz89CeVt8hWa/vO29fef4GT756k0+1Ew4aQisjU9AT79s+jqUBlhEqWbEHngiK5n7J5Bb316CqTbb1oP4y9o1jmEOa2QKQs3d8pgAY/1aATJ23za00DpnNCUZAoyLKMywuXWV5ZJouM8KEABKCUGkimthaffMYar3y+4WMRn5fflqgMAsnQALo1xTB/y3iQnLzaZuo7UkF6gNm8LcPIjwhAPmDKOvtWHs77/0227sqbsfJlKf+IJhLjczu3XrbfRPFZq/935VaD6Ec4E/3/Uzf9acjW7ftx9MCPkAPdlv8X5c/UyxVuy/99chtAt+Wm5DaAbstNyf8B/VNY/WhnD/4AAAAASUVORK5CYII=;movable=0;resizable=0;rotatable=0;deletable=0;editable=0;connectable=0;" vertex="1" parent="1">
                    <mxGeometry x="-41.9955615234375" y="3.0033129882812517" width="144" height="148" as="geometry"/>
                </mxCell>
                <mxCell id="4" value="" style="shape=image;verticalLabelPosition=bottom;labelBackgroundColor=default;verticalAlign=top;aspect=fixed;imageAspect=0;image=data:image/png,iVBORw0KGgoAAAANSUhEUgAAAJkAAACYCAYAAAD3AEsfAAAgAElEQVR4nO29SZAlyXnn93OPiLdmZmVmVWX13thJoLGRMgzBocxEEYSNiRpqbMx0GPCow8xJZjDTjdfRQMuJlzGZDrjJwLsMGmlMBi7SgBqCMtmADRA70Ft1dWUtWbm9JRZ3HTw8fImI914u1d1o4it7le9F+Bbun3/f//v8cw8hhNCDgWQ8zRgOMqpKslgsmc9zqlLxy05CCISA4TBlPBkxGCRUlWY+z5nPcqpKAfq9buYHmtLhKGUyGTAYZFRKs1zmzGdLquqD0fFaa7SGxaJAKY2eDsiylOEoo6oqFvMK/cF41PctpVvbA7J0QFUKFovF+5PBBNcgbATLZYlSmskEBsOU0SilKiuKQtWM9j577g8IpUmqWeY5i3nFcrmkKq+no4UQgJEk9RXAqC47oCaJ6MitCThLaDf8l2yebUdRVJyfL1BkDIcZ060hi0VJkVdUlfLa+yu6LkrzZcnpaU5ZcKWJ3GYqQICUAilBihQpM9IkRSYpSQJJIhFCAqAqRV4UFEVBVVVUVYXWDi8J4cpsCZ0LtrssFbPzHCkE48mILBuwXJbMZ0uKovwVo10zpYu5uhYGS5IEoGYOI6UGw4TxNGM6HTMZTxgMRgyyIYNhRpZlpGmKlBKBpCwV8/mc2WzOcrlkuciZL+bMZjPyfElZqgY7WQEY88JFtGpVaubzEikLsoFRnVprKlVdmzT/FRkSCKuLdG2JiRosb97RNl+SCJJUMhqO2Noes7s34cbuhK3tbSbjEYNhhsZIKK01aBBSMshGZOkQjUYrRVlVFHnO6emMBw8ecnT0hOMn58zOc/K8QinXNq0x5eCYbNOWCyFIU8lkOmA4HACS2WzJfLZEqV+pzusiAVLboUnThDSVFKWdzes62cmOwSDjxu6U/f1tbh/c4uatXUajFDBMs1gsKIolZZVTliVVqahKjZCCLMvIsoFRrYkgTSRpmpBlAzSa+WzO8fEZR49PODqacXo8Zz431iKaUMJt0OrgCYQgSSSjccZ4PETIhPPTBbPZ/FdMdk0khJBaa4UQgmyQkGUwn5eoaoMhE4YhxpMBN2/t8tLLz7C7O2U6naK04uT4hOPjU87PFpydzZkv5pRFQVGUBmTXbjitFRpNmiQMhhmj8YDp1pjtrTFb20Om2yOyLKUqNednSx4+OObw/gknJ3OWi5yq1FdSnQAyge3tMZPJhOWy5OxsTpEXv2K0ayABounFJDUAuyysdQd9QyUSGG2n3L69y8Htffb39tjemjCfzTk9nXF6MuPw/mOOjo5ZLitUtaYhtco130EmmsFQsLM7Ynd3yzDbdMxoPEaSMjsvOD4+4eHDIx4/Pmc+K9GVa+5FVSfAaJQxnQ5Js5QirwyjFWVnIZuU22c3v9/pMhphTXlCh0Piuubg4DafeuUVRsMhhktMtVprkgz2DoY8+9wtppMtBBlVLrh//4i3796nKKpWS5uSNWgBWtRuDUAIiZQ2RQ3yhUIKgZCCNIPRMGVre4sbO9tMJiOQOefzBxzef8STo4Iqz0AlqCoDJU2FUtsaXPsBhPCeVCPQCCBJJeOpJE1hMa9YLDRaxSatQItwCMxvETB5N5NpdNeNdXSpTBcngUQKjabkBz/8MW++9RZVtUZCrKE0rsJnuM9+7nN87V/9K+7s7KJO5ggqtJToJEGqkqQqGr5USJSQzTD43jHDVXXpGgQaBVQyRcgRSg5YSpNHoggYXieAdC3UGiE0AgUskNkpSbZEygFCj6iWQ/LFmCpPEVKTphohZT1IjgMM6wmErUu4JTQtczQ5QqcIPUToxDCHdadY9rE2k+if89fGaFrgM/HTIFNDikgrxHDJf/8//I984xt/yvn8/ErlpgRsET759taU528dMHrtIed/9V3Scc72nW30dkbxZEl5t0L7Ek4YJvB7ohlEdMNgQihAgZYciWf4wfDzvJM+C2iSJo9tkwp8FUKDEBqJJhUF49E2O/ua6TagJWdPNEcPFcuFRIgUKWOnb+gc7nr+RAxI0wopBVUpKCvQWgbgwjCJbi60+MzxYatWLRzDbk6Xk2T2KVfMg4A0FZV8whd+/1n2btwkkfLKCy6pLbqzgVqQn5zxzv/x5zz41/+a6cdmPPfRGzDMmf1McfydFI1hspodSGrV05RR/5ZopJF3SApSckDzHT7N/8x/zY/4MqBI648po0KTG7dHLXskGkGFQJFyws74Ec+/UPDsi4LRaMzRg4Rf/CTnyfEYpccdz2ZVZoJGQtNex2QDuWR7NGeQJSwWKWdLSUVS3/WZtZ4sXl6fFfzvoWRXdb9tTuKSTCY9sLCuBI1GkZPzKl/7n34fysqu02DH+DKUti85SZQAolKoYs6tWwnbn5iiWDB4lDA6zMjJG4ayXS2xkkg5nIMmQSGoMMNVklKQoBiTUnIDzQRQKCo0Cl2nN7LN9xarumUaxRZn85K3784p8pJnnxfs7g547hmFLs45m0OptupWxV0k0SRN+21HAlRKUZQVmZQMRMpYSuZK1G2hTu8kdO8k7fwu6r65DM65zDCLeoKvN0TMRE4YsEVCipAChOzIdTFKu9WGayDAYDth/OwYWZ6RP1hQ/GJEcTd8CNt1Vmr5YFqiSClJKOu0GklSD6xlgKq+XnkD4KSMxWqikXICQYZml/PZPovXF5TlQz7+ySNuvbikkqccvj3l5ETWjNYv9EVTj0mjkCzLhFRUDNKCQZZS5AmlVjiJJbDossGdXp+J4Fd8N/y2GZl+uCib2UkvsAZQu1zPtV2nN0aYkkk9glchYZnM/OgaBCEEk2e2mHz0Bo9+8YDFDyrSI4CqyeM30v6W3jA4ZjISyF43jyNIakFtJSDNdx2UK7yPVdCy/lYx5uGDXSajJ7z88ZQXPzRhkCy5+8YZxydDSp02Ukt7Zbo2+yo+IVcJoshJpGaQSqoqYVYqFNJ7ahG0LezauKvdk8Rp15OtQ1w4r7PX++oN+zi4dmWLVppVldYMtP4qDVJKpJScVWc8vncX/aOC7GhC20gQrTnmp2gPqlNSNL+s/rc4R9WlGsznYzvt5bYYR5BS5nu8czchGzzkhQ8JDp5LUGpJ8doZp+c7nowxXe6YNmy1Yf0BpSrIyyXDYckwSSkqQa5t+hiHCRyzrRuciw/eJpiqj7Q3AvGd7nLDsbosCSlIktRiMk+IC0GWZownE/ZvbTHYnpFWBcu3BOqRQFPVUkrWOY3pb9BWCpT1wKla9ApSjASQjaRycsA6EgxCslilbNSi8FwaTira3+AgcYkmYbbY4a03cooi54WX4NkP5Zyf55ydlygyZN1GXcskJ1UJnsdQhqpKqrIikyWpTCgqg1vsYMSqcj179WO4/jyWLp43LiG8aicajdIPyhdXgftGEA63dtrAXwjBcDTk+Ree4eWP7yF37pHMZsg3UwSpp1xVY0kKFCUDzhmSGZmCqNnFuiQkEqMyKyAPJFJSM5l9QCdhKu8a0XfbMYmnQktAcHK+zflPFVm24JOfy9nbg7ffKpmVIzTDuqQcY4iYloiobkOSSiWUVU6aFEhR1kya4KSebzSE7euni0mHWNJelKyPL54Cgh67sRFvoXlzIarLGE5vdFmXMJmOODjYZzzNTDTE2Sl5XjIgxdogxgx3pRXAgoqsBvAOj9E00coxK9MspkqxDyTr8pNG1oWSJsSNrg6Lq0qs4lYIzs81Z6eK6Y5g90bJ4tESRVJbW0YpOucLXl2uDoWkUIKBrEiRpFSUjYwOYfGmqvKi0izsg4tLFkWIOf07rgbt/bbUp2Y3IQEyQTh16Wg8yXjxpT0Onh2hqpLlfMp8nqAqGJJA5BezStMfLKfI3IOoRilaRSWxTJYELQjVYIgZdNMd4RxzlqffJUcPBW//YsSdZwuefb7ifL7kZGaAvZXJ2pOWuqnDd2sklFVCKUuyRFEoKJVANNaxG3zt/e5ntVDqbU6XV1um1k3aFbt6rgb8BQLZxWR7e1M+8vE90sEpi3mFmr+I4A4lJhZMeULXsIlzaZorKbrBXaoZemqrzEmftJaHRqpJFAbHlcgak8ka6TmR7gbUqlNRO3jxmMWmmc1G3HtjzHR6l9vPLZifTclfLymrMZKsnt8qGIAQYxl2LkkodMVQwiApyZVvI4fqfD0qs6rrYkxzFRYTzSR8mrV01KsFSTYIl5WkhGwkSTLB6ck5Dw6PzHUh6+FParBsBib0madIBoCiqpnDNd356+1AGMaydqR11KrGT5Z4DOQrZ1tiqJKdleRbsgrB2UwwO9Pcea7k5n7F44eCo5McJ4Pbn1hJKARVJVFJRSI0GYqinl6+XFo1iDGsvhigvqy/P6y/i7HdaPhPfHnVHFOSZlZraNAwHAmm21AUBY8enrO/fRasvZW1ijCIxAx7gvHLO/epa7ydr9ZOtHZkVXdZioX2FYKyZijLbKqWVE4NhR1t1aRBHNas8FWoQlMoybLQSJGzs1eys5NwclLWdbpyfb92bM0JBJUWlKoik5pEQqnc2oYD/zaPaJUVt73NNJuw0eUHfZW6bDufQq1xqXo1CCRJNnTqUgiYTkfs7+4yP1M8erDkpWdomEx5zJE0M1h5q3eaQb1UJGolKGuGcbaaYTd3XdUyoazZwsg3Z7PJRiV2P6bBTLqBtk45m3uGhRcLTb5cMp4U7ExGDKQgV6YnHPvH3e2++wyYCEiFWVGNjZB222L1u85eW8Volxts50eMGTuUrbq5r+tLAhNVevkN3jJJEOOJx2QSpltb7O3c4fR0zulRRZUDSqO0kS9lzQB2MP1PiiJjEajStGZNBRTIGu6n9aAqKlGhxQL0DK2LWjEOqBjUOSpSclKWWInlsA81E1plqmoEaC1UBfUi/NkpnB4ptp9dsrM9YToeUJ5bNBkrstCCdVak6fBEmiUXWVl52b9c02badZbl9WIiW6ZDj35bnWSzveb6rdYdOoyAuXC9UsB4WjOZhjQTbO+kZAPNbHbO+fkCtLOfjEJLmoaZpla1VCpqmSZrBjOdaeSIosKwTJEKhns3GB08A8NzUl3xTPIsnx9obuhj5qc3OLxX8ehxSaWtdHKSyV9WsmrMDr5jeNt51tKF8zPBoweCg1tz9vZH7O8OOD1XVAEuazNKG6A7B7SVrsLrDT+n/1e0rncPytMj58IIl8+6VPxV0Z8rHS0YDieNi4rRKGVrOyMv5pyeHrNYzIMsxn6zM9Giq6RWeBpBXksqibUqq1rWKAQyGTH6yDa3vvwiz3zsAChgWZGJF6j2E86mb/LwXs6rf7PD3/7NNnffgbNzq9D8cBwd/LZSxv1WuFz1akSVcfJkwPnpGTf3l+xsK1IhUTq2Kt2QuPVT746WoBVC68ay9t2Z/eooLL1vGNez2WUYsVtyWgazXn9nJV/Fx9+uORuNDJNJAaNxymQ8ZD6bc/T4mKoqveH0Vw6dtDCRQhk5JZAzqlGXYSyzPpiSMByO2Hv+eW7/3oeY/t4WswePOPm7Q/RZzs+XBT+5PWb3kxOef/4eN3c/zIee/yh/8W8zvvs9E0smArPCSjb317bMX4LC6zTJiPnphLOjc27v54xHOcMsJc+reiUiHgCX36poO63QikS4+rQnDe1fX/HSlOLKvtz65maY7OLetzjHdUkyqKRAjVJSNCQZTKcpo9GA8/Oc09NFs7dRC7cSmQPW3wWQ1j7wnAUaQUGGsdRUrVwLMjL2n7nFM7/7EsMXJ8z+37d44//5EY/+7nWSWcnfLn6Nb+5+glufucHnf6Pik595nc9+7ojzw0/x6J0Bdx8ua5koWkxkmcuFs4TOWCuhJJIih9m5pqwKRpOc8XTEae4UXtz14V9TmtYJUJIIkEIbqYaTTV2O47BM/xnW2Zfr7cC+dOsYreuJRfz9GsSZSgR6nBlJlg0k2zsDBsMBs3MNKkXr3KvSrFSqqCmKlISEog5LLElre9CokYKS4WTI9q/fZvjJEcv7j7n77dc4+v/eYm8JE1JucZvTh5/k+38x5uc//wF/yDFf/OKA3/zCPq/ffYY3/uyYlK0Ai9mPXVSXzT2Lz9qdp0gpygGq0IxGBeOxRhz5oTNxr/rAuGZpbXCwkNqEdVcO6fQpR7z7Ori/bhQvM8oh+3S1JUZeIRpzDqPrIUGaDUiFgMEgYTodMMwGpAkgUtDOSNfCB7yOjKc9YQBoBrX1CZIEDZzKE9SHE/RvjJjlKe+8esLh92YMl3sMyFlScS4kaI3WL/Pm6yV/9m++x+74lFd+7Qd89GNvsf+dIcXZx+oavbMxoGYwx2RWSoQqwGGPqkopqwXZsGA0VEgS3Lplt/vCIVAaJksSkFIhKl9V9jtZ3Dpsl8V5WYqt4vad0I3i90RIfa24mgvY5JWDlFQmEiFN7FiaZUhZgZbNUGrP555RNCrBqirQDElQTJjX6WotzJPhnOzjQ+SvDXj8nVPe+t6c2ektSgq0eExxawTP7nLr0QMO7z6H5gZv/PBF/ubPfszHXr7Hi8/d48O3XuTNs0VnV4h6+cm38UIWc+pQo83RA6okGZRmF5OnutoO2A5JUO8YkgKSOtJE1BMqVtM+LvPb5fur4nztX+toNbuEVnObZUKjRcQ3EeJqCE0COpEmMrYsFUWpwNtg6zfT2lqq2Uzh7pq/EkVGCXWjEypK1AC2b02Ybu9yvHhCsawogSUleii4+YWP8Dv/9Av84i+3+eH/8oiEMRJNVan6BMS0rrVsPYBo1itV0EH9SEY3WMOm98OL4tQiyGnzS7MbSym0VrgAyxD8+60MY9VCl0YoZ/pUbd/zhPX0Ud8aqd+GeEyt9/FquEwgay2VYvrMHHxXF9rIAuHQhlnkSer7Mi4OSHGeLTPPSxIqLakUaAWVsuGICflgi53bz1OMbrBgzs7ekOJIoSnq6Fyjm0ytOV1kVwPaXekrOYvUKqT2LUXfwxXLFCfHw/p87BcaIAQl+CsIIWOF6cLSLyI1uqTgOhYNmcm2MIwlabPd1UgpZYC/VkZ6aDRaq9p9Qd0IMOeaiGZZSdUqwm+mxm4FMVQhEeWI4lRSlpp0L4FtwfzxkgrJPJ9w9IMzvvv6v+Ov7mpe+ew/4dEPBA8eLBllC9IsRVUTVCFIyBERY5uJUNTLUxLrVAjVnJVYCliSypyBgERJZBW6KlxqCAcvLM1Jr6ArvTJC8Nxmhj5XxOaDa1sTT4o4xXtNQplz5xomU/Upg1qXlFUBxF0jm2Aah9N8+Om61wxLymgxZfm25vRszvijQ7KXNbM3jynVDZ4sxsxeK3htd8lR/haM/5pPffaLvP1zwQsvHzPeukN++gyL0wpYIKKoJFEzmXGupLjINN868m3LJUO5YJAk6FxTFfZp/OfwbUD/ueIoEJ+6mNRet30SX19fVje1n0x3/OpqTZcUs9c71bS+OqsKNLqsmUxpTVkplDYfrd3MtFvqrVfKKAoTVO3iSW2wm2luhUFT42qL8zfO+cWrd/nY517i5ue3efLWKQ/fGEC5hWCAZMH9h6/zztn3+IM//Ef81lyS7f2Estjj8O0Bi7NzZKOoo16o92OGXus27FZUpLJkNKzIBimnRwXnsxmaAUkDAWIGC10YLjgpdhLEQ9xtQYrgfhdtCoD8ad3VCr8sfwKtsyGdmADdBEZcntGM4CrywkoyKEtjfQkBWSopC8dCaGPHOQVjQ6WF9916wJNmB+WAMcX9OT//d2+xt3+Dl3/zJbbKG3z3mzMevbnDooDdnX0+ufVrfOITH+Hzv/Vx1MlrPDl/hh99v+DH338Lqe6Q1l46H+G4synMjiY3/P49q2IVowFsTVMG2YDFOcxOcySDZqrYZ4ulkRtA5wCQ9ZqGTdOG8Hj33Pd2wPaq9KvuxxKtaynItstNnlBaO/IjyhqpLTZr0SqqVEWeL2tJpmC5KFkulwwGCdvbI5bLmalCmIWkJSmSrK7YDqmRaOYQARM9b8INkzpwUVDmu5y8NuNn3z4klYL9X9/hY9UW1Y/gNEkZ/vpL/NaLn+dnb7/Fv/033+Q3Pvwx3n57n1f/8jH3frYgJSNpQoP8PUwWgpv/zf5Nu2LpS2LDEsNkxCjNoBpSFYCyW1189vRxZltCSKFqgwSEljjzoc8NEZege/PY1OsHtc+27FJ6fdfaZEVIM3GFbp1cdFHSWqPzOanWGlXByXHO0dEJN3f32d/f5ujxDOtFUWiWpKSM6zgLOxx2k1tRy5O0NgoSSjJKBlR6i+XRnOP/+z6H7zzmN//TD/P8P7jNzu/OUPkuhV5Q3jhga/ocD398xMOfFPxf//uQN362g8z3MGxSNnLGsoNE1sxtQ6hl42Ax0tVGZUCKZCS3GMgESomuzhCyxG7vc8gr7HRDdte4JpWaVFa1v002A7OOPWKktCrcp0vOrC6xL59Lu87mdL2K0wJ2iC+tL01p1fyM1JzEI5mfFzx6eMr+3k1u7G6RJocgbDSD3YxvrTjbdCs5EtyScRJ8KhI028jllAfff8h/OHnIg8cnjF7RbO0XaD3j0duPKI5eZHJ6h//zL7/Dz19PSNRNMhJMwJDdrW63n5gHcJEQspFrfoSZ/ZcgmA4Fw6GBAfO5pixchK/rFFrfHduWZmFcaBO9oWOG8RfBVw2oat1fl2+9PGnbm5uW0Cz8By3oRpcXI43QGj1f1q55AUWhePJkwXK5ZLo1YjhK6yOXbAda7OUv7uhmaC3jqQZByeavubcNesz9N0555389Iv3ugJ2bEp0seXyW8Xc/v8v84V3MPoFpEzIUwlzn3bLyxXaPqcUGF5k0Vc1qSVKyNU0ZDTJmZ0vOZoJK2/gLH+h3SbNoL4FWKF2hajXs+sePlqejnLCs7rvxFf/qalqdahWTxfevpiL9chMhkXlB2nSOFpyeLDk5Oef2rT329rdJpB/WprEHqjjwbxqkmq4zuyhthL4f9GuCGDMq9ihOd5l9L+UeKQqYMUKxyzYZ1oozYdmyZhNbQh2bVrsrjLlh1ZbDYTY83GKzyRR29gz+enKUcHqSIEkbBBJ3sHPFWFY2EkgKM70q7bCLk2A+uPa7uguxhQzdZRf6ZazXWJdjjKu6KNaRFBqqsrYutXmUxazg+MmMl156llsHu2SZDbBRVCgyrJJyZBnMbYezJ5E5prCKsySlqn+lpJS11MvI2KKsD41KGCEoWdYh39bVaZ2t9gAEw4xOcukaGyaY7XZGskk0OzspO3uwmAmOHkkWC+t00ahmwGNXrl3bNDIyqdcxtBIobSePz1RdareLZVYzRKiwNqV1jNjvvminux5J1hwDVlkXRl1wpTSLpTlhcHt7VB+RLkBbC8w3iZ3wdzO2wvrSnDSzG99o9iHpBsO5BtmD7sBEcaS1UrbL39ah4haDLBozTGYtXPs0umaygRRMR5CmkqPTkrPTJdRHWFnY7zrY/Q3tTUUmFZmEUlVUKsEfWCfTu4c6vurLN+1d7Yb41zHoq8rw2brffLhMjZVSVFXlMJnWoCtRuzJKJlsjtnZGSKGRKkMy8hCI7VYrwXSz2OJH3LsAnAwT+WXOkTBYzT6inT2GQST2dAqFU81JsxQONqBbIEgbiWK9Ymb+lHUu2B4lbE1S8qXg6MmS0/kc1bBuaFm6Z7LroVZilkhZIqWmUqo5psCf+bFi7GI6HaRzMKIbx7XZv58uyxg6+lwzKQ2VInW7UcxDnZ0tOTw85s6dG9y8fQMpFbIcAJM6GNEdHeywGI1/zMYm+B2pSIChp0qdqWxrd/vLNWaXkYBa4lnb0mdiK0vsCWVOiapmn/s4Sbl5I2MySTg9Vjw+KcjrUG4X6Nht4pvWW8YvSEVhnl3bHC4o3Un0rlIc+dZoLC/bkg0sq20iXy7LIm4vRGRd61qDXeGMMiEEQtuzTpoWCmanS96++5j9m1ts7UygOV5T1mfmJDWD2W0apqttPIQfn2BXB0MlZj1Y0hteO2gu+MYOYVLLtgqrVN1Q2TUHhW7+t21LgBuTlINbGVkieeeo5OxsGckPf6E7RENu+EsyUZLVUqyqzBlE7sl9O9uVFcvIkKFiFRW3gej+1dTYKkQW+vp97RSmunT9yjKZR0VR8eD+E+6+OWGRn6KTEwaTksEoIV9Iyprr7d5tz7hvmMY4ZrUnsSpPfVpGCw+apMlpIbe55h8x5ZhDN/Xb82V1rdzsWuR0lHHn1oidG3B2nnN0VFFp1SyhO1Uomla6QXaqUKIYJJpEChalptAOIoRqJgb84eK4Hw4UerXa0k63yur6Hua6HPC3NT4dsmsiLSbTWnB2lvPTn9zjzdfvotNTJrclN25OOH5HMasWnnRyITZN/ubjjALXvXbRJ2l+OdXjFEkY2xriHj8iV9cHJFgbMamt1mGa8dzNMbdvK8rqmAcPFCenWe2yVY0zd1XnmzuKTGqGiTEvKm1Uf+gyaa8WuBJEqybR5CH65moNmdDv1cvROov2aTGa0MY15jGZ6wal4PjxgnfunqARDLZG7N7aQZ2X5E9yysZj5otRH+W4hocA2LfgYrAddqpbRwtLsde9oGqc4k4ZyoxbN8bs3RTIdMajRwsePTLGh3XvupZZgN+9nigwx0Vl9ZmxWtnZGcaT+fFjMbx37Y4lVxsLdsVVbLat4ymA9mshqw0679WsolNghJCCyU7GrWd3mAxHjd/flzrtuRayTLty3/nR7qZQosVIzZodVmkaIyERmt3tjGeey5js5Jyfz7h/mHM6rzDnbVhVJ4O6nYL2NwlXpEKRSYMsi8pE9lpGd+3o/uio3XTmicFGrBrja+8VXaUNQbip3+127g3Q5YTzsyXL/Iyd2xm7B1tkqT3OEtoxVm7B1ZW17gHCNGErbJquAXFYSqPYGmueey5j71ZFUc44PFzw6ElVr59aiSOi8nUjgx0DGS/fMFFkidlvUFT+6x389FYG+xGzMUq1z9DHnGGa+Jova/3P5tQ/Gdp1xt8vf+AKCLTsfVmESWAO5h1y/CTn4cOH7Hxkwq0XhqhqmwcPTpkVZRsi4rIAAB7XSURBVAPo7WDZ946Ykuzubns8p1NQ5r7rPOuIsEDfQWvroLDyxq0m6Cbfkq1JxQsvD9l/9iGzfM69ewsePkrQelS7dl3EfzyVQpVu2p0JxTAx7FlUmlLZvfHtAQ4VrW+tQTwB3YSJPWS+Go9hxia4yq/9Ynd8pndBA/XYiIuxs1+qEAKk9E+/rgur46Uad4DOWCxSDh8s2No6ZPfmDZ752IjBdsnjo3NOj3OWS6OuZO08MI6HpGEoxyRAbf35rg47JOYQKIu0FDYK16Z1x+JlZsmCOeMx7O7B7TuK/ZtzTmcL3nqr5P47I4p8FxMD50fOmud1p9g4+WW7OxUV46RkIBWqyiirpGZ8y9ox3myDhbbzos14bebssxIvAvz7mMJi2K6URmJZpNtMO+H01GUUphIg0sR/I0lbZQkNqASth5yeSF770TG3Xyi4/eIW+x8VbJ2POXxTcfj2jHwpqbRRsaaZ7mxspyB848AfIt1ctw9tJaPCnldhy1HAgmywYOdGzu07gmdelAxHgvtvw89+lPHkyQ1gAvXm3a7o13A4rco18jOTinFmNi4vSkGhNO4QY/fXh/JtqO87RUIXTdjPMavFtmWfO6P7SpvFYhbpYxd/OvhRv5fHY1qASNMu67KPEuYLzdtvzilywZ0XJ2zvDbjzIUkyEBw9mHN2WlDmFlyDtcVCuO7UoAiGwJczPpqxlmNSq8ac0XTJwfMFzz4/YHtngKbi6H7C3dfgyROJeR2O9Z8JRNMO54cLHStgfV8SSKVGCEleJhTKt/FE0+rVq5WxCRSydher2ZShRdnFaF25+uv2r4mONKue4jpIGkm2+kG85IAkXxY8uDdHFYryhRHTvZQ7H9pmspfw+PCM44cV52dzykqjmeKfr2itOuUNsD/XbQcbRlDe0IBdpB5PBLdehjsvp2QDyeIcHh9K3n5Lc/QoJWGIv7TuJJAd4hD7+M8u0AyEYCgEqqJ2vvr2kVMrjmIlY9P5qWJpcn02Y5917rfPpnN9GeLBp2W/aiGQWea/inATbhYIMspC8+CdivOTOfvPjdh/dsz27pTJdsaN/ZLHhzmPH1Wcny3qxXGzMG6i8J36CmWLRWOyuWNdCmkimE5TdnYTbtyWbN1OqJTm0T3Jo3vw4FAzW2RoBrXccgpNNM5X+3y+NezjJkUmEiYJZFIyKzWFcrayD8d9ZdsN0+OyQxnSlTcE+W1Zs3pUNk3p52kvzV8We/VXIkgGma8u40XSsHLRKKwaW+mE03NYvK45P1HcvJOyd2vI/p0hO/tjdu4veXC/ZDZbslyUlIWiVHZRx8dp1vIsmnqkEKSZZDwdsjUdMBgobuxrdm+niKHm+Lji/t2M+/cqTk8F5i0jKf5w2nixsDvjrjU1Wlk7kpJBosiVIlfhBmbfIeHKcFIsZhlbfgj/Y6xmKcRyXbRu8Fcjt748oqMt16c8hRCkWereEhfjoq4mgXt9oKqtxDzXHN7POT1ecnYkGWwXpJOK6f6Irf0Js9OC5TnkC0FRKQoElbbh2aDsG3FFZcKlhUIkmmyUsLObsr0zBioWyzkPHz9gNk94/HDM4TuaSo0wJy24XZn9MsWnUBEnwFBKholx2i4rQaEksvGvmTw+C3RJt1BFEjGzbuXZdDDbhgWtK6E83Fwdd0nZpmd0WPaFSQqkz2SbFBUGHVv8ZD6zheKtN5dUzBmMYfeOZntXMJ6k7D83JslSZCJAJCghGyYrKtAqQbKFksp8dEVZlcxnMx4+OGU5Szk7Ezx+VHByXqAYoxlBs3PcdZlvQdo2W6UXDq3z7Y2kYJQBomReFuTVAIHvcA4lkiuzW3651sST1l/nbN8JUVNXz4el+20Q0Z3L4L6gTl1PjSvoT3tSVJokCVUVv80jJGsN2sgjsItKpmnGN2ZfxzlgOa+493rOw7dzxls5k52cbJSQZoJ0IBEDEKkAYTaw5PMMXQxRon5HnNIsF4rTkyVnpxVFPkTpKZotEjLMCdkWecWyJVQ58cZVf/VSoAyDpRohC/KyYlHROE1iC9K3Ed1aQ9uR4VOoIdrSLu7nLlptRXbv/BTRvXVSM5bSQddeloRgMBySTqYZs3OzpXwVGbsqXAT3Dz13Hvp6m60eUuSK/HHJ48f1cQICklQhBxKZakg0Zakpc0VVVFRKUGpRx45ljbSCQaMWRRPXH3aeagbdrSn4ULrtclAMpWCcChJZkVcVi0rXL181NrCTPCG6iwFGPIBdbNQOKIjvu37e/P6mjLapB+H6aTgakU4mKWht9iKWq96LbbCYDbSJPfYugMY/9zBFM2o6WGlBVYAq/Cgwg/Wc+zVprlFfE43FaeoSTWucYzfEFjpiASeDDNJKkEIxTswbRvKqZF5pCpUgyQIXSIxTQ0ajKdfWTOubTdP2fnX18Kr73bSKgWLE1pfu6ZAG0lH9bqXxNEUmmtlMUxSr5KQdOhdw4wqMX3/qVKyPlSwzgY3WDyNkLQv5eMe8BsLfgBqGAoUb90IbzkdgEklKyoABqTTvr8xLzUxBrqybJYTUTiK2pWGfRRejIV9VXn6Q22sB3TW05eqq36sV+BVJa9LJmPT8rGKylTLZGoCA09MCXVVRW6wUazcoBNk2m9uvaK9aqeXmndvi5pjSMmO8O8ofVuf6tErRX4G0iMs/B9u+XyAjY8CQTGYIqVkqwXkJRe1fs9PCqcNQMnUtavdZlDF8Dx0n7UHtk4Fxqn528Gtuj1H8POGVq4Kv/iYNxyPS+TxHaxiODN4ZjRJUpSmL2rzwNrI5Gyvu1q657eC1j5WskgsZDtySdRe+8BGQ3WnkTtYR0f++7WciOxQDCgZSk0qDHwulWeikPq3IPCe95di68frASdEYl8WSK0aIXUPq90bMyiEDhtCgm/wc3f3p6rVP0+WevRpJKRiNRqRVVTKbVSwWkixLGE9T0ixhuShJM8McxqtVeY3ykZFrbgiS3WP65oFDVi4q1S5M290DVpKF64suoko3ilZ4yMmXcn44Y8VAwkhWpHKJpmBZFcwrQd600gf5yisrHHo377uWplwqBw+sbA8ZrXswReevUP2vZwHf1nUlrVLVcczudZiVdcmJZGCXlbTWtRsDsjxjNBqQbqWMJ5l5CVPzwoguWypUZdQN9aF3l/gOO8F919433XRvXEc4690VnxWM9B1IGKeCTCZUOmFZJCyavZO+Inf5w/fXhgv3PqO5pwm/hzLax6V9Es/9iqlb/l2FCeKxiFtxXUwmzHH0ItpIUinFYlmQzBLG44QskwhR4l51I+hCBU7KhA/i46I2VnB4a90jOQnWLUOs3LHozy50ZxKGqSQVkqKSzCrJUvlb9OITdvxNvzEEcPWGdq7PPiEjdGG1ftaK818NjHcDmi5LNF5muyYSAi0EGTKOjNWUZcH5maYqM/JFgRYFaaoYpglUkkI7WK9wPikH2G1j/QbHWwnaIdu2fncIlC/N/FQO7Lvus1ahOdppICGTmjRJQGjysmJewlKDO0fDi/4MGF3jb31w6tdZyRAyvmOxeBDj4RMdbOSrqj70dPnBXy0nY3JH5AiB2d97Fb4TgqlMIibTRnUWqqAqS2azAhBICaPMxFDkCgoFOTaE0MawhmuI5gGdpHLoypckoTr1VYOoB9uXYTEidHivIiUhFQmDVJMmGqUriqqkUIq8Mu+ws5LOnf0fwt6gIwhBc6i4fdMldm2EoLt9vYvR/J4IFVdI16cm4zt2sjSeSglKXq3GREh2kqwrxt+QxrxMFTUgLzR5mbMlxwxFQioliTIWWkHVNM822UW6+nFYPrPZ4Wq/riGOdLKuDkeqll02vXlDSCqUeWWPrChVQV5BrhIKbeWjqd+Pzgif18mRLjy2CrU4u6yNzdqxZ/G3uPSuazrql82pG//6V0RnivaPi1cstWRbpP1MZhJKtE4plWRelqRyTiqHZGlGqhOKUrBUmqW23nrdHFcQqjMf11ivlR8x7wB9rHAcLHfbiBMhSIVA1O98klJBHcWxqBR5pSm0eXewjRxxbO7Uo1NU0qs9VM+hrSai/8NnDB3PzgMYGi4+pvOftI314nZcZsxj1l+tjn3zqSfpBShRMNUdO8ibarX5GKWcUuiUs0qRqYKB1qQyQSaSgRAkOjOnAglt3kSiodQm5l81w2fliHswN+TOoIiHxC4oSSGNxMK8B1wmCi00lTandZRKs1CKhbKnCGUI7DpkuDYRK70Ykbn2+LnjXLaFMTnGswgztJRDcydmtOsE/+BL7m7ysaBtMYhuG+FCpBC6ZFwtOphM0Jzh7pCfADIqhhS6Ylmaja+plKQiRUqjMoUwe5YGGjP4qn7Flq7PKtPuUJYK1UTtW2lizrIQIBKEsAvh2rwwS2BOnhbmXQOlUuaV1TqhVCmF1hQkmDcISPwle/NYsarw2c63KvssQRHk1dH3sFT7K94B1KUidauWNltcUW+tKUV3PvFVGVyDykmq+Rp1GZGNgKiAUlfISpMJRSLcaYhCqGYrVSYEmTANVlrW5/vrOsrCGQHKs/QkEiEkUiSgJRXmvLGSCqU1WguUEhQqoUTX52JLbw76SEbRlhSWLcJY/Vg6xfDbl2jh/fC77zYOc7ja/Vw+U8bToa3gLqO/4ri3PukbIsDL1+eVqiuKZZck62ym+0jsy1XNmau5Fua8dhzQN6HaJuxPCoWQqj4TvsZj2mIyszcPpHlDsLbWam5cJTqpw39Ufaxng8pw0Rpu7jv1a1nMe+DOwbV32kNtn8OWbfPE6tWV7avAsCVhGtWRr11729q9+ICHT9JWw1eEXCtJAEJpnhyfXkyS2aH0l6jdUlEoYgugQIMGXZm0LhLM5LOSzDbLqFHDaPZ4Tnf+rA356Xr1jCBkHd+6ozN9eFW37vqK1j65wDGaTd2e8/5Su/1tZVzYlzFabKvKfuS3KT1NRlpHqoLX7769GZPp4OOUgi+C47AfQyYmjDqHfWW9rn9p7HIVgfqyEtEysW+xNQ/QtMQ5g2PL0J753x+7ECtJ3wa1v91d/+li9gphvW+tWueu74YQUVmu1aEC95/m4tSv9NzE7GbC62HNosj56U9/uqkkE8HHZ7ruhoa6X0d34k8bdPs+N+Hd990jfiBjm5w5YbFfbM2F8ihGK43tg68MdZC329lqFXUcDOCHWLpcXezaxWibxUh0ydX2c7dz+M7letpfA58ppbh3714Hk7VUt8C+NNU/fs5JHr/h/m9/LvtD0EYYdvDcbkx7PZaQfqd0UQhg4/iC7nROdsXqLFaVYRqf0eLyfKnmnBdhiRCytWPjtvFh76+WaA5d+iDeL6GrVLCgxY6CoESIq5zmU7dWaM7O1mIyq3SMc2GVAPYBbrjo48rqhq8mtX/+7Gr10He/KxpDe63y83WpQddGf4jCpTH/bp8adsNs0/er6+umePnN9oGPMrsY28p8Q7JxqXMliaY15EW+3uPvmMtvnPsdGwJ2kLXXfN389rFVd8fHcpHot46uxwqgT652lbeOHKM4KdI+KTqu1dXUh+su3g7d+6u7Fe21XqeWfX0gUM30tr7Ctml1OTLvoKrsG0muTj4TdZ2c3PV5erSOUdehyBC3iQ5G60I4sSOkzVT2bqjC4r4Ir3cj21WM1qUaXahW3NpQXPS16fIkWLGs9EEiXyL5yCZGYrGqjEvwc/dJV0f9Tk034G3Pfsiofv2u3NW4lODuRZfV217Ay5MQAik/AEzWp3rCwbfyqH+mXlSFhXlXWYxxybHs61tCars3HG3GaBaohKX3aRJxTWrSkRQCKWWg2z6gZPFIl9LajKW6O75tI3dbsavriGF6W+r1UWx7r67D/O1P/TQBzBpJpkFfLo7p/Uh92z+604ZKa7WfqksOtmWNHwS5OnefSwS6JdqqKzbXKga7PhUZtsX4J1cymQazLqn1ig5+7ykcpFWDEcPfGFn5Oe3QxngsNiGspJRR/TH6c99WobFu9dkX+tj+1X1lFa1Oe+lziQEtqN3QvYXXcV4aLqJa3n3q89m1r7dVU5g2Xrhapcp8e9reD+3ntkr2F9FEUKZu5e9X6W2cdVmKt/+46/XfqzBYXT5iBZNdDz1dV4Wj7k7v60Cx4n44sOtwT+h6bp95388obXnjM/tqnLaK0cSGTLh69eB63ExC1uD/yiX1VbDmMd4t6hosgb/sHnbn6u7dRKJ324Pr29du47r8fffX5e0aGeH9u04S8b7L66cumPtuUegXW+0AbZOfJ4Tw3f6zvt9d+CtsX9yeLn9eN85st9jd63Zx9DPRZgvwFychW/sur5/8+P2r0apOvUw57UGJI/e72MAxmm/9hXboakazeUWUYzWjuRK62h230i/DN1r6qYvBroPleiVZP2z2//rX24onfvBVDY69Te1fXfIgzNU9czers/tuWwL2BeG4/+Oy29I0jJftbn8sdVczWvekcKXZFF1KNHyu2G4W18BlQqyQZBpjgnbZPuGMtTH2vrh13RR3yrp2h4Pl1xTPdd84vhj6WR/p0a/ofRm0yRh0LWd1D3h7kjrm8WVdN6PFqVypIkrvTwHzXQZ36lc7Kq50XqxtkUjiHeS2LdpVahjNhbOFAtps4OiegT6Davx5Fd/3ZWQ7At6ljNWXvzktlHl+Pr+ksA1dCrit6GLa3EzwaVNJHl/vYsV15bUpfjKf7Uyv+3sjbAqtFfpKnCYQrWMK/DZ1kN80P3ynPRhhsGJfM/uwT/u3vwLoW19+KFEba8UqyUlkmm8xjhLRnb6Wdre9DZ67zI7u4Y4nUVxDOI3CFtORxl1bh8ba8MB80fpquExrvVpdrqZYbXYNymaz3CndizxQqEzaJfTVG0azhsPYZrTuXUmrGa2PutFQaD60dYG5Hi7uu2vttsUIOFSwq9rlRMdmknlTemoujD7pFc5X9zBmw8d11h6C8bjL+6+1UZC7v96AsdRW2W3jgFaaPsMizunYKW5RWwLHpW7a5ush8d5GYWwKmzcvL5zZ/slo7bpiGbuZ3PVje0Ny19pSrq8N6+ii8qTb03/d/XwxSpKELFtxqs/TorZSuLp4XjcL2/cdkrx4PnvHx4qhpInlUt/zdhkpbcmzuYu0W32vy3296jEoWQjSdN2pPr/U1GWbxfctdWE0/479Rs8veq+Z644pnZ0smzwxJozz0eTuTtcHDPy8q8khs83t5fWklKIoig8Wk7W739/04QbWpdfN/zaN8O50mwTuet/vtq1orvr4rnvrbtfSjtuBzpp0YctjQLBOdYZI7zpIa81yuXz6mKwPw1x/Pas7cTVsX6+Qutp8mVm/ud0NqxhjVf6uMKTVn6dHeZ6/d+HXTwcJrGO0LiOgy4/UVc4mwHpT4N8fQrS+X1xZbSbyy4nDkN59A0BrTVEU7yaTdVt511led5l9jBEyhGj97q6zHdcQpw+t0FWM0GZQxzyr84X1ryp/0/iyp0Faa5RS7z0mu5p/JgT3fX64thHQhalEcL2NylzetjdtVQu6vHPt2ts9EVu/upWjna7v2d8b6mayp2TN9lld10OrOrYNzPsdpT5gjpmur3yCdN0uiRDytyeG+91mRLee6EdU9Kd7f5HdH+KY7CkwWPuh24PfJSlWlbC6ptBrpVtpYq9Wu35/0X1VOvury8Zr1xszWpwnZiA/pb/Xe326q+4Cd6vOly8jKK9hst6yNAjzXnBXaXc3+k1bjQTaJvYq+6lblfQzcPcOoVgt2pRtpgH/PQPt3ZrrqT/GdF1ZXS3379gA0PZw+c4R1/ZVJcfkoi+Udwjq1cKxtTbnYaR9dev6H0LZb/gDFP71H2E91OyC2I5Rfdgbw+l2vlXUr4p8RuvK1wfJ+56jXUJXuW301lXiJoPaH0TtK/pwzLqeImQ+5yoWaCHqs3/FimmzmrTAY7L3BV3G69SHgzbDZ9dPq8puR+924cM4Z5cZoYnZsQs7bjJN+tJfJ72vmOzp0dPuxpBWM5q755gqniTt1UtwbNWOfXXfHBSJUe97SR8IJttEmrXdCe8VhTFtjvrdEyGrhLn7kWNsvLz7z23r/kAw2ab0bpj5IVOsUskx2/jp28zXZTmGUya81q18u9nWlnLd/aM1kQvjl5a61E4/vXuqczX2i8F0vyEQMst6l0k3xXZi6G4WwdXrQ6uxn+zvEf32H32WT37po2jg7771C/79N169ZEndjLQpI2/GaOupX/Gus1Z9p5NVw12BmZedkqaUDxSTuc7utzK//NXf4VNf+ggWJn/xK5/mU1/68BWZrbstXWpzHQNejtG6tsNdpBQd9Z0GoRHiigq0bs7fg0PwfNI1g4W0czDli1/5NP/V1/8LXvjMwcalbaZWVrkPYufxeiS32mvXf110fp4u2fI/wEzW7vSdg2l0n9b9//JrX+IfffWLUdqL1WOpz/O3iUcwRGGO+UR0LcwTXu9ynW/6aaq5En0A1WWbLud4feVLH+aFzxzw/W/9gr/6xveu1II+9ehfd9is2/2gg5Tta6vqjb+H1K7PGghCX9Y9HlZ8zVvinrbw7aNuj3jf/U1p52DKb3/l07zypY/wvW/9nG9/4/ud6TZDLX0bifucrn7ptMyD2Nun16aNy223L/yuO65fnER9it4F1WX/sZ7ddklbED99JHANM9CjnYMJ//Arn+aff/0PefEzt6/Qnv5IWF+CGOpShfa6jvK5QyRc2va17nb5e7ZC7HYdDGY/F2CyuAtihOAfA9D90b3d8v6jmCFuHEz4Z1/7Pf6zr/6DC+C1dpl9zL85TtOtj+3Vdo/GKrgXfTWKt7kirmd8jLqMn6y35BBFqIhhrGjuOqSyi2IB/X6kUBWa5/r0lz7Mi5854Pvfeo1vXwKv2d7pfnnO+ngH06YuSeffWY/TDLlwSP98pOtiNCEE4jI7yNvbE5yEakCj19B11tX7lcEsdakwg9de4Z9//R/zO3/06UuX3fXsm8RvdTGLr0NW1Rd/Vpd7NRJcWF1ahpINY5n3h4dN7XrQ1Vjk/U99bbTM9i++/o8vrEJXq871PdOfN47me++ASaUqyovuVtL1Kwm7MNWqGdIu57I2X1cJ7z3tHEz4yn/3u/zOH71y5bIuYiK1UZUOvr+XE1lrjaoqiovvu+z2F3eJYR3dW5XWle4D2PUSsvtObK+tU96bUew2iGnnYMo//Mor/Iuv/+dXZjbfpNqkxV2aYxNt8tRJg1b6YtZlbM90Ceeojtbv2IelIxYMbc9QZsbs0rZb/c6MHQNXn9ObsKrPbC/2LFFtakluKtG629S9R/Sy7bkKhUzW4hYX7FfWr98MDea+w5Q2YTDn+gBfisXyUjXoj+a3+Subj24OFnXfNSF7xZ0eyrnVBr6fq89RE64L7hxM+Gdf+0/4g69+gRsHk+AeK8oP69osXVeLYjluP9L72Hb77zRovl0jIlnr8RcohNZUaCQV1oh290XzPz3tWt1egXmfedKRP1RSbfO8X46F7fOP3rUeodU9uKq9Jvc6R6ehT3/pZV76zK161eB7aBJ8BRK3pLv/rHOjr1390lrQr3TtyGncCJaAkpW5p6+2W8nS2rfETbbHfPbLn2dv6yaJrg8hFvYuEDUj6ATRca1VRfi2oZBE8KcLafSqa+23zgzqcDrgzsdv+lVfkFZn6HvOO5/Y5+P/8Yv8wX/z29z/+RPe/NvDznyrJmP7AM/N2tgYWL1ND7F1qUBxzkd/4wX+/If6igcTG1rJZG/fvcuf/cWfs7W9RfUpZThbiI0UuIa16QILs7MXaqkT3drsfHm/9JrhhkP0TuHdfXfh8HBb8NIze9z5j8b85Mc/4fj4OGjhqhdmNTJK94ATYVO17tT5+woP9cRAlQgF/+Gn3+ZHP/khZVldWWuG0jQq7cbODs899xxJIimrqtmDtymTbdI4LTZgso5Gd7U3SGOlaJNGs7+/z7/8l/9tVEhP/nfBQ/Lv//qv+d+++U0eP34cSNV1Hv8Ljbplvn4RaQrUVi9UCDSVEhw+eMTR0RMqVV2gwjb1bu4FOD454fjkpN2mvrZGtDF2vIxAuQQTHBwccHZ2donKng698sor3L59m29961t84xvf6E23Cu+upR4J50i3nZZRResR7Gq6xLJSvz8spk2std5C1302oXdXG16KDg4O+MpXvsLXv/51PvOZz1x/BU2fif5PnP6a6RoiY0Przv8X/47vbWagX7pZXj3vfzo4OOCrX/0qBwdt39r1eBN6ZmscnegNi4XfV637YkzWM2Z2MK0Ha9WnW751L663K77AR4srvxvo3aaDgwN+/8u/v7EG2Hj6CN37EZaZOj7XRf3W5apKAt0dbrxSnh2zEmsGv7sN9PaVizz5KkX+/qX779x/V+tbORHfLWfsZpXr1bc3Ku5pPO0vF4MBvPrqqxu3euOne4+7oZ/Jur0HG9D6J+pbFbiOsn9Z6fDwkD/5kz/h8PBwfeJfMlotyS7AaB/c4X/69Kd/+qcrXRi/7LReXV5aov2K1tGrr77KH//xH7/XzXjqtBkmi511EV2Hmfv3iaxqfPXV6zsW4f1MFwf+Hd7gX9FmdHh4uNa7/0GkizFZB4P9SoptRh903LWK/n8MC5LRUSr0yAAAAABJRU5ErkJggg==;movable=0;resizable=0;rotatable=0;deletable=0;editable=0;connectable=0;" vertex="1" parent="1">
                    <mxGeometry x="162.00443847656248" y="10.003312988281237" width="153" height="152" as="geometry"/>
                </mxCell>
                <mxCell id="5" value="" style="shape=image;verticalLabelPosition=bottom;labelBackgroundColor=default;verticalAlign=top;aspect=fixed;imageAspect=0;image=data:image/png,iVBORw0KGgoAAAANSUhEUgAAAJYAAACWCAYAAAA8AXHiAAAgAElEQVR4nO2da5Adx3Xffz333r37BhaPJQiCAEFSFEkAfFimJFJSLImUGMuyLcdOynRcqVRStvMlVUycT/6Wsi3HTqriVOVVleKXVEw5TuyqOJZsS6aepEVaFE0KIEGCBJYg3iCweO7rPqbzYaan3zNz7+4CJIODGuy9Pf040/3vc/59pmeuACQ35IassSTXW4Eb8sGUG8C6IesiN4B1Q9ZFbgDrhqyLNK+3AkqEEF6alDJ43ky/Ie9NEbyPVoUKXDeA9d6X9xWwbsj7R25wrBuyLnIDWDdkXaQ2efeptRZp5HH9qnDy3JD3vqzFmJUCa3Z2lj179jDWbiPTfjSfCyyplJOSJP+eCpBGRgkgkoyQS4F0kGt9zTI74JZkhYSb0fougudE8U0iQEjqdqMINUNeRWkhvGusLdKoZJ1FkJAIiaTHwdcPcez4cfr9+NjHpBRY999/P7/z27/N7PQM/SuLCJnmZzLoyLw3CyDlX/Kz+XhJpIC0yJl1sBQgaSLEGL3mKB3DKedrP4RUnwWQGN8VEBJcYNlAyr6bMFIKqLMyv44sJcUUd+YWMJYCYaBEUA4sISQysfE4EMjMCbSOpj9rpYlo9hHtFf7N7/4eTz/9FRaWFgauqxRYkxMTbN86S/udeZaePUAi+0CKyAdACHIzZM1//VmmmbLCBKTMBxKkbHCe7bw+cj+nW7MOCEBISeLULaQszIYeTBmY0C6oDP2kCcnsvGv7CHzXegXyhdJU+wKkSC0wyYEQMpy1UtdUak0dkfTpJxd56LGb2Ti9iUaSDBU6iAJLAImE5YtXOPHVZzj/e0/RooPIgSXI3FySq5MNWg44JAkpCX0SoJGfE8i8Q1MEPSDhB9zPf+OfsZ+fyMso65GVSQogpwZQtA4aGK47SzFsknEuq6cBNPL63fIaFOF+SZ2WQoB0LSf085Ii74P6Q6VJwGDDm+QlhUcjwiKRpHTosJ8v/5fHEL0+SJmXHmwqlFqsBBC9lF63Q4s+Y/TygaL42yg+68HWwErzAVQgydQX9GnQIyFhggZ9JpBMkDqgEfSRBqgo3JX6q8ClztmfbVDJoo7EqF9NBtt1xsGi3Lx7Lia6/SY2cNNombAMBsasHVFY5tA1qVr1Z4mgwQiTNGhCQ4AYLnBQCiyF1B59uqRMOG7DtFbuoNizRA+LPpfkRwZDSSOvLUXks1sW7Sk7oepKjfQSl0UMBAoiifHZBGJZn9guNNS+sD7ra9Cf0hKty6S+1bDHQhIDll2nzHskIUkEUjSRgVttdaQ83CBAJAIhtAE3Z4AJKvXNHjhlQtXcSfPUpBjG7EwDQTPvcNWKDR53aExLpFvXVkkU51xXaOtrEvNgB+Q5w2EUGSwXWokO6v5skUW/VgE/pIfqiRiwzFxmmoShl7I14lg2xS2bM8qWJNhdqByXUjH7rJiTLissO6e/KTcqjPTEqN0OHthgF04e4Ryhq7GnhdkLbptVwNL57XoGG6y4takn5tRzz4TrtvtwGIkASw9HKpSBzFhTQkbx1FpB2RdyoCSGA9PD6Vo0ihwpkl7wgjTZNrmV4nJ6saD4ktLYBZZEW0KMtDqdZpN5vCurx7XclWlZ3nB5VW7wwS5rTVn+zCBEFgiDLCkNCQBLYzgV0G/IXIVW3p393Nooku6uxTJHlxZ1kTs+t5WM2Cek9NGkneLQvEeVVwMaOkw3iDPwISsmDJiLXEff0gmjTrw23GEr43pl36tk9RZLExK73sh6r2gwNoWqxQGWfQnZNhV7uFLLYSWkOYSSHGRamYx8a/ilVivmxWVuzgWVskqK17kLhBC4TE3DwLJBYJ7XYLb7A6tdsyfcnnPFduqmxR5sqPREGM49xemLSUQk/krV5LCDyUAb/VSXJobj0d2WMaekyKW6I/uX0fakcEsJCT36SCRNGnntPWRuv5IiFGAOeOodYWDZ7isOLH1VdnRKMyJZ/G9KSpwM2xJaIQ4HkOFtlj2JynK5/kcMTbMGBJZJpVNUuIDc9dnUXq8EswBCZtNS+jRIGadBgxTo50pkwErpkSJo0UXQNWwGkOenAFOK7wpVbjPdBJayuXrNavMvm9gLJ928uvrkPWwJBpPhiXTZQmOt2nClAljS+GSuqzKLpLonw7qi9dAnJc1puUTSSSS9CUFzYwM5PYHsdOmeWGDTYhb9boh5RjkGMqFLiy6jOWR1zEcT9b4R8nDBZWtrA8rkbPo6tLkPWT0JAQDZrslOj/eky+8GcYWrs1bqKkILFj2S9mgXf4ds2gGWOUclSFm0YQ5VZqkUzxD5oKS5Lcic2VJ7me5NMHXLOGxt0dwxzuSuUdrbp1k612fhDw8x+sI8giY7d57izvsW6S5OMzc3ytzxzfQ60zQZKWyL3bmKe5nk3nV3sTR3YNXCwSfjoMDrtj0YqPz2h7UNw5WqcoXS+5Yfwvg8oAQslr0CSqRyQspWKFeiZn7Gm/pIVujCaMrI9jbN+yaZfmSKHQ9uZuPOMUY2tpHtJSSjXHy9z/HnT9F9YR5Jgx/7eMov/NZpVq6+zYvPjvDDF2Z4+80Z5g61OX9hBsks0LYuUBRaue7Q1N8l8aqsaWtNIh4CFg6sVLp2/OWrPmUNQwuGWCshGXyAdY1mSMY9q6yVAXqZn5f6/KASBZaqTgUi+2SBBgWkTK1GTsK79Ca7tD40yvTecWZ+fIbNf2eG8V0JJD0EfUiWSUQPrrbo/egS8oenmMg7fXlhnIX5lG07T/Oz/7DN53+uw1v7T/PcNzq88tIm3jpyC+dPb2WlM4NkvOiWLLpmu0MFOBsk0upYWaTpe43lXMntXGnU4bsqc+XnrgTD8Fk7bhOqW7VvhxxsYCdWHsN1DvngSrPMNhZzS+qQZJaeqZEimZhuM/XhjfQ/Ajs+t5GbfnwT/clFaHdBdqDX5sqVRfqyw8zGCS4cucSb33gb5pbZkNP3l3+4iRP/9i7ueWCSm24+yMaZ19h52wi/9uu3c/zYeZ597ihvvnIbc2/cw+sHp7l8eRRBu3DHegeEO4hubMvsSvO2T1iqulTflArlVj1mcjmt4eCtrUZ0++7ySi9gQnZ5eBnglo49dMoVTN+6gX2/8iDdx7ssiCNc6B2nnY7SZhIuJbz7xmWOnznNxg+PMD25mdMvnuD4nx/inv4IgiYSOH5qnG/971tp/HGHibEFdty8wkcevsrHPnWeO/dIvvSPNtDsC15/aZ6v/ckVnv3mLMeOqI4JRd4JfHddou0yBxPVBzZt0KIAa4Oq6qZ5tRbDDHjYhQpjHFVQKPs+XNzKlQpgmazEDAnqAOmlq13eeO0tFqcukmxaYvP2MSamRugc73D2zy9w6JtH6d0uuPuRB+ieTRh9HW69OkabVr6nIUHQoM8kUt7BwuJ25g5/incOn+Tr//dVHvrERb748y0+8vBx9n38LLfduYMN45P89//cptPL4l+JwZdMgpyJdICXSWqAYtCu1CtSiZ73potxwaz0S42cVZzKPV+PYw0Kitjt9dVKGFhWEEfvRDBvJKvZeOboPHN/dIyJy9Ps+YW7uOXWCa5cOMfhP3mbY//xLL2JLrc/fjtTo1Ocee48898+wTQT+R6tjrFxJqVBkwajZBH93Sxe2s6zX5vn+MGTfO6Lb/PpL5xjzwOH+finxtj/nW289MoK/XyFaqoeDj1orZUzl8b5QcS2gmaHaRul2tbf7AVCaADD5NqUkJ5+vmoXXt62qFNJhdQMkIYX45KE9nibHfdt466fuYON97e5cHKO/X/6Kif/xzztk9NMf34rt3xsJ3QECweucPGNC9zEBLK4Q6gvRm9LU0PeQLKFY3NTPP1fG7zxcotf+Rc9HvjICD//yxPMX2hx5J2rBtl0NQbfemRpLtBWI3bvaJDpWkOb+qraHEYnNzASX7GKQB7lFNfCZsWBJbL/zDVXag1fykpziZkHJrnrH+9kak/CmQMnOPinx5j76hVaRydobBK0H2gzvWOGpQM9ll9cZiSdYIVW0UyKpEG/2MrcpEuTXr6tWW+B7nV38LfPj/IH/+kSY/9ymY997lUWVnbxv/5gibcOSgTjxo1k1WUumFxLhpF3UNH9YN4L1O3YbQ3bSnX7If5kfxLOt5CTjbUReqdGHSmxWGoxnyCF2misbgdLUvosbVli00+OsOGxPmdfOs0P/t1R5r+xzEZ20uEKjTu7bHtkI63eCGde7PDO96/SYIo0d4LLdFgipcUSbRZo0WGELq38PmE2QD2gj6BB2p3luWc2MHvT2/zzf/1DfuqXj9FLt/PUv29y8UKbzOYpa+He+yubicOQd9vaqfulmu1pDqb4VSw8MawWYR7mn40Byl4TCvckQ2IKiD4JbdJTdSQFTc7YUcrknZPsfuQm5t+5wCt/NMfxvz7PCKO5DRKMbJhkw7bNyKstFk4JLlxNWWCcBcZZZJJLTLJIgxEWmGCeMS7SZpEWK7To0KKb/+3QoJfX2uSN/aO89D3ByOhpHnj4JA9+NCURSzkL7CMKC6gfzki8KzFjYWKIQ/WQDtbi9JgWc1Ghqb57uPvTY4dZZzkcpaOjPcJ6pO30xNFxGAlbrEJXe12jo0Ow1OgydVuDnXdv4vWvHeXgnxxjZmEXrTxCntKkPT7F1NRWOuckiyd6dGnTpElKg5Q2fRKWaTPCMhNcLfZba7ItIH+gIjuyfRWHX+vxjf/TZdc9S9x2z3k++dgG3nilxZnTZvBWd5uwrkZdoLpJPuwSPvsrjf/NW9vCyGGmxAcrvFYMrVhDLK681tBnzTLtBcdq4KTFtlhSgHSS8kM/4pDZhZXxlJUtmXUQ8wmjV6ZoM05KQpeEPm0WTzWY/x6c+VaH0wcukzLFCpMsMsFlJplnC1eZym87LzLCIiMs5RZKHT0adEnoFp9Ff4b9z2/l+98QNJqXeeCRM3zk4Q6Ci8Ay0EG70LQ4/Fnupg16qBmubbl/zrSM7mZG9whN45jlMv/Z1tM9cz3EsFimEpo9qKeYNXnP9oemE03kxhbdxZTlcynN7gR9BF0gJaHHOO++0uVvfmeOJm1OHV0kYQMdWqRAF8EibRaYYYQuY1ymRwNokq0G9Qox9eZ7i4tntnHwB4uc/bvnuGX3RT687wLf/to4SytZbMt+iCJEZ4d9Uoaib+wVWCgCH7KG5a6rXNzrcFfqcQsWslYqPbR6rPSyFVL50JhJgxVTSUlojzeY2txiaWGF+XcX6NHMt+llazvBKGJlivmjkjNHu6RM0WGEZRKWSFiixQrNYu/VKIu0C27VoZkfCb1ixZhxpx4JPQTjHDrQ4+XnzzPSStl9R5/du8eCFsG+Ua32dJlr3WGOkAWLWR4zPd7Tda2kyu/eZPfrykRYaWHLqlbfBUeUDPJKC0/q7ccSIg9EZpwkRTC9eYKbd42zeHmZS+c6SKbp55ZGPXwhadCjlT+eKnJLlj0m2iGhQxNJkgNrmQSZ7+Vq5LRbU3C17zTr0D4pkrPHBHMHodvt8KE9gr0/Ns0br1929E8NLmXzH/2ImXW1NcWO+OjB0yuteI0xS1mlgTrvt+uXNFek5qrYZlRZit6RVaxtBf47VwaQZnVvZrX3UVuSswcpxje22bJ9gu6VJTorDWAEWQBCIGmS5hEpFZWSls1p0acFNGjRY5QVBIIekl5B8NWDrQ0EiTdcoreFc8ff5eSxc+zYfpmbblnMnfEI5iY9/cBZmAgPLmqI/AE1ByhOp/3BVWWrwR27hpBDi6XFtFK3t7L3a6zGZBkWS1knMqgK9VVCKvIH4jWwev0ene4yUgq6Uhn7Ru4kGrl1SnLXqByIDoP2aaF2STSQtEhJ6aGoZx/y/V/aXKt5lz1mJoAx3jksefPgeXbuWqDZOpPXuBlN1jW1NS2T+UhIzA7ERJWXqn+scrJI92vRV1E2wK49CWtQVU7nLb8a3Q9Ke6ksVrTOagnsIDXUVG+FAXokNIvtMoIzJy9y+NVL7H1gN1PbxrhElwbjhSvs5+DqF9ZKgapRuDrt4mQBx8zJ9fJWs1eKmBuTQdDIAScZ4eK7Lc6dBNFYRjTeJWEM2Az57jGKhYDJOVQXDvtCQ3sjszDS1feQxYptDPTrCZ+Pi7agg9ZgP/7rkIJVLCgjN6El+QusCmCZjzBIJFfO9zh/pMfs4zPcdm/KXHKKVpqtGk1AuVxJp5lBAMWFsly2I1ELaFBP/5HHtFIE/e44veUphJAkzSskIiF701EPvRDXD2TaPKNf1G93vTQ+he1OTGytw2d9K2e3aperZzPKc5UByz2/iqWgIRHybvATkZlGtSZT3SIuj7H8Zo9L8x023zvCzP0tLry8zIicQK0cTXBpK9Wwbtioy9M3kPrGBdvrqiyQoN1aP4+upSTItEUiezREh1QqUKmSynUqiDovkEO5thhk3KEOrbp0jbHy9uos7HhDTq7acAwHhvWMcJU8Ym9v/M84jyLRML6yiaUfLnLgu2d56Oe2sPvvNzn2+gWmlsageLBLu0Rtsew3bMliSBX7IoeWSdWzLshsmX50Ajq0Rq/QGL9KKkH0x0nSLF3QKrQ3I2H6+syXBJBfr2lvzJbde/7VLCg+aOXMZbgVahX46q5OV8OqbAmQDHOdqd/rooHQQOYPx1853uXsy5J2axM37x1l894WfdEp3FzfAEHfOJR7lPkAm6s3++5k37B9/n0/6DE5Jdkw0wCZQDqKyJmgjkTbTldbMX1vz9xxpmNdZnkzXlTOo0Tw0GWFU2+sTl23XOdDiXT+rk5K2WvBUaQa8gYqKt5HkHRGGT25HXF6Kzvu2czdn9/KythSQdYlZmjTjODrtzHoV4qoFH3zOIOxovz9PICRFtEyQYcdO8e5466t0B9F9mYQTFpgcl8IZw4w3nd13aqDzT2zuoy5/Tl2aDEJuz+g4UCrjNQVk7rgqVPOlPoauFJjWWS6BwWWBiktEsZZeBNOfXeZyakZtj/UYHJPyoroWgTddX/ZJSlQmfutzdbs3QiNPALWKJxrh0Zjnlvv6LD7zk1cPDvC+VMTCKadlu3Wzd2k5iEDaZmYLyixrVC9g6KusBUqt0xl4B0MfGHRFtpOLd5AvG7AkiClBpUe6ibQ4vjRcxz4zlnE/Cw79k3zoZ9ssTJ+Kn8rg3C6J7H+ug9p+dbDHqCsRJfsHQ9X2LjtFDffeZGRkRZzrzZ57W8XikWAa2H8LYsxa2a/E8IfaNNlxg9z64wGYtzF+UuHwcE1KOhsl6za1F5kNdD1gVVYQxsI2rWZLAF6XTj5o6u8881Fpsc2cvdnNrLrUy16zavOHbIsgg7mbR/T+NoD4rekQqMdUlZotpe476OCBx8ZY+Fyh0OvpBw/0iu6oYHaUVBlYSjqDgEmDDCsc2EeZoMLRwf7rc1lLrAeTyoHV5mu6yMOsMrQGVKtScIopw4t8+wfHubswWXu2Hcrn/2n9zC7t1FEyDMLoobZHG7A6mgTSD5XKRyWWGTXPUt8+men2HXHBt56OeXFb11mecHmaqYr9R9u9a1W4lxlHGD1LYRdH4Gyse0vdno9gJVbz2sJrgFDz+YcaAAtBCM0mODUa31e+uPzLL/b4ZaH+tz3pY00JtIcXC10dNd+YEIDSVsLZSN9iEsEDbbvknzuF3s8+JkeCxea7P/mJg6/3M4fJQu5QA0o98lpeyXqcrGwBVN2uLj9UQlC/d0Ob7iDrK8TL61Mqi3atZaKrckSpIKBvq0S6vql+SZzf9HlyF9cZHQcbv+JBg9+aZatd28kbbfzGywSFcP3FdEvRfItRoqkC3SY2dLk0S9t4pM/26BPn5e+3eCl77RJexs8i2Nr6gMNx2q53CqsC17d1a7TB5ibtnpwrYcMD86Se4VmxVmaPX+Vgc5IesII80dW+MEfXGBs2yg7P7aZx//VBo58f4QD30yZ+8Elzh29gr6NojbkZfbJfmeV/cbklC7TG0fZ/eGN7PtEi49+aZ729BX2P9vmL7/S5MhB/Z5Btc5U2gvsbtFtZGdNuyiMMro3Qq/5weiB6h4EZZW1NnZdbm47LXR2MKkqqUZVYI/58BbPj7wLUC+CKGaLyMILpjPJmjXfxJ4gmOLo33b4+u++y0d/pc/uR+f48E/v4raHbuH1v9rAG98Z48xbPd5+6yz93JVmZF5Hx4u3/wnJ9OQY23bNMLO9yc13Jfz4Z8bZ8cAZLi4f5ftfvcIz/3OKV1/YhJAT1vDbjtbma0p3944+Tn73m/0guqrLbSXEsUwoiSLVBLfZgg08G/R1JL4PPg4Q01xY6/VsGIaS+GuM1F4ckb3MMWU0d2d6AHXHKEfSRPa3cOLlZZ75D+e465Bk687DbNn1Lnc+vpt7P7uZwz88z49eWObCu31OHF6htzjKxNQk0zeNMLaxSWscaPZJkhU2bR3jnvs2s/POzSSTlzlz8TWe/95p3nox4cW/nOLYmxsQTOe7HZRN0G9y9ueb1jf75L97Rc/d0MPnOjU2fH5vSqcVEyy+oxPG/651SwJXE2vVh7s9hWy9Fd0Q1gibvmlQfMV3N+QVZ3tzFKYT1Etr1Vl70ay2okxw+dAEf3Ooi2xfZcvdS9z12Lvc9rF5bn1UcPc/GOHM8YscfPE83QstNm1ZYsvto8xsazGxoUGzkW0cXFpc4eyJ/bx86C3mj44z92qHA389wvw7Mwg20Mq3NqdFp5izP0G5ab01J2QBXOdnvx/GnfPxNXNMtHXXreia3HKm1fVr8oc3DMzQmTrpqrT7OoDBpfQmtK1KaHHqLrL18ri4s7cyzalX+px84wI3/9U49z2+lXsfn2L23ik+/fe2QtpD9BrQG6O7JJg/3OHU4S6XTo9y+fw4cweXmftRl4vHLyF7k6RsQ9DO27Lf4WzCJ9tArbYy23PX51FhANnvetaLGDe/3U9+T4aHP+Sm3EexVGp4gGPcywer61j9sV1rCb/n3ZmaUmgDKZ2Ld/8qa2E+FAUj9JebHH9FMj+3wImXN/OhT04yOnOVjligs9yid3kDy5canH57mbdevsi5Y0uQgmQEmEQU3C4LKqhNf7bpVrpo2q/fjioIcyLT6dlMTYU9fHB5PYYLIdc62YOqLHsYXINIaIKUWVWlq+kUh7dLcal8KYh+JFMbc4nJs/x5IFFk3lxJZtvrFy43eOXrC7z27cu0xpZYSLosdlt0FlZAZm+bSdhoDJZ5w5oiVa3nyldXmQYaaCa4TGJv8g+T1GvLZdLqanfovpzD1dJvz9U7XPNglqtM7Aml61krkEXIu1CLguyvVO9pz5q3X5SorJOyCsI6p9dgDWMYE9IOLHVG6DFFQps2ajEQCq1pxqPXZrZTU0Ol49T2IGmt9OuYVBmtl2tf7Br1dYUk5FSqmJcPZ2XLzAGuti1hF1olet9+WLfVSJS8C4TR8f5MsvmWCkNkBD/N7YQsBiYpIlXZwGTvmJGMk/32V5r/kIqCjR56sx0zou46Xxtq+n9ba/3dZjVh26XB5j+M6q7vYuu10BY8H6KmTTVrt1d3MT5o1zCYuE5aOIfZxiBS/X4sqS9Kk3h7Rmef3DtQttdPcrCRA0s/HKFAZN4utgdfg1ulqsi3PRymTqbdCg2Z8IZCWufDttC2ZTbow3TeZVi6LXMpgHN9PukP16N605wWw4tV2p67A8sAv0xh4lgWw6sskrTOY/0N+XPtApT7067UvpligsQm65q+24QbTGBI56weIn0ldsBSWudiHMyEnXvNrtg0IpzL7SPTFpkpfmnzboNZX/xbqHXHIq6SbA0BrOyzXmX5v82lcofeYwe2zrqkyyvCFkCfdfmB6yhc9uBaMtc6uKzHJriuk9RpeOmmHvZ1aa7o5y7ncPYkCVuuGLjipGD9ZOAfacr+2mxHOyj7iIlPNE0LYpJqBc/Qj9dlDjYMqOy7dAbRjM3rnz0JW4C0uFLfrrn9UQUw/3rDUo/TDAoSdzSuDbiGAFbZphAzr3u/3u5edXn6bVbasem2TFAJr6y6DxAXf0hNgNgk324/tAAI25qYdjHrVhc44avxXWY4l67LzetO6biVXI2UAksSek+KSdLVMNmDYw+U+VCqeQEh9+kCLxQAsIlttiRI8Imry1dE4Mhcud+tNrGP20T1v038fRfs129LPVtl1yyRXmvmdVZHqWzN11YqLVYqoC9MYuu7D9P9mfNep0tjDWfvQFL5XFFd4xN/RfZ1PhWk8K2K+S002GrquBDRA60BrkMgYYCpfL5VdnUJLWZcHXw7o0mCOxHC90Lc8mExOWeVLRxEosAqoldCWN/LeZSZR+84MG2MX9a0eLoeinKy5LzKpeArjRLmBEissqbVs22NLuMS+hg19gMa4Yi2zR9Dol1viPnJYPumu5YkxmetnwnVkMtz95uFR3ZQiVusYmxFfq8wUyIEDptf6G5xXaK08rjwcVPMgVMlbTi4czxMsXG+mTD1HYEOf7grQr9lc9hsa+IPoAZ/2ILq/+N8J3Yzut55f7QgdEXrDayAWjagXLCFwaNdn6LLriv0aa/brrZapjtyo04prmUL02jfmripevqEXJu/5LeBHKPCZjwqvothmCE1Ay+xPvSnsj4bc96rkYFWhQQA4c8ylyCHxbdQMVNtlvB3H5RxB7cbQ8FQfd6fuxi5TQ18CyON/83riunm2lMRPFcNMrcHfEdaTyMlxiN3AvXCoaFkoACpHRW3XV3oouqJqsm/+WzWXFdDVaNZh/1Nw8ueq/qcyZbccmZe3VYIXNU6+rqFdfdtp1/OB1jsXLgG5QLV2zlEki3c5JBGbGBXSAEsff8sO+93TEwGAUy9rglZOzea70bdXUulUiTqvaV+DaGBN8EYCpy4OvqTz9cc73z4+sO8yTynmJ2dz59QMV2GlSFcoU2nbbeo1SqngO6FxjvGtxshrbL85vrRtxyhktrdSQ8UpgUybZVv5+zaTZjZ+tlnY7qVkfeQuOyuyh3Ge9B2/6uTAV0hhaXy2cBg6uiOt4l+qPtCgDK7zw/a0+IAABBGSURBVNXDLavPuizKHVDf4rhOLwSuGMfyr0RPR6z8fpnBuI1vM21OWjXFVUn12x+rIFe5DHxLR3qf3e0ncVOvbV12IfYPlLjuw7SEvriDZoOsjNKHCbIPULOU6zTdbTlmy3Wmlwupsm91xLVONpjit67t87o9ozeHfP5rQFeoGh1OfMujbgyVudCy9nyHo4Ee2p6o21DpavMyuC7RBGk2j7Ob0zHCH7c2pnW2o2MhxhbW2bWvvgjA3htra6lqj9EOc/pfU1cYEhE5wL0A0y7ZLMQmtdqmqO9lYQX9Ym6bI/ng0jqEww2u5QrxNvLW7K7391i5bfoMxoVU2bc6IoOfbYcdB/F6yCqBpSQEqjgc6kuI6dhxc7fDzK0x5j1LYeQ3b/mklUNn27cQl3R3ltq/X2a6ITXUatXptyOs3G47dcTOtZ7gKZM1ApYrw5jSuBPwa7ZNt//Z/GuXVfB0H78KcSyfW/mauNyqyqFpix0Kp9r02z5XJiHG6W57NsVlhq6sHo419rxDlZuzZRBrFWMlJs22O8h2XmXhxhCfcLlEOChhMyGth9myr6V5Pa6FCjFBF07+N3u6lN0JdK/Vd4Hm7ghT7H7OqInIHuhclUR/CFMAiTRpa5Mwyl1whGPE5jYZXc5lH+H6FCE3GZnLKsothb9kMAdeOGXsQYhvk4kPp67FjPO5N7/jQAxP3PKAjs/9dH3mkig0mdMiJSMHPeIby+tJ8FWRJpsQJAhp/tity6OsosWbHex98BiHX66e2HReGFrqgRPOeVc7rXmVhPOYA+TW65/zNQzVVzfd7MV4GTd0IL0UW0Q+aqYUP/SubhgOIRWuMPstG79rQl2lQKT3YYV2NWD8dWsrt771AWnWpeenSbyl8b+fS89+f+uMjsW5P0AQjvqboVZbp9iuAnsxYp819Q7xN51PWvn0lDbtbBZqUe8iU7+QZrzIcxXucM1WhaFtMOpc+Fh/sY2+CQDzvM/S7KENgUv/L5yyLpn3JbyLIqa1C61wHeF29JWqFx2YgNc1a6DHFx2DyjqtCq+dlA1PmFW4HWyecdmTzfOyTzabC+sUqo/is2/P/OVAlupbL/9sjI+p1qp+2dUtV7WdsJ6874FVLWrmlgMiBtA6El4VhsAVAlh8W7aG83BkP2Q37S3b9hn3/TerkWF/sO99K4rlqc91y/jiAyVM7FfHHKvOld9kVtxKc6ph2hlGqn8TWq6FYbyWEuIJ2o35QRHXVrn7tsyycXtnE3m7Hls7P0jhLh381WWobdtp6trMa/K1iWm/1qNc+VyhlBL5ngaXDAxhzHWYZ0Orstg60eRXobWdXiWGlwquZbPrdTV1eZdbT4yR2S2szh6rU2JIUxZ1hULkN0sl1DHp11fCuoWZhJtuL8zN83Zeuw/MdXBIBzt65+Yx73jaZdwwckg0kMpdYJWEon1F/WJ17nGdOda1CSvU0yAMIBdowgFC+UCb5yXhaHVskMPgCrfp1xHTyZ8MsXzV7G01sm7Ais2Gayc2kEJpZYApr7PMGoTajdVt3pfAS68Gl6mP7SDLWFNoZOJ3LIaTdQ43uPwiLCFnEcpVb87Wa63MDtla+3vhYzlD331Sr+oIEfUQqY/td3XT7DrCOl+76b7GwArPhDo7EsNOocoy6M/hmFCspGuv7D3r2R1S/1XcMT1FAIY+fdet6hi3BkE46h3ajGPnq5665sJjMFkNqw4CK2zsRclfAU54zV25VCmpOsi/fN2ddperVxxlpavpqkl5qwCotwK69kSl1QOwG8KwdQml+HXbzxTEwOW2l/1vfg85fxt0um4JcnUblEteCkLxJKwaDNt7ayjoX16VmHMoxnJcMSEaeqe633ES4WwSDg+06/b0k0Z1rFtor2hc+5jE9mqFBjrO/GLO0y3tO0Y3HGxa1+yzfgOZwdcybA0tkR9p0ipk4LJ3KWjl9HaaMAWldCBDZWKsxQaXujGht6eF+Ic78835GXoEwnSHfn2m9fF5mj2ddE5fF3vyhdtw0/W58K7WKnC77bmOWL0hUdcrASnToWOYkddxhzOb6phbYUIzW58vn2GUnB9cQjwl1rYd+lTlXXCFwSaDw6tqchcZNvTDe1Ftaxqq0c7rLwriE6K8N1Td4VDusGMzJHl3XWI1hSyrKTSH60vIsoSJrf+IrS4fApPrZP1ouW+jwrqVnbGvwW4hNFFsy6XSYjX4bdni2tT3dLghhvTY6sddgQ3emtkCYBD70O51E1JV4HLLuC2qmjXEQuCwSbbfnvnNh7MrogJc7pRyW4/J2nmO67a7YTVG1pcw5Y1bi/BgVXV9eCujcA7TudpAqnO9Ot+gdqNa/2sr13w/lk9y16s7bCvj6+HyJ1+n2A6IEDeM0+8YGwvbFZ8TuTsbqlrSCxxbqpju2soHfKOf+474UCdqhhcDTF1whUm1nS6dlmLgsrV1ay1bRdYBoStrD64PDLBCIQDyFLUy84dLGiWxzrqkv56DKt/CY7pGd8Ef5l2hlFg+V39zMoVWluGSa+VS1x1Y5VZgraXcvcYBUu42VYmQfSCQXlWPbrW63bCUu3EfwOr8tXOH121r8uouRRLrqGqibpcN38kM1R26EWQ7Np2vmrzH2h1kL2eZ3v6CYn2mckyuoSv0rcnqLFesvljsp4ykY5R06XYoJOAGB/T5cM1mm7a29vdwG2W8ybdcfivhpcP6ynXnWKt3i/Egou+sYi/CMPPrWFQMXDpnjNqbNDsOLp/ql4GmLrhi135txXaF67DyLDPCcYdm56lOt2upIqC2izLL+Le04zelzHTtEn2iXf5SAe2yyt1v3Xy+btdHtMWqANUwqprAsQfMH1rz3mJ1+/GhcmuuWj35WumVYmwVVyaxp3nK7EdIFzNFu1V/renWE1qNDiIS44noYd/FjQJWtLwEkSJFWsy9UKRGeoeeW3719oALI8XOLZy0OrC24WCHIPz6y+6LDb9iI1Kvdq6xx62qnJd+rZxbv+5v2zmbfVlWM8Z5cxvi8DtOm7H2CuSKFL37UXWOVth2BtrylKleT1zo1snvtxvmPiKYZ5DWBhOT42lwuIwrLK51NkfCLWuCK7QPK7SAMPVTwFK7VjB+JH6wXrnu5F1LFTOKlyo3/3Eiv/ZSVre/fdrXPfTyJbtOVcZ11VpC1qmMyKwPyX8PAWv95Nquj8rBpc9pILkTw4WXtrah4ELY9etrvj4k/gMBrDpWSxhp13e9ZEbNqyxN6Ba2Xdq3c76Fc89cC/lAAKuu1F0CrLaNeqtIFypmfh9w9pIpNE3stLBjDUPVbXEt5AMArJBLicu1c4vlXM4lxGH9fdcYot/1rju2vvMXPWvBPj8AwBpcHv6l+7jn0TuQwGvPzPH80/uHrKl8lVk14PXAVS1xp1oVMjGjiMom5hEAGcpXXz5QwIrHxHTa5578BPc+ejuK6n78ib3c++juVQIsrEvIJVbHqoYZxrLdDnXa8YNGCJm93HZI2/7/2YvXZA4qW6ZnJ/j4E3v5J0/9DDv2zdaurZ7LKFvqm25O5yuvN1ZfeboIHm6+tZMPMLD8jp6enXDO453/hS8/yuNPftzJO1g7SmKRuToRO5tVubH0cJvufUQ37i4GOFYrHyhX6MtwwdA9j+5mx75ZXn1mjr9++sCqNIi5PjNdc61wqEBaOf20snbdz7b4/WMBTA4PsjUE1npEsutIODIdO19XpmcnePiJvex59HYOPHOE555+NZivHgtxN9hUBULN2vEovhuNk5V53Xp9/ezPMpA+mAzoCu3fObDPVD8cVb6BZO1kLVuZnh3nkSf28qtP/TS37tu6Cn3Cd1B175SDwHWBdq+6LrDqGXSVz3z1ieZiVbywjgwALHd2uR7f/e2YMKjcR+9XfwnrIy4INsyO84tf/iw/+eRHB+Bffp0xwNfnXW7PmXtJ3J503WucTZlOtXC3q5idzeDVBEdaL6ClAxZbnWrj+14EUkhsN5dd195Hd3PrvllefeZtnhuCf6neSfGBVGcfgYo2+enmmWrelYl+qUoM2MOO1RCrQtvipOgXgyjD6kPMLH392NgwEpomGf/aw68+9UU+8Ut7h647NGh19j+FAALVRMO3dX69azU+tYGlPbB6bZHIf0zDntOucuW84v0hMT0VwH7tqS8O7B7L3WJ178TLDrdNea3HYiCLlb1grRFVvQ5nWhtO9d5iZtOz4zzxO5/mE7+0Z9V1uay0Tt5M3NVc6DG0aye1gaVWLi63CoEqBrJ6pjh8Nt5B8ZWo8Lp2+C52l/iuTM9O8MgTe/i1p35q1QAze7eOxj5XC6ddSxnAFZpDHr8xoPP73/00H3rumtFc7bgQCQUytDbuIn71c7cOPE2A3Rq5PVR3BVjXcoV18h9NKVuRrrUEf2HV/CLypvuk9IsU/erIUDfVA5X6a4JGfTZhm+ZsLs1bTIv0pDhk8dJK/Vk6kHI72rZn5Ytxs1QsqGJPt+nZcX7xyz/BF558iA2z49Y5Suq326qXL6SRa6/VkRiH0tv8rkdhdWJH3gM1ClKElPSRCPq4O5+qiGadMF32K5+NgAq2A/KX0nF7Zeun5o/Sxr6GmN4xfbPSVVeVyd5Hd7Fz35Y8en8g56iJlc+lC74u+iGMcKtxqyyIO1QFQVlcFZnxSNLsdo5c7VM6UZGMT41x3+cfYGZyMw2ZrwiFOqvUi4iopthSmjYgUIHVhM8cos8iSqWdBlZ7YoSbPrRZZxm4z8oLxK71prs28aFP3soXfv1hzhy5yLEfnQ2WK5uEsUfGqnQswqNR1W3630shZYE7HtzBt94Y/ge6SoF18sQJvvndbzE5OUm6V2oEVwyItPWN56s0HLl1ceoSta7VjDjnIGu3kdNd4+y1pbTtKcHObTPc9JEx3jz0JpcuXbI0LPulrcIWyTCfyhKDZ/LyscptfzCS9hApvHz4OV4/9DrdXm8o12hbSqeGDRs2sH37dpKGIO2nmUEW9YxjpQusYc202/KVDulr5VFWtcgj2bRpE7/5m7/lVBIpfw2iGc+/8AJf/bM/Y35+3rKeZU2LqgzBAiWdrSqUyv73EUj6qeDs2fNcuHiBfjr4G2KjD6wCXLp0qZhVni4xHXOpHWka1mgMMfCzs7NcvXp1yAbXXvbs2cPWrVt55plnePrpp6P5IvO+nkQsmRZpG/dAQ9WM1JehNvrVCYjWWWFFKxskOFYm19bTDSWzs7M88cQTPPXUU+zbt2/tGyj6TMQPN/8ayBrsIHUjLu6S1/9XE3KrVqvOrZH3iszOzvLkk08yO+vHvgaZS3EpmaVmNxnDIsRw1goGBVZknMyIvAkuP5AaP0Jxcr/hAQ4p3nc/Zz07O8tjn3us9tSrPWWy2EHkyAEUOFYj8VVhWcWWL7YfMjLDBmV80Q1VhhbTfsowV2tq9963XmdOn7nmbUYn4Com5nBbk70GZfnpWtWVlXqfmZ5VyP79+2tfbe1euQ7dFwdWeKVfQ+oFEQYvVT/X+pVfPzl79iy///u/z9mzZ6szvw+k3GINAK737pC99+UrX/lKabjh/SjVrnBoy3VDqmT//v38xm/8xvVWY13k/wHMv2+quwmZoAAAAABJRU5ErkJggg==;movable=0;resizable=0;rotatable=0;deletable=0;editable=0;connectable=0;" vertex="1" parent="1">
                    <mxGeometry x="362.0044384765625" y="10.003312988281237" width="150" height="150" as="geometry"/>
                </mxCell>
                <mxCell id="6" value="" style="shape=image;verticalLabelPosition=bottom;labelBackgroundColor=default;verticalAlign=top;aspect=fixed;imageAspect=0;image=data:image/png,iVBORw0KGgoAAAANSUhEUgAAAJ4AAACdCAYAAABFEcHVAAAVFUlEQVR4nO2de3BcV33HP+fcuw+tpJWsZyzJtizHL2xHiePghACehKQUEsIjhUKgvDpMO2X4h7860ykD0/7Rgc5Q/mimaTOFtjSUAgFiICQOgbxwIQ/Hdhy/YiuWrJctrVbSSrt7X6d/3F3tStZzd62r4PPR7MPrc++evfd7f+d3fud3zhWAQqNZZWTQFdBcm2jhaQJBC08TCFp4mkDQwtMEghaeJhC08DSBoIWnCQQtPE0gaOFpAkELTxMIWniaQNDC0wSCFp4mELTwNIGghacJBC08TSBo4WkCwQy6Apq3IqLofWkzJ0oWXktLMzt37iASCiGlgSvmr8BMFdXs6i6GUAKBQgCulHjz2WVV2P9y97tsFKhrZSrKoj9TABKUf4Q95SENAMnpU2e5eLEX17WX2sm8lCy87u5uvvbVr9BUVU3IAUe681agWBQLaHMWUoHwJBKFkCGmI3HS89Qyvy+5AkEvG6Xw1DUivMVQEjCKhOdihgVmxOMbX/8633vkEaanrJJ2XbLw4jU1bGlvxzg/iHP4OBGyILwryq1UeKBQSqCAhNHKych++o3185asuODyNbiGLJ5AIRa8yGTu4R9pKTykmeAdd1YTX1eNNHJXfQmHqmThCQTZ8QkSjz9J5hsP0UAKiTtvHQQraRIVHgqF5AVu5J+QnOLOeUoVXisvkWtDdD4ugisNho8JhMifOQOHkHGUbz7che0oXG+h7ZamZOF5nsK2XAzHooEs9aQRKLx55JV30ZYjPJX7A0mEMA6NeNTMU262+DSlsfixm33GFB6eW4XnGUhhIJAlH/zShSckrhFCSIGBkxPdlQ3UUpZY5UoVl8kbeBOFxMNdYDstvPJZ3BjMPrIOCiO3jcFyXaf5Kb2pFSCkAAEuKieOlXtdIie6/JZy1nuBWGCf+aa7eFvN1SWvs0oc74rG8a4UiZhpZlUuPDK3RMFqiSIx5e2gwFgkxr2U36gt4drFlMLvxUF5J0rMcfPztsrAt4jFzXCxtVJFWxZEmrdkAqOM60tbwsqiKnhETYHfbFZGfOBREJZE4KLIosAMIWNRvKowImQipMDzFML2EBkHNW3h2jYSFw9fhEbuoVkbiKLncjErGSctbvoUYETDyA2NOJviGPURIs1xRFMMUR1FGRLPcWHKxhjL4oxmsMdSqEQK5+I4znAS5S18jWlr9tamoj5e3tHPN59GY5ya+/bD/V2ouIVn2shqDxXz/CE2AYbnIByFZxl4E4LUSZvE05OkD73GyFnf/omch1jwEj2ubKjz9rH02JJmtRCVEV7B0omZTxQCy3aY6h/GetbGNmzCm6qpvSmKilk4RghhKYRt45lp7LiLGzXpm4pzbFszXNrNQCpGZtDLNdki5yUWvsN/5wAuvugkc4WnOxilczVblQpaPIFX1BuVSLKXJkj+z2FSjwpkdxPX/cUORE0zjLsYJxWpN5JMOylkt6S+ex3epGDybJrnn+2nv3eS7Te+j7AZQ/WBxENiIWa8Pt8LVERQM57lfBE/zVrkqqRFyZzwHFyyhofY0Uzb53ex7p5WMulpMgdHsb93mZ6efib3CDZ17aRVxJl4fYLUcxM4CcULp94gGz1L69bbqB7uwbGymDKNGRIYoSzIDI4bIZNtwnZa8KjNfXuJg4eaVcUs/RT5dk3MBE7y1s63O1YuhGJ21hH/zNuou68da3yMxA+HSP3nG8jzSTLdNVz3wB427tuG1WOR+vEwmRfTyPoGUulpBpLnuH3/cR7omCAzPUIkPE4kliUUTYM5gmVHuDS4hRMnNnHu/GYsuxOIFdVEU2lEzucu9+iWLDwhJFKaucrM9vA8FC4enqmI7++g+aPbcJxRkr/oJ/HQadTFDPbGGPUf3MaWA9uIjIeZ/Fk/1qEe1jVtYPe2Tm5LTdLR2cVnHtjI1utHEOEhzEgWIRXKNZCyBilcEiMDPP2bCzz26DFeeekWhi7dgEcLCsnVSiG4lskLrzzU1Wlq/XFbD9nWQNWN7bhhm7HfJxj8YS+Rvgw0V+Peu5ENH+xC2DbjB3uY/t9TyN4EtQ3ruaVhHY037+fseIbf//q39PdOIwwLpUxsuxrHrgdRT6x6nOt3TvKh+yPcuGeIx3/2Io891sQrR5tzP81BC2/tIbhKPp5C4aCI7txA9V17GE/1MXR4BPulEVoxCd3YQvjPdlDTVE3ysV4GHn6ZqnNZajGxLgww8d3H6GjcjLFjK9/+RYrBRDfTU3GsjEcm42HZ9bgY1MYneNcdGT50/yQ37+vhS1/O0Lk5zd//neRsj1cUftHiW2tcFeGZGEhpYDWBarNJnkww+cpl2iyBETUwt8aovb4G68UJpr7fQ+hchgghJC41Y0k2j03hjmZJUEe1+QCn3tyPyzoMLPwciRgKQWbC4sc/7ePlI0f4xKem+fgDl9j/rlPc/6d7ePihei6PQSHEku/5atYCV2WWmcRERqvw6tMoY4TMuXGyR4Z8CXTUY+5uwRpIkfxJD+5zfdQhMLERuMRQ1JKhJjuEfXyI3iMmHvUIDDyieNSg/MR4PEw8OrjQexvf/a/9PPIf25lOX+KO9x7l5n0OAjv3ExU6sLx2yM3kKH3jQu9mdi8ng8NEzMatE5B1iYwK4knfvMr6OqJV65l6aoTxQ28SdUOYFJIMlt9jyqcVhIEOBvv28YP/3slzTym27zjFbbf301iXReAUlddN7lqhZOEpFEr4Q1diTuDWwiVdC7SGsCam8S6mqXb8sQWnb4Tx7x8l+8MLGBemMJA5seW76WomEdS3bPOnCRSPligkLvX0De7ixIktSO8i73z3UW5/5zBhY4yCtdPiWyuULDxXelimg4eX78PiYeQeEqOqimiskcmzaSaPDBH2wEFgD48z8ctjeL/tIe46QBYbN5c65aGQSExCgC/VMPP7Znl5gu/32TiqmZOnN/LasUn27D3K3R84Qut1o8iiUWQtvOBRlNW5UCg8bGHiUYtJdsY6OSjU5QjThzJMhrJMHp0kNhPY9SWQyT3mIokSIowig0VsGcPJMlcbDw+HE6+7HH5BcuO+MW7oHmfvLREu9tu5n6o7F2uFkoVnepKQU8VZtnCee6lBztgfF5fsyBjGzwcwTIvs5Ds4QzMyd+JdFh5VNYkiiZLG4gybSFG/SC1E0TsJuIwlmjh5vIuhi+fp3Jxh164kjx+MkHXr0OJbO5Ru8RSkVYxX2ccj7AaakDNyGqez7WXuOHCcyXSGQ09uZHzqbhS1KDxcTOwFpBfOjfNaCFxMxogvqzr+8J0HtHHyRBcv/76Xez6aYEPHOdrbaunpq8kFlXVsby1QsvAUAs9RJO0wp6nDpB4j58SHmeLW7lE+/bdphhOSc9YUB5+wyToduW2jKJaagS5yiVDLi78VpkUaXLzYwJlTLfyxO0HX9mm2vU3R0+fOlNRThIKnrDieUqCUykXJ8n1SQVV1kvbOPhpbJtm52+azXzS46e0nQPZjIXHwUBhLPORMuueK6oQgnYkyMlLFVMqmuTXD+o6C2Px3eZFqgkJW8sIXOU+rswv2vSOEYZpIY5pbbr3Ml/5qhJu3v0mIVG4mxnJO/srWIIB8cCdOMllHcnSapuYpWltt8pMoKzlvQFM6FR258BOk0nR2TbL3VhOlFI41hfR6efftw3zhs5Ps3jKMZHLeyd8L7XVpoRSmF/lWrZZksprkaIYqI0ksNIkpJV4uYKP9u2DxQ/8VPgemHKS+7jiNDRYeLufOT3H4mRThqM2dHz7Jpz7zJps3jBaNU5Ta7Kk5D38ypcBEESYx5jJ6aZqw8oiHIBYyc9+js/XWArISJyCfCKpQNKxLsrHjPGExDiLL68csvv0twW9/3UR1Y4IP3H+cj9w7QrXpFTV7i80lW2gtAZgbEC6eED4+YZMctTGFoCrqEol6ubRViVhh862pLGWN1c7FP/1ZNnVa7L1FIWUWhAtODcdfaeff/7mZV56tpaVliHvuucB7bhXEI8sZl12+V1ZcZmrKYTzp4DkuobBFVVRp0a0RKpqPZ2AgSdLceoHrt4KLhTIU4SqJjK7n8Iu7cP+xhdGhcfbsy/Dlvz5M14+aeO7FTo6+FmL+qdvFs3SLE+wXLpnHtiRWVqKUwjAdQhHvCtupe7bBIStx6CWSECFCYoS6ulM0tyqyjoGVMenoDLOru5GU1c6hF+7kq1+7m58ebGT7vp/wN1/7HR+9N4uxLAEUfLMrV2iZ+y+BUCaCMEIYINxlxA01q0WZY7XFO1J42ISik9TVjRMKScZHo2SmLTo3N7F3XxsHfzVChkbeHGrg0Z90UVU/xa6N13F5oGqW0++z3AZ4vs98uxYKGYRDhl8z28Ox9dTHtURFhOfhYWETrXVpaJW4xBgYjJIYTHLH3TEamhWQRhLBJcaxY+sZ/gfBlvZWBgdCKGwKqUul+GC+cP30UD+hqqXJobUNXCVJT0dIT+tVWNYKFfXxFIpwNEws3kTWbeXChRD9bxznwN02ptlDSFRjqyp8kcQZvhRh+JJCYFGZPo7K7cVAkGbbtiRv6w6RtZpIJDpIpWJX1FcTHBWcc6FIpao4cWQzj8c7+b9nDCKhBI6TprGpl/a2MGf6BxE04M2sB5VfF6/cXqYvIn96T5p41Rl2bB2gc1MjA70dvNHTTMbV95JZS5iVydPwm8dkYj2/+FE1LzwRJjUluOOumxgfe4Nd3QN8/M/T/ODRNzl7wsRVdSy+3MTKB/H9ieQeBgPccMPrHLhjFFOu48hLUY68rLhKMzk1JWIWr41XDgoTl3Uk0i0k0wKJw6kzNk89OcL7P9LM5/4yTNuGUb7zr1W8fEySzVaxvPSkYgEWUklVUfafnzZvIhB0bk7ysQdS7L89wplTUQ49GeVsT3490vxedDMbNBU0AwYeAjtnewwkr59p5sGHWnEiF7j7fUPc9/6XaK2b4sEHJYd+04XLzIJmXOnnzV4Zavbn/pish4fAxcChSnp0dpp88vMu7//AZTJT8PzTm3j2hXZsVYMOGq8d/HBKWUuAzg2DFIZ+PRSWV8OrxzfxL99KkJ6u5q4/GuLAXScJh9dhhHbw6vEsQ0MZFGEE4QVGUWeLzheqi4dFNAQtDQZbu8Js3TTOzfuHuPuDZ4hGbH73dDu/fHwjw6P1+EuD531Kbe3WAmUs2jN7kH72tMR8CqdCqA5OvBbjwW+eoa9P8uE/6eXmd57gK61tPPlEPc89V8XJ1yTDw1lsDARhrvTx8vNiXSRpGhoybN5hsHOLwa6uLHv3jbFjVx+hqqMMDV/k8V+18PMfbeX5wy24VFNaiEYzHytPVJufZTa1C/tiYsYKFYbz1cyf38/0VANne7bznX9z6e0J8+nPDnHL27/HF764mwN3beWZJ5p5/bVaLvQq3uzJks0KUP5NXAwTamslza0mLdc51NVdYvPmfm474LB7l0N99SCOfYHE6AXOHpnm5wc7OPjYVkYTu7FowyOMyKWUalu3NHOP0VxnR1AZ8S1DeIvtPm/t8tl1ksKNA+RMMNe3V3WMJvdw8MdNDPf3ce99Q7Q0J+nofJmPfaIDk42cfj3Jq68mSKf9hbmVpzBDgsamCBs3V7OxK8S6hjTKTdF/sZ9nnppgKlXDdHoj53vi/O6wxemTt5C29uMSQWFQWC5SsxQLZSrms0ny7ZDIFS5n9kpZ0xsLa5IUN7t+VQuxOb+MbxerSbtbeebwTp4/PEVrwyX27p3k5pvG6Nr8Cp3Xj/LJz5lEY2GklP76K7ZHImFxacjj7OlaLl9az/BgJ8df3c6Rlxwuj8WxieMSw8ulzDPTzSl0RDQVpAJX8ioEt/LXix809ptgF48aBhK1DD1l8aunL9OwLk53dzV7uq+jJh6dEV4mY9Hfn6D3Qoq+XsngUIzUVAyoQ2HgFPWNyfVy/W/Ni1+Lbq2hKKtzsVyK09Jnf7lvC8O4XjtTo+30PQ0/e3ru9lUI2ooSpAr+pC/igmdJ0b+0pVvbVGjkojTUnNeFEVe8V3P+R8x4IXPLa9YiFWtqV3KqVyqLxctfKUrN2qdC97lYuS+lJXJtU3bKRvmZJZprkbKFp8OymlKQOuCgCYKKTPbRaFZCRefVajQroWJNrbacmpWQs3gCRLny056iZvn4witTM5WZsKO5ltA+niYQCsLTcRXNKpFPVtNoVh0pECh/MWNAIMruZGg0izM7jqdmnjSaq85sH087eZpV4EofT+tOswroITNNYMwSntAunmaVkErkAng50alKrOCj0SyBqRAzs3K16DSrhYT8MmV66EKzOihAzrZyWnya1cFcOmg8a8UM8uV1o6wpldzi28uV0JVTv/VEH02p6DieJhC08DSBoIWnCQQtPE0gaOFpAkELTxMIWniaQNDC0wSCFp4mELTwNIGghacJBC08TSBo4WkCQQtPEwhaeJpA0MLTBIIWniYQtPA0gSD16lCaIJB6Lq0mCHRTqwkELTxNIGjhaQJBC0+z6ujFtzWBoYWnCQSpo3iaINAWTxMIy7hf7cJLl+n7l107qNwSTQqJEgIhZFn3RDFL3VBL7g+P2QvRzf0svzydxEMgcjecnW+b5aCbWk0gaOFpAkELTxMIWniaQNDC0wTCMoSn0EttayqNtniaQNDC0wSCFp4mELTwNIGghacJhJLHajV/eORjF2LO69WgIhZPzOQuaN7qCFbnVooVbGq18N7qrGbGUcWEp9OkNCtBdy40gaCFpwkELTxNIJQdTsknQCsk891MeXbJ1UR3dpZmqXMyXxJ8ZShDeAKQKAQCCUjEAifbz29Z+fzxQjxp5SLSOTVLs3TYpHAU8+UkIjfTorwjXLLwFAJPAcrFwMYls+CPkDPPpbTsXkkxQln0rFkMb5Gj64urOLYXNhRSCZRyQHglf+syhafmvPoWrDoe5j3vbaK2LoQnVM7yzcW/QoQySqyiLPEHCqQO8iyJh2R5lsu3cyG5gT03VnHijIUUqmS7twKLN3v3gwMXef65J6mqjnL9HgchJVLNd6Jz14oqMR6uFELoRjNoFAqUgcDl1HmL02fOYDtOyftbrDewKHV1cdra20AoPOEiZQi/7Z3vK/KvKxSeAvDQq5auFSRCgRCK4eFhkmNjeF5pg6UlC29m66VGlGftvTSLp1mDqPLEU7nslMVqoJZTSPNWo5yzWbJoZ5YuWI4R03r7w6LUdSuKKN/iaVFde1TgnJfn42k0JaIjrJpA0MLTBML/A5hx8tbXdO1RAAAAAElFTkSuQmCC;movable=0;resizable=0;rotatable=0;deletable=0;editable=0;connectable=0;" vertex="1" parent="1">
                    <mxGeometry x="-45.99933593749995" y="292" width="158" height="157" as="geometry"/>
                </mxCell>
                <mxCell id="7" value="" style="shape=image;verticalLabelPosition=bottom;labelBackgroundColor=default;verticalAlign=top;aspect=fixed;imageAspect=0;image=data:image/png,iVBORw0KGgoAAAANSUhEUgAAAJAAAACZCAYAAADASbNwAAAM50lEQVR4nO2dy48cVxWHv3O7Z6Ztjz0ev+IHEQYk8iJ2IqGsLCWgiIfYsgHxb7BhGQmJDWyQIBJCrMKSVYRQJEAKEYpiJ2AUHGITkmAnxJYfcfyc6a57WNyqrqp+zFTX7enH+HxWt3t6puqeuvd3zz33VSWAYhg1cdM2wJhvTEBGFCYgIwoTkBGFCciIwgRkRGECMqIwARlRmICMKExARhQmICOK5rQNMCKRAd9NcHazJKBDDx3i8ccfY3FhEVEQARlqTfqb3l/LBvZL9iagg67c2BhF1aMCioAIItKnIdXBuhp4RtXuOS6cf5eLFy/S7nQqW1QS0MmTJ3nhxy9wYPduGvfu4vAIvv8oEULrJ2ivEFJt6AAhiQA4PC06urOykXONlP6rzMDKiUe9pw0kaRk4goj6jq2YpnqPiKO1pPzspz/hpd++RLtzu7KdJQEtL+/k+MOHWW3dxV2/CJ17oEn5iMyLSKMgpB7jMwcz6ArEse72s+aOVDZy3pEazrZfQEoD4bPrS7z3dpNLV3aRsCPaNtUOjms89/wqu1dWwI0WFncFJEBDwOlt1tbO4eRPyMKNwR6o63mCUrSnqngJr37nJKgTdGEPjebqSIbOM3VCkqwYsyxUQkxx8ZND/OrFo/zx1Udpcxg/oJbKSGmu0ZTT/OLXj+FdgpJsfkiBchDtHU4bLO5o4xbbNNZ34JIlUAeZkBSQIKBQSyQ0ugU0FVD5qjScwy2izVW8tEYydF7xWk9AoqmIRIA2uGvQvI7jHl4PoezGszxQQCOlwy5Ul0EdSSJoX8FtTE8vTBCUhqyRfLJG+7WE9pWEpjYQTXKhpE2XpsdsbqWieDyeq819nGud4rI7PpKh84oODmYqIGlpKMJ1Hjr2OiefuolqG69ChwZJ+hejR1jFVNKXpnV8RAZ040OV8f+5yae/PMudty7RQmlAT2NW3WhN39s0eI1n+DlPc5Zdo1s7YrrzTZZrngbw3Ndu8cMfrbPoFHUJmcBicYWz1Dnb8HEgFRbUsQwsIPhCpBMSyn/aPOHwFwskLKIoy8BKDXPHk2mTpd6gjHbfFbgNsgTO4+mQlEpjPNbVPdtwAYlHpIOgeIL3KTrLXD6bJx2CuhCONwiqD5/62ahZnDfpQOyYXhYON3AoTsPn8BpPbqSRaTnJEdhAQNlAYsBRLtys7a001tBtyzU9QjeoQcPPqOmR80Wdgh6UrwrSTgvBRcsncwaZj4N6Y7sbTGWE8Cp/L15WJoiqZIKRricaPDyQnXs7TdHVFXyxeLPPxTyrX5GKohmty99Phbmw3hHBoqTmzRsY42Y7VXVjCpiAjCimIqD564pPngGLHArBxOzkX/9M6BYvs9hYPFUGBR4Usv5mmiOqYaRYs/nH2PA3R9LhxDENJObTeFncXxx1GNXk/vB7+CjPKP267U0xl9OiVcWl3Scdcy3rCqjYPatIpRWJvYUe0zHNMqRcf4riMREV6fpkzQdVZimPZiCINvHMM1MWkIln3pmKgLJJDRPP/DN4OcfQb7Tn282joeFnM/FsB8oCEgXx6QRJHuZm81euOy1afQ4l/7vi9Icv/NaYZ4YuKCtPfGo6j54PYxVnxDbD00BxCB6hgaQ7Ooz5Z2gT5nGs0+IeqyyQICQkNQpdAE8TTZeltWkVUjHmnR4Bafd1k338jVN8hMPjcbRrrmwJO8GC/1niX3yeG+yPt9yYCfo9kCgiyv/kYX7HKd5glfvpAnodsopwMxydVHwt1mhxjQdnS892Z7AHEs+aa/CRO8r7HKWdxi7KQnSCxdDcmH96emF0t+CEnlZYwRwYT+Br4tledAWURT9h8XzoL3kJfa3yDoF4TD7joLjcdXoEAaU25PvaJby6o8VFEY3DYJNQLLOSg31TGdnOh2x7su8uiB+nyTYGFMMsLXvpj4G6Hic0Y5kHCoTxaMPI2EQNs6N0YzYxd2JEYQIyojABGVGYgIwoTEBGFCYgIwoTkBGFCciIwgRkRLGJgGZlys6YVQbcZr73Y3EuzKY2jDK5gHqcjaiifbv4Z2tf9oPArLcBYTa+a2VRIBpuLt63mdCYJONeSDM4jfopDL07R/FWH/n+r8xhmZCMgPXCjChMQEYUJiAjChOQEYUJyIjCBGREYQIyojABGVGYgIwoTEBGFCYgIwoTkBGFCciIwgRkRGECMqIwARlRmICMKExARhQmICOKDQU0+AGvtivDyBkuIAEk3w9WftCKicgIWBNmRGECMqIwARlRmICMKIYISFCVnv2nFjhvV7qdIpG831SRZn6C7DkYWW9LCrvky8TspTZmg957ruS969EU5PqfhJo6JQXR4slMNNuFfpmkCqjRyGwwDiQz9VAPYzaxINqIwgRkRGECMqIwARlRmICMKExARhQmICMKE5ARhQnIiMIEZERhAjKiMAEZUZiAjChMQEYUJiAjChOQEYUJyIjCBGREYQIyojABGVGYgIwoTEBGFCYgIwoTkBGFCciIwgQ0J4gUb4IwXVuKDH1uPPTvn66z+X68xKY9jf39dW8ImN3sArq72Ysi6t4QA8ZVJloje5raNTR8Ci8BfNfg8C87e75jvm5xZJkw6vGDb/pZFT+Vu4oEa0d19J68JDxKE2UBxEGhLBRH7014qtAruyylOvnTRAq3a5GiiBISvQvc6t7+JRicUa9mZSLQGsfH1LNwZT7iDHXTreO1i7Z6oAOkOS4OkfyGLPXtIj1nnpqqpl6o6N02pqcJU5Bw4NLSLQ4efItDBxZR1dTWRriM7D4gNSu0FG8jM+qRUi9sU52OB0LTVEdKOqvGgHic3GTvnk9oNht0OunXzEYoVBKQAl4SvEs49vnLfP8HVzn1rKA+QZygGoI5Jy5cYo1GM0jHEcQ4+rG1c02zZmGy1MungoAAkfsc+9xODh9+mA8+WEG0gcOT4Jm2jMoeSECdw7sd7D+wzLe/00aliagDmij30t5A8AJ1iqMbAuqInkTiCl9wuCnk9Tj8nmcJ9Xt5952Ey58ss9h0CLeBvYQinJ6ISgIShLW7Td47t8w7Z47htAFOEZqgDZD744n7yxVsBDLHXbvtnAIaLSEFvO/w9rnTrK1fZPdqi8NHV7j48U6U/WzSmd5Syikr3Lm5wJ//cIDfvPgksDe99Dxe1+43hVhoFBRQqdFnzNKqFwjrLAQMI5H3h0NOfURr97vQeJN9B2/xxIklWq09vP9hi3ayMjUr+zyQdha4e/sIV659gYT9+JK7yDuQgot65EGd7meE62Jabr5cAevgAI+wnwONc7R5k8ufnuGb33qU737vK/z+Zcffzybp303+Gvt9X7d8HHnY2RuvSLRjrneps9L32FryPE97vawjCDt2rfDMV7/O5asXuLd2k3X/IYvNgzRYJpmSrX0CUlFUfHf8ojh4N84+zGT7Q+Mdsd16MjsTQpN9H6XD8S89wokTx3n9jQ67dh7jzF/XePvsVeAA05qV6uvGq4AX7Rlv7o2E8vf6TLIwi9MC80Bv3grCDm5cfYhXXj7Pyr4neOrpJzh9axF1SyS0gQWm0Yz1eKB8nkULn4cFrvWjkZhYpl6K8yWgjMzuJYT9/PPsOk6OcOrZR/jgQpv/XrqGZz91xtTGxab9v1B3pfRzRv1Jwt4zVSFGBNMWT530tfBJSFhCOIrXVc6cvsebb13nzt3DdDp7mVYADRUEJIV5mXKRxzYLox4bn0nTyeLRha8DKlmY7FwElvjszj7gSOH802OAgJQQvG3mIWK8QYw3qd/0Te/O+3WmMnop5tnsxHRDPNBg43Lzs4upM6g3jh5RzCTKpNnqWK9cLQozaFucbqC/G4/gu0H0Rt4iNmMmP4o0vQfGbG1h9o/ITa6yDBwHKhoR1u3kYwx5Fz7WjT5oT//ZqkKdbg+z0ixcf1HPa7d40kx6uGLy9Akoc0D9w4fDmJ8MmrSl019DvvUM8EDZFEYWBw3LdqV+DZt8xuoYllXUYXJXWV65vlnKeQkMypPq+dSznEMQBVGfJpCLpP+UMe558q59/LN5VdOcdFrVhkny/MiXjdTJo76pDFVFNMHRQWkPMHDwz6Py4Dx3NX5BR5XzFz3PZimW5xXWcKyHo4R6D93Nz6fs2d3i+W/sYveeJRJxpR5YvyH1JzMeFPlAeWZx/GjpPV+vVQ3xCzT5IieeOsA/3ul+S9USKgno448v8epfXmHHrhZffjIBacCoa5crkDvNSTK9MaDJPn025K7Tal5P1IHC+X8LF86fJ+mMtrKoFHet7Fnh6LGjaVcsARa2JN/nb3lpJBULc2yJka4OqlB2ItJdXXzlyhVu3LhB4pPKxV4O3IslG7kLwigw4awcXazlJmsUc8sCGnAyYwxs4+wcMhs/ASY/qmdsAeZujCjs/kBGFCYgIwoTkBGFCciIwgRkRGECMqL4P/ME4kFgYznwAAAAAElFTkSuQmCC;movable=0;resizable=0;rotatable=0;deletable=0;editable=0;connectable=0;" vertex="1" parent="1">
                    <mxGeometry x="166.5016923253678" y="295.9956623391544" width="144" height="153" as="geometry"/>
                </mxCell>
                <mxCell id="8" value="" style="shape=flexArrow;endArrow=classic;html=1;movable=0;resizable=0;rotatable=0;deletable=0;editable=0;connectable=0;" edge="1" parent="1">
                    <mxGeometry width="50" height="50" relative="1" as="geometry">
                        <mxPoint x="410" y="174" as="sourcePoint"/>
                        <mxPoint x="53" y="262" as="targetPoint"/>
                    </mxGeometry>
                </mxCell>
                <mxCell id="9" value="" style="shape=image;verticalLabelPosition=bottom;labelBackgroundColor=default;verticalAlign=top;aspect=fixed;imageAspect=0;image=data:image/png,iVBORw0KGgoAAAANSUhEUgAAAJIAAACfCAYAAAAS5YBQAAAgAElEQVR4nO29Wa8lWXbf91t77xjOdO/NoYasYnWx6e4mJbFpk1IbkA2DfKHgL2DAMOxPY8gPBvjgJ8HgiwCbL4afLdgGBUNCCwIhQVJLLbIHNquru7Krqyoz73CGiNjD8sOOOOfcMe+QmVWZdf6FW3nPPTHu+Mea99oCKDvscEeYL/sCdngzsCPSDi8EOyLt8EKwI9IOLwQ7Iu3wQrAj0g4vBDsi7fBCsCPSDi8EOyLt8EKwI9IOLwQ7Iu3wQrAj0g4vBDsi7fBC4F7MYWTr910xwdcRtySSXPL7i8KOjHfHZc/l5YzttYn0zjtv83f+9t+hqmo0gaigSL4wUZC02VjX/3sOhM0NK4rt/02XjMPLIO1rDt3+RRC0HybZ+tH1NqoKKCLS/w4il4/rsM1PfvITfvGLXxBCuHC76xFJ4D/7/f+U/+kf/o/cn+1Du+p505tYEsGErRtT9LrE1+EYCU1jgozw1l1Bwx2ZtpFpElB8po0oIqfJMZBBNRNJRM4Radhezzy4lBJFUfAnf/In/Nmf/dkdiaQwnox49P4BB/YEO/8ZKXlOEVl0vW1+KWQtrK4eiQQSQB2kB7TuIctqfNUO17rkV4a7aAqRW9+N9nsKCnZO0BU/+He/4qOPniEYuIRI+bRy7vNFRBqI94d/+Ifs7e1dKbmubyOp4FPDyv4Vlf1zPEf5goEsmex6U9MPUH5DnndgAVI+hMzATaiLS5xJ3VaFXxXc/poEucPtmF6ZKWLmtD7xf/4f3+cf/+MfoJlez8VFqu2sRBIR/vRP/5SU0rnvtnFtIllxjIqK8TRRFoaq3UN8kQmgApqJJPQmE1zytkr/934Q1eZ/TUeyNcHtk4y9aEfu8tBeCob7eOXXlFCJJMBoS+EWGG2wpkF7s+J5RLqIFBeRaFCFz8O1iaSqpOTR2BB/GfD/ItF9GrBGEImsB3MQo+myW5HeLpK1yBJRVDoeFx/wH8vv8US+efm+XyUiIVtS8lVdV0KIJNuSNFDpT/ne31/y4Xc6pCC/2EnZvLAZ2yQ5S4zLJM1VEugsbuX+h795xuE/+rcs/s1jSkCI596Aiy9Btv4dfrdYDBD4C/6A/4W/y79ndsX+XyUiwd2uSW+8r5CyV8sMwTMx/4p/+D8v+G+/VeADpDh4aZcf+yYEue72t4sjqVBgmSKUCJ60ppKwZR+d21HO/AAologB9igQ9kjsXXLiN4lI2w/7+vtnEkUUh+Cx7h7OjgDPvfsVH3z4PkKdnZizXNL+D1seG1ubPHnyOfOTk3PnfKGq7dTNiKISEBKhf0cG83ibSBdBshZfRz0AEokEa0Kev8Wzny8/+uuD2xJQECxCQmgxYrGmpCoLfu/3P+Sk+QPgXWCI6532wlBBjcmjrGA0ZRMV+P/+6f/DX/7wB6fP1pPoeWS6A5E2F7nxsaT3Jc56XYO0GoZuQ5YcQss/iSHIeZXdMdz2RfgyifRqovEKJCKCYlFaDXSaEBUevfuI3/qdD/Hhnd7gHsYzQ9Z+HmSrVrAxYVVBE9PZX2Q3+xJV9mLc/7M3JJtHmtaXebXhqb0434qJ93ueJY+54jhfRfU2qKlXCSGHXAyaDKqDuhKSGFIfS9q+KtF+3DUHLVFBJUunHAw35BhUujA0cBVeUNJ2falc/vDPQi/47fK/nFH2lxzzy8CXQaLLsb4aOT1Kl42xIiQBg+lf8Y0MGwKVL81Guhu2B34jk67ebts2OjskXxVCfcWgGx2RsfXbVmRABVQNCe0/bAyPl+7+3wW3e3dPCeg7HenrgDNRovy3U++g9LKHHMMb8qODQjkTfzqbYrkIdybSRY/4asiWUN0+yjZBLlJdl6mzry+hzspss21t9vbR2rzuUw6qG1t6ML7XEuqCxOg2ka7CDYh02haQM2H4dd6Hy/I8520i2fqka5PdcLFX9lU0sr8cbFK9mTrSJ8dz1p9TUiWTZNs0SGA2D2+9H+lSIl0HNyRS2pxc86ezVov25tp58Xpedm0Mu/x9Tv1e5d7v0Ed1EASDxWAgKSklkuansdFgm1dWyaQwpPyyy3btUgJNZ091I9xZtb0oGbGTNzfHtmQXVUz/Wm/kzxCjO7vHFuRCQXRjfAle2w4vH4KI2dhAsGbLWZPkRWFHpK8BRLYMJl6O5N8R6Q3EJuk05DYHK1TWzpAO5pFu73d7vAQifX3d8a8Stm3OwSFam+E6JKE2W0lvYd0W1y7+P+1zbRg/ZOvtme8vOcw5323Iqm18hp3HdlMooLLtz21HtWVL/IDpo9dpmzZiEFVQc2s5cH2JdMa0l/6/oQTE9rek6283GEy+84FIWX8jaE407oh0Y6jJGXRBsCr9y7mt2jJ5RDaV0dLrO9kWW3fADVXbIBotKY1pmAEeRQinrmQghJzZc6OpB7KlPj6lKEuq/vMON0GWSMOnwUsb4n29XJI+VNQnCHIs6XS24BXaSPlUR/KAfyN/n49Z9QSyGOzmJrZmlWzCY0PFUf4u9eQZqKQYfsRvcsiDO9zODttz2oZIt+gmQi1rJm0Hg4d/b/8SX3teW6Z8Vjsfmw/53+x/xb9iQkuF6WOsg7obFF+eM7tRdkLq67MtnrAlfRwgrCg54t6tb+brDpH+CfQSR3TQX4OHphihfy5nQwG3n2MHN5JIvboSJUjJZ3zAz3mEx2CIW8b2oJkvtnW28s5n+H82c7fDTSEiGCOYtOW1bSVpt7fbjn5n6J10263cfxHBrLODAwYrSBkm710EPSVKt/fflYfcFGef+1CEtp6g2teFqPQZ/F5irf8F1mUmp5ygm+MFxJEGCZShW3+7DXY0ui62Y0C6FihGBCMmGxqySaKr9P6byrpM+twTejUSqZeROkRKzda57QWJQd2R4qVi65WVhJAwIhTWgBiMZjMk9c8r9Qa3SP9cZLCh6ONKF+jAG+BqIp3SPAr97LUkmUhD9ZGcUVGboPwOLxdDYDh7xM4IhRMkCKjkOKQKqZ92nRREU298GyBm+SCK0Veh2nSTNR7KMs9twOU1jDu8POhApFOqbTvLBpBJZIYAU7/dMAdoOzJ+W+yStq8xcsMI3ZpA2xe8SS+RZFPollsCDNOOpK/PFlCDasqFboPhdAtlsiPSa41NXr83fBDTl94iJO1TsdLbR+t4YB+p7AOTmiAZRfq2SrcxlXZEegOwVmCDVBJBDBg1a1MkKZg0SKTtjKfmXF0y154MeRF2GdLXGn3YRTfOzZoe2kewh1kgurFjgS3SZJVm5G727U4ivbbIxrIwSJI+b6mJmFKenKFp3XRLU98/cjvipxeU/Lz0MpIdvmIYvK5BqSSSRmKKxBjI7TwGaSSkBJssmwEdsm26KRG65hy2i7Aj0muMQRrJkOInN3/IKi1mB2zw6oa8vw5+3JlchNwtbbsj0puIoUSk58qQKhGVTWR7/WW/j95aqwE7Ir2R0DMcgcG47nNzg1QaWiIn7YvcXnY90g6vFbYbRmziQlt1Sf3/hoK3Tb+k259zR6Q3FQMz9DSZZF1eKxv1t60Hb4nbE2mXVPvSsRXXBjZ+3NCJRLY2XJff9kb30O4dI7k04PaVP8B1iKSnL0jPGGtnqxxPh8W+6rhuMd35Ar4vH2dtmjxN2wj90kBmqy57+z7Pt99Kp8LSL8H9lz6Dty7ZHE60FoWbfiLSB8TyXqbf8qsy6BdhM8SnO1pevN3pz1/ufa3jP1zQQUTJDSXWuTRO3YJi+t1k/RwNw0I4X4KxPdzG61s6cpFEvXy71weDTpAtwg2QNYdUBxWY2AiA22NnbH8tsZ0m0XWzrbtgl7T9WmFjnkuvT663jtLzsZNIXysoeWmJjUv0ohT3TiK9thicnYx1L0np5/5vlZac2+0lWLU7ifTaQtf/0VdEWhGsQBRg6BV5ljR3WLXyKuyI9Boie8qDT6aoCpIMToYODBtJdFp9bTWY6FdIum3ZyFnsVNtrCt0KEIkajFpi59HQ5SlHZ5bRklOGNqe+g7vbSjuJ9Abh17/+NT//SBnvFYwn93FF0Ue387TtYdrSJvonG1W3btJ9O+yI9AYgEyRx/MXnfPrjYw72HfH+knI8phiNKMc1pir64rczdpOYdaeGu7RJ3hHpDUDu2h8orVCvWrqjT/jil58jdY2bjKhmU8rJGFeXmLpitLdPUddZGvU/d7WVdkR6A5BECRY6K6wkYmKLCwEJC5YnifRYMLbAjmpkOmb2zjs8eO99RrMpxto8B+6O13A1kS5j6XPYe90s1g4vCgJqadRxUlW44j4VQmk8tbUUtsCIAWdIpSWljuRbRMegps/fvqwKyd5vlK2Pp6Dnc/tbk2LuWt6yww0gakAtX8w9f/nMo6ajQnlQBb717lu8/fY71HWFKwqMc7iqxhY1KuZMF5Jdqe3XGkmUaIRFCHy+9KzCCRJBHtTUewc8ePsR1WiEmL4do9IvgJMlkQ7lADtj++uNZCAYCKJ4I6izWAP39ve5t3+AlGVuGtvXkGzLn7s1s9lgR6Q3ACqCmty3aqgSc1Y4mE2oJ1OSsVs92zdiJw3y6K41JOyI9EZgXeu5NpoTo6piNB1jXYEm+oDkoMo2UyRzPu7uCY4dkd4oDP0hldm4Ym8ywdnTj3i7ZXX+/GKSuLtc2xsCIffQNppwRrm/P+Vgb4p19kzN9um9NlO+73b+HZHeCGRFZSRhJFEVcG82YVRViDGbGbWw/j13d9teI+lu/ZF2qu1NgAqSQDRhiczqknvTMXVVsmmQD2IGohi2Fi9hM9VkR6SvN3p9ZQTKwnJ/Mub+ZEJpLKS+K0nv0emwnNYaLyZ0vCPSG4DskSUeTGq+se/YLyyu61gdHxJjJGpCjRBjxFpLUdSM6jGucJyeaLmLbH+tkSQvdPawdnw4sYxGI8aFJXpPCJ5VaEkoy8WS8XjMZCJUZYWIY71M+64byQ7bEGN4cP8e77z1FinlLm6VbwgpIilR1yPKolhPFoDNxOlByd2GTrci0i6v/9WEtRYhsVquOD4+xGDAQBc9ISXatiUlIXiw4qjLgk0d9yueabvdVve8mbbL+b86bDJlQ//sFHMm35jcpDQ3YTcYUZwoKYGzltJaRBVJ9KW4isiwgOntcGMibTrrXNRcYUeiV4eNTZPnsQkopJjwwbPqWkLIq3TGmOf2N8sODcAYRlXdp1Skb+aum7rtW1RL7mykNwh54Rql7TqWzYoQcgQphoiqsmobkipFVRJEScO0JLbbk95uXsmOSG8QxAjGGvb29nnn3Ud5aS2gaVpUE9ZZRpMxZVWBFbxGSKnPvRliSreSRrAztt8s9MRZNSuO58d9Vl/w3qMp0XYdGCGkhDhLEQMghBhRhJjirU99c2P7SlNouwndDq8aqorGBJINbsQhknNoMQSctRRFgbFbkW0RjDGkO0qHm0uktTK97MwvqjBhh5sixEgIgbIomU6nIAYxFt95UogsF0uqqsY6izMWY3q3yZg790i6nEiX8GRrovCl31+x+w4vETEGkiYW8zmfffopKgYxQowJjYmTk2O87yjKkr2Dg7xIoLF5LbfEVvb/K+S17WTSq4f3Ad91PP7kl/zy8a+YTKeURYn2PSVVlfn8mLIaM5lO8yLKxq473WwWx7k5dsb2G4SubTk+PqHthIRQFgWjql7XZQtCBJzLtpKYwVaSM67/zXG7yLac/sv5C3h9W5S+ztjb2+M3fmMfn+7hvSJiGU+nzKaTdeQ6IZRVTT0e0ccwGZZXfmlEOueDab8+2Prbi7y0nef2qmE0R7f39vf57b/1PmX9ISeLjh//+CcktTx85z3qqsqqy2QDXMWwmQ7wCuqRztb4ovZMtu38VjsSvVoYBatweHjIx58o09keIVkwJb94/GvamPjND7/BdDIGY1By3GjIxQkWgBhfYRwpYzOZ5fznXc7ty4Jzlo9+8TGL5YL3f+M/4d333mO+WvKDH/6Q+WLBd779berRGB862i7Qdh5NymQypR7VL5NIgxV/HWJc2iVgh1eEg3v3KYoFT58d8vBtT1WP+PCb3+SLp1/w0ce/IKaEsZb5cknbtLStRxW+/Z1v88EHH+RUyS0dtyuItCHGhhp9e92tGoBta39nYr9KyJaNk2fNHh7Nsa5mOnMcHZ9weHTM/sE+j977gE8++SUfP/4Vh4fPOJnPQXMMqXCOt999m3fjozv1SHquatsOPopst+TdrqfL/94+CrHDzSHkNY6EJIKKYblqOTh4iyRjTuYrPv38C5IxPHz3Ec/mc46Pj3D1CNu2aMrPzRYORfAhBzNvi+csanOxhDlfzHb6045MXw4ODu7z8OFbVON94uNPOTw6Iqry6NEjDg7u8+TJU+aLJatVQ/BhHVtaNStWq4YYbk+kG02Q3CbIToV99VBVDmMS9ahktrdHPaoJIfD48WOKouDhw4c459aVIqqKD56nT58xn5+gd5BIVxJpEym6SsZc9d2Obq8GWQ9437BYHdF1Kw4O9hExVFVFURbM53MODg44ODjIURwU1UTTrHj69Ald1/WR7ts9s2vFka469Lb626m0LxdPnjzhb37WgQ1YN+GLzz5nMp3w6L33Cd5zdHTIarlEU+zrtMEYoVmt6JrmTs22bmRsD9iY3JvY0aZg86Io9w53xzCu6cznzfeff/GMn/z0U3w8QlMFYjiqao6ODnupdMLx4VMkJYa4tjVCCC1Ns8xxJLkdma4ZkNz0izxd36so5lTKb3MNtxGRO+JtYzMaEaHr/2K3fk5v2XW5XjuEJZo8KSnN8ojjo88BEAMpeEqbC9+ssRRlCcDxsy9YnBzf+lpvGNnedI/fnkmyvXLqeTLdhBw7n+80FMUzqp7y8OGntG3Ds6ffIKZ3L9qUg72aDx7dR9MDhDIHCESw1pJSIgSPaqKuKuqqWlcFWGsREX6Wultf6bXdfzn3l/PbnLqrC3+/DnZkGiAklBO+9/c6/uiP53z6+ef8+T95xEc/K1DimW2Fb/3mO/yXv/8OGh5ibYHrCQRK0zSoJqq6YjyusWIwIqQUiSnRdZ4f/eSjW1/rNbP/Z1ugPA878/vuyL3VIGKKOffePuTBNwJ/9R8CP/9ZOJWxHyqf3zm4z4dvFfhmSlEUuMLQdR0xRsLYIpLzcUpCSMymU0Qkz4NbNdTOvjxj+/a4i+v/OoUNXs7LsrFFx3z/+19Qz77g3js/ZjSu+eaHj/ibn7u1mTHUiMWuxSSltFAVgnUGR0FMBqlLNEVUI533FK7AakIVCgE3GVFXxa31wZ2JdF5qvYiw5U6S5bovg2Lw/m1iE/nrv/p/8c2v+b3f+yaOb/LxzwNG4nqYfVhhXUlZFBhrKcuKYAOr1QpBKasSI0pZOFJKxJiwxuVVJ505Pbvkhrhiz+vUzF02AeBsCOCmPzvktnwWoUAYoVpgKfjrj/45Hf+EP/qjQ779W7Zf2SiPmbWOsijXJbQxBlIIlM4yqqvcwU2EEAJd54kxYkwOWg4dSl7K3P8hLrQ2uFVQzSag4oGOYX35ISaafyKCv9UF3bV2+FXj/EIa19ln2LNEcRc+Pu3XgszosDbyn3/vexw8XDBf/JiT5l8yqb+LY4loBxopCou1QoyKcxYjQuyVpIhgjcFUFdZamlWTKwBE0JQIIZBifDmqTfrbHXL7KrkCoB7/grff/995/5M8ue7R2/t86xvvZ1KJoMljtD3TMbVvTiD5zbHWEnwghEw4ESElJWnK86xMpqi1FlXN89fpD9G7rADB56y1NQZjbY6PDPtcUKg1TLnRvmsHqqQ+ohtTJKW8FiwCxhg05QdRFiXGCqqJmHIdj6aE9yG/bmJwzmGtrK9PyfPuU0rr865/N4JqjUiFc1mCtG1LCKHvqlau2zwqX/Dbv234znfewnbvMD+Zszf518y++wm/991nfPubC1JUuqajbVYU5h62v56icLRtixGDtQ5jckeS6EPu5hY6vI8kFS5LtV2nvORSIp1WThtLSCXx3gef8t/9Dz/gD//oCGMMv/HoHt/68L2sa9eDv+27bXWXV8U6h3OO4AOdz7GL7IpmvW1M1tfWGFxRoAre+/6hJwSD7fW5798ka22/j8U5S1KIIZy/L+nf//46VBMp5hHMjak2/pAZ3GdVyqrCGAEJxNjmbZMSvII6xBhc/6AQxTkHGLwPpJSJjkDqp0XnNdIyWQtXoCjNqiUEj7WWaivOA+Cb+zx9kvj9b3W886jit77zDPgCJXJwv0DUEQL4LjCeFmhSuq6jHtWUVUUMgeVyhbNCURTruNJ0OqbrlNhePbH1eWS6lrG9VjdqSVrw4O17/Nd//BCRVf+lyZJFU5/DkU0H1a3zi0BKCniMifmY2I2UwKJJUM3TjIcJfFkkGlQSaOzd4rywr6Z8jHx8BUL/s5E+ZwckD4ogJpNk6OhCX8O82Xg7HdFHlk0EcneP3AWmBC1B87GTRjQlVANDzZAxgrW9ZFZL0pQJrPl6jYReYCuo7aWhP52lb3/F2x8YvvO37+OKSDV9hognRpcvSy2z6QGzaUlRVGhKfbpDc6OImBtGuLLEWYsVw8p7fOcxIlRViXPuwkUA7ySRzkGEthH+8kfP+I8//DHGFygLjEbee/sBv/OddzHGYkXouo6u81hrshEnfSODrQkmZemIIbJaNRRlQVmUWdTGSOGqPO8KQcT2UiThuxakQEzOXMeQ8F3EOtdHbyMheKqqpCgt3ucuHMPgDPPgnSsxYgkhZAsiQQiKNTYfh4i1mci5HDVL2hgjdT2iqkt817JcLSlcQVlWpJRwziJG6LoW33UY6xDyeFgn1HVOR1jrQKDrGpq2oSgM1hQ0qy57W1WBG9Ro7F8KkzBW0bQCddjDMdZFYjKEzmK1IHSWagTJN1hbgyZ81yGSJbUtCqoqj7MrHPfu3esrAJo8lbs3CW6DGxAJFsvIP/3zX/O//qO/QNShKeBE+S/+4Nv89//Nh5RlSVUWtE3L/OQEI8JsNsFYy2q1IoZMFBFhOpvgO8/xiacqS8bjEaHX23VV4VyRH4wIKUba1rNqIoLFOoP3Hu8TRTFiVI8wRmi7hqaJTGcVdWVpOo+IxYhBUax1faTXURWTLEFSQsSQUrZ5xAiqHjFQOMfJyQLvlcl4gjGGuq4ZjUacnJxweKiMJ2Om00kuwxChKBxJxwSfCRBjYrlc4pxhOsvnzPZTom0DMdUUhYPkWCwSxljqquxnwEo/G9YQU0QQytJl1W9cf/0g4rDGEWOiriNUBRoMXZsIIWINhOiZz1uePPVoipRlSV1XGJvNh67ztO1LSJGczuNLb7wqy0XiyZNATiSCE3h6pMyPSsajigbNmedgCSnRmBFlWaK+xgDOmWwnhJrCCNP6IJ8vOIgB7SKNlzWJspQCkSlGZtkgDokQCzQCUtMshLquGBX7OGkhKosTj2p2bY21vXcCJikxGHyoerWpuamCFYJ2oMpiscB7z8HBPSxjlu0cb0cYYwmdsFoEYiwRPSC0jtbUxFhme0cqrBUUT9O0vaFbI8nSLizWGnyKJE2sVom6LijLMYGE0QWh7WhihTVFbtXnijx+MbFqGxYpUJaO6WwvE8wnjFha72naFmuKXoXmc5wc9wVrotmmi56UIvVoREwRH3y2a/Vu69u6q9y9038fthwM6fxtAtiaWx59pHAOjANivvgQSTHmFQxNliYhROq6zl6PZgM7InRdQDAUrkYTpGhwtsRaS0yBuraIJDrfYoyj6yLBe0SEsqwoyxrvOzrtaBvD0SpQlYbxqM6zKIxhVFWgBh9itlUA64SyyNObnQ1oKmgbpWkihnweZ8FYQwy956VC2waKQqmqEUWvYjP5AzEogsNZx3K1wvsF0+m0f0ksRmp8J8SqwBioa6XrbN/3MffAVs1GcV3XWGdYLhZ9HKjFOUdMCTWJxWpODIHClbRtSz0aZQegcHjfYa1lb39KPR2DKvvTCV3X0jRNJoIdMZ1MMGJIeiaPd402JdcuIzn7Wfpeg0mhKByz6SjHkMqCuq6Yz09oFw2ugLIqqeqarutouxXGCMYmYmqxLhFjdu3FRkZjRwoGUOq6zCQTkwvTvVIUWdRDwhhHCpFyXJFS5OTkhMKVKNCuPMfHc0ajEVU5IkYIIYF6loslVoq84AugyVAUo+wWx0hVlhiJPHv2jKZdMRrXWDWMRiOstdmDFEVxtG2H7zzWZBvN+w76txuEsixxheP45Iiu83jfoepyLqw/38nJnBg91mUSocrKZ1PAWtOHOoS6rnGuZLVcsZQVACEGZrM9xuMRQLZTC5fdfTE8fPiAEHNIoR6NsFWBFUthso1mXD5223narjs3AWAdwnkeka4vxK6y5A3OlIzqCgAfPGU5QtXQtR0pCgcH+xwdHUORGxjUdYUmZRUauq4PqDnHeDQihtyMLiW/Tjpmu8DmeJLNUiqELPFUE03b9ZHdGo2RpllROMv+3gxFCSHkAF2C1WKJqlKUZbbrqgloYrXscjQ4pdxTSAOuyNFi51zv8qf1gymKMkvNlOi8xyVLCBFN2Q4KMbJcrRCgWWU117YNZVkwm83ouhxDq8qS5bKh7aXM8ABTSnRdhzGGyaRlNpvhXJELi9RQlgWdj5ycLNmbzQgx0LYdZVmwnC/RCNZZjLOMqgrvPfP5PEe/SRwePiEZgytLVktP0zbXZsM5It16zy1oSnStx5i89Pdq1VDVNfcOZsznc0JINKtADJCi4ElUle37QgcKW/e6ORGCUpaZkDFGbD9ww1sRU7ZpjDEUxmFcQfAeH5SqrCico/GeqiiZzqY45zg6OqIoS+rRiGa1YjQaUVYbD8oYQ9d5mmaFao4BxRgoi4KqrhmPRjjn8CHQrFa5/bDJBBhVWZV67wk+YkQImmiaDk1Ku2rofK6HVmBxMqesynVQtigKQsylHNYWWGMJMVCWJV3b0TYd0+mUuhrhXEnXtUj/Up2cLHny5Gkm3AOfu7EJpBhZLBYEnxiPR0yrGdZZYsqhiRhC9kpt0WqllzcAAAsmSURBVFcEOPb3R0zqbMfeZgqAu0v9zzpw1+d2VssVZZVVy8nxCc2qyYasc8wXc4ZWvMF7YoiY0lDVFa5wvUcXaJqGECPTyYTJZELTNMwXi2zb1DUpJcqypCgKVk3D4uSE2OeOrBG6VlgsFzhrQZWubRmPRhRliRGhaVYEH9k/2EdEaJuWxWLRx4SEsiwIIebrCDETpMshhfUSVYA1OWAKefiaVYP3nqIos0QuSkajMc4WLFcrXFFw7+ABh4fPcoiirLj/4B7eBz777DPqqube/XvZ/mk7qqpitVoxmUw4ODjIAVERDoOnWTV98DLlcziLpnwNYvqouimpRnl8x6Ps8MSYGI/H+M4TYmQ22yOh+BRYF0u/ymak2zCSQ+5VVeYoc0pYY+k0q4myLFjMFzz+1WMm4wn7B/uM6pqyzAZ00zQsl0tCCEzHk94A93SdZzweUxRFjsp2HQLZ6LQO7z1Hh4fM53OsdXRdS1WWWGeoyjL/VBWL5ZKqKPpobqSqKpyNOFfgfUdMibLIno6IMJlOSKrEXoUFH1gsFxydHDMZj5lNZxgjdJ1nuVxlYz0llr2kqqocqbbWIAJFUTBSWPbTpI2xFGWWTl3rSSlRVTVVXfcqJ3uqRVFQj2rqusaI4ej4OKvFoiRVymK+YG9vRlmWrFYrjLXEEJgvltSVY2+2x3QyoiotXdfx9OlTuq6jsC6TygdCCDnBG1N+R/T5ttBLIxII1rnM9N4FNTYbpuPxiLquWS5XBB9YrZZMppOsWsoCHwJd15FiWueFqrKi6zrm8zmHh8qkl0xFH9iMMZFSpGlajDE8fPgQVTg6OsT7jqbJ6Zcch3JMJhOsNcSkIIb9/QNQpSgLvM/kK8qCEANJldAHFvf29xiPx4Dy6aefcnx8ks+fImIcrW/pum6tBkfjmr29GXWdmzG0bUvX5UmHIUaQSEqR8XjSS4fQ7zdmPBnTth3L1RJrbA7OpkhoAyh0vqNt2hwRdzmmhebZsatVw/HxEXVds7e3x2ycx3dvfw8lMl/M1/EyTYrpXzQ0LylRliWlK6iKEWVRclsNdXsiyUa1aVJ8P3NzPBqvv4spN8d8662HjMYjYsiBMCUnKH3IpQxJE5UrGY1G2ZgExuNx/i6l3lvJK0W3Xctylb2Ze/cO1lJtbzbLA2WyV2eLHLBztk85SJZmqpqlw0mb+06PR4g1nMxPtpKm2dsyJs+vr+oR05Rtp6rOfYZan43fUR+PqauK6WyKoqQYKauKw8NDlquT7E0WBXt7+73n5wje5zlnrsz3WFa5mWjnsy2jmj0+42hjS1lkxyAnhh3LZUPXZUO+LMscoO08dVXlF7IqaJpAs2pwNq+YVBUFMWSShxgJMeCS6+/VXkmg53lud5JIOUelPDs85If/4UdMJiPee/8R9+4fUFUVT5484fDwcH3hs9mM0XiEsYajo2NiDBRlwfHxMU2TJ/XlMoj8tj579oynT58wnc1w1rK3t4cxMF/MWS48o9GofzCGg/19CpcN15RSH/n2TGdT2rajbRqqvtlUDIHFYsFsb0bbNXQhkFCKosDaHDQ0Ygi+o6wqptNJTthqTl9F76nLislkirGWpm05OVnSdvmauq7rX5qayYQcMVaoqoqqqrJnpxC6yPLkCB8C49GIelSjJnF0dExZFOzP9vOLieSa6wSlK3Mz0dmMtmnwvqMu85Kj1phcDpKy0V/YkuloSkoBYsKKEEXpYiTEyGLV8OzwmP29ffb3c+LYCKdaJQ+TzZ5HptsTaetk1jhUDYtFhzEFqOXo8JijoxNWTUMKkclkQlWOadpIUTvEVRhxTGYzOp84evaEp4eHHOztrXNMbdfQNi1i4N69+32yFkb1qL8E7XNcRd8MIRv+nfd89vnniMBoMkZRWt+xWC6YTmfU4xEhBTDwy8ePOZ7P+caH38BZy/F8zmw6YVxXoIr3WZWpWJpmRYoBjYmqrgkxYTGM6gnGZKmwXHYcHR/RdR3a57oUGI9H61mvuZTGYMVhjKXsyb9YLCmKYi2NV6vVWgpVZUlSZbFcMgH2ZjNiCJycnOTUjkhOuhqDKnRtR1mUjOua5WpJu2opyhLnKjQqeChcje8SKQlNm+3Bs8WMRiQ7Is+pEXO3nRAH9N2+YG9vn9/57b9FiJ6DgxwAO1qsiMYxmh6wP50xm+zlwWoaogrj6T2871isWopqBKbgydPD7AKLAVvw9rvvE0Loa5Esx/OGGLIKdUXNZDIhhMiy9dAFmqajLHLOaeUDRVGy6iKqQhRLG5UyKmodai2L1tMlAVvSdIqzENWRpKDVPsouuZjPB4NKRUBoQoNGoRCLsQXFaML0oKbzyny5RBpP6ALeBxDLdDLGWsN81eKTUpYFRV3mpa7qHJRsu3adiyyqGhsTUYWEoSgKmtbnKDa5oahYy2gyIfZelhHTmxSGpu344vCE2XhMXZeUVU1MQsTgm4gRS11VjOsJe9NESmBtgTEFqkMV2pa8uMYq3LeWSEMDSwU++vkn/F//9z+jKPo6I00sfNP3K3RIglKyp5IEvKZ1IVmzWmJF8G0LJGaTSV+TZKnrCh8iXdugSdfR4tYPQbpJn4Lx6yy2cwVVXa2z/WXxo3VgzzmHsbl1oe9alk1DSDnrX9i/pqqqXAPlcqlH03U4W+SkryYQYblasWpWjOqKUZ1dcrEWW1Rgsr3TreYk3/aq0mDIyzoEv6k1Gpo5GGOJKSHWUhaOxXxB5z3W5fhWWZYYwHdNLtQvqxyRV6VtmxyJr0eIySW0SVlXOxbGMqpzqCSp0rT5ZTO9+ibl4n9rC6qq4ueffLH1XIc6zuvhDjaS9uF04ScfP+YXH3+yJm1CSKZfmacvKXbr705XZp8TpWcuXjldxnu2snu9b7+BavZihb4JOevwTz6eDucxJHI3RcOmeH04l3Lx5OhT1z2cp7/P4TsHWNk619bv28eI5IPkcdJz97g9JkN517BQzWXj0R8SIxv7RvtU1maDdbHqutbMYIkMRYjDflwb7rZqLSNbLR7pS8m2BOKZ8Kgf7uCS42yLUj2zpZz59/zePYF02E7WO+iljRFOX+B2H47nRVOGXnWXDXRE1ueU4QK3r5XevuN6RWPrHa+LU8y6YMdzf1Igbl7YW1g7LyCOlAfkeg/hdpm9m97UbaKzw5u53Y/u9rji/Oua8VubpjfCdo16/kP/xQVk2ubfRvJer6zkBU2QHKYI3A1n1dzNruBu2BTIbD5fXptz/bNd5jK/SBKdvc5z5Llwp0uu6cwu130pb5RrS/20lYtxM+PsMlxEJtmSFBd9Pn0FLw53ac75Io9xl3OcJdiV06fOfDWEFIZc6lW4srDtLGazGf/gH/wx9+7t8zz5cdsBzEbszeXSq1ATX1UMY32p9Ft/z5mBet44Z4/2u7/7Xf79v/sBV1nfDq7Xjfbx48d8//vfZzQa8bu/+7tcRaRhpsZtCHHxwssvG3rulLctOX1V2CbPZdd5VsVlw3/Llbnq+fTPUFX56Y9/zE9/+tN+keWLIXKxajyH/f193n///WsN8PPekKuwborwKiGn72f7uq/7kF41Lhrjs9dybvy3CXWDMTZG+Oyzz/ni6ZNLVwfoK4/PxyK+LNy+OmqH6+BlOTNrr+2sV3ipl/iSsSPRy8XLGt9T5vhZ6+TLsFZ2eD3hzkqgi9IBt8ZVoegd3ihcGJD8KtlMrwQv9O35esK9VPX1ujyU1+U6v8K4NGS5s492uAmujH3vyLTDdfHcJMqOTDtcB9fK/u9s0R2eh2uXkezItMNVcHpp5uWSHNOV3+7wdYW72ALa0WSHm+H/B3vh3xs/RHeNAAAAAElFTkSuQmCC;movable=0;resizable=0;rotatable=0;deletable=0;editable=0;connectable=0;" vertex="1" parent="1">
                    <mxGeometry x="364.0022805606617" y="295.9972429342831" width="146" height="159" as="geometry"/>
                </mxCell>
                <mxCell id="10" value="" style="shape=image;verticalLabelPosition=bottom;labelBackgroundColor=default;verticalAlign=top;aspect=fixed;imageAspect=0;image=data:image/png,iVBORw0KGgoAAAANSUhEUgAAAJMAAACaCAYAAACt6nrdAAARM0lEQVR4nO2dba8kx1XHf6e65z7tk71rdp2s7TiJ5ci2sGyIrSgoyEKQVyAeXvAGJATiA+Qb8AIQEvkEvEBCAgVBBF+AAEIRJijY+EEJjtf2BsfrxfbuZq937+69M9N1eNHd0z0z3TPVPXWfds9vde/eO7e7q7rqX1WnT52qFkAxjAi4w86Ace9gYjKiYWIyomFiMqJhYjKiYWIyomFiMqJhYjKikXY/ReLnYoolPtSm5M3tWiAsL4zu9ZefoUuvHCSm8+fP88wzT7O2Vhyu68SpQZ26jqIgWeuRbeUgWj+oK/0bR1nIB4dQCUZwziEoqopX8FLkR7UxW4IDDbtfweFEwAlv/+h/+MlP3meUjRfebZCYnn/+ef74T/6Is+cEkTs4v4VqJDFJ9XP+z7cdCTJfRkJNTL3pJyhRxfUU03QzCk6R3DIZI5KQuNO43U38nRHe7zKWDEURL6WyZs52SOC9Ok1JkgH+9Dp/+s0/41vf+luGd7OFuQ4S09bWJo8+do4Hz36IcIk0WmMsC6f8LYMWMS0isLEtyENfDn58VQWRMcga7D7JB/92Ev/GezyYXcUxRJ0Aad4LzZ/dIaENttfWOfUrX2Hr9Ek0WW5eh9lMkuF1m9H4Hdz4ZVw2pk+lt1x88l1lWlwl9VGsTTj9BSUgPU4uhpK+yfaToaAqiBvhEkF3PP/57ZvwV3/Hz3OJlIwxgpI09kAORQJTVhJ+sHmCJ85+k0GLNGcJFJPgEiGRjOz6He688VP04z0gwTtPr6IRgATUIXiuc4JLPM6OOzd3aH2ImxNNrUJ766lvB9Mw7HZJtPO56kB2+eyjV3nqqSGnxaPABkNOsocDRgjKaIGYQvFsZJDoMPi8IDGJroGeAHXsXdpl+8/fhe/fQP064zQDKQ2z8OIRERSHenBkvMwX+Qv/EpeTL88dW7cvGm0mwPXuJSSvpM6nKV4U7W2w9cmtI+Eqv/qb/843vrHDmYubiO6gJIxRkqJ0ZPI1nUaXFBVBMl903BJka3V2DQzujjl5/Q6ydxdFyUYjHOM+7awwtz2KY4MBYz7HdZ5rPNZPzpmmHBjLAuyK0Dy0LkeZlnn3dLvn1zHgAca7l0H/F5GMRIQEV+udK7NhVbS4PS2eGJcRKKbqQpI4GKSMAYcHPILv3Ss4EhRlwADHCRwbLUc2V1093ePkbsof7rshJHhO4lkDGSNJlj++77vvL4wOYvJo4cvwiRQ9kU4dURJ6a0oCOBxDIB/2FvUR/fuBdo5GNYSSl7rX3LQQ0cnDQzXAHR6BBrgHcmei19zoy2UAFMZZWcnl7YRUeukKkMLEGy151tgPMZXDc9frHka1SfE0pkj+MCkOLWrhKPRP4T2TlH1R7mF1VJZG/xvRic2iCLlkD36wOoyKiHmXeQkmpGvrjDRjPNojJWxyJSbBBrjT6uvepLuc9EgMLvmY4Z74AhvPP8P2zWtsv/pDHrq+zQYZzZNT+0OgayAXUaowugfF1MX7Mk3e9g+zSBTN3QJPPcH4t3+RKzev8fEY0u+9zvm7t4pjcvZb9D2iBu5FjnMLUTbx7L7yOtcePsV3U2V49hTnLl7g1Du3SQtTwtWO3y9MTMecfCZOuf3hVW5d2eG/r33Ch8PbPPm5L/DQrSFrH11hq8M0yioEeeumsiEzxnj+Yc3rGkZ1rK7gpzIohJLiWGOdhAGvvP4WP9g6RfbSS4wvXMSTFjXUd9orjB6u38LnNPk/l4WbEdSyrzKn+e8mphgkTnj66S/x+Ocf4/KV99lNBqw/eJ4hKdoh/KQvNswde8ooMM/G3l1++bPPwFde5NyNXQb/8Rr+x+8yQMkKj9R+ugssBvyYo8Uo4cjY/PF77P3Nt/na9pDfeuGrXDi3Saq3SBkWDuI+kzjhWM90zPHFv5PAnUvvcJ4txonj01HC+vUbpGQIvrBx3b4OdCamY46SkRWznKdxbDBk+/Lb7F5+n5QRg4lVmx+9n5iYjj3CGLgDrKGsoTyEZ8geQtYQnLJ/dBaTIKB5xhKgVPtsEG9IxvOYHkVIUAaTKxqLqa3BQHBkOMZQPLOVhna+NEMm0/HTzpzlFNP5OiiCB/chOM6pQ3zCGBgUU7OeKiSlKcKvmfLIPPBESc1BEEi+ZMmBLwLYcKQ40lrAnpAVDXWWMDkJimgCfpD/vx9iEgZ4znCTHW7jcYyLrlQmXtawKEIhI8UhpDh2GRBvkcL9gU56nxPAg2SF/dQeA+oJ7Z3GCDvpgMxNFLuUzmLadj/Da+kjvMctPIIwwpGSexm0FpayLAOCZ4Av2tRbPM4O84sJjAUIXOcCV/gFbvEcVSB021xEHhkbIqddUj5hmwt6Fk9G23rGOoFiksmykPfdY/x1+hKvsgVsFgmV0TP1KcVlLqzKMHQk3GXANU6EZec+J5eCQ3WNH/Oz/D3PssEmMCickm1NOWyGTgt/1MboVX4uu0gm7Ytj64SJSfPwKxHhbrLOB+4il3mkGMyGVB1qaf41h/gvj2nMp2iMdsqKRlPwG+zpGT7kAYSTxYOMTByZ84T5wLWoxQHv8WmSgpQjz2I6DXP50nM3WfoiU4IpVV8fl82g3m88a0BSOCbrT8NNgqmHyi2altfpowKrcamY6kk29Sw6d3Q92KyPmI5zbNFBUJSp+GKavXwGnhVHv4VfFd3roVVMuSKLEVhAi3FTVBEt5/rrPZAUYVirRB6akBYxXdZZbq/qiIlPCGq2zbJeZ/bvzb9rWZ8B2mzvmaSIgNHykvkcUK4vqQ1ms8Nc3XHfXRw2MC5DcpMJj/djPHt5I59yTrYzLbbFpa34vBOJNcxVy7LLi+arUyo/RrOiDyKy7/4k7/tVPb7snYoBT4tH//K4eeoeqCaDerWmbCEo9xyH14hNTEY0TExGNExMRjRMTEY0TExGNExMRjRMTEY0TExGNExMRjRMTEY0TExGNCKIySZ0D45yklaKtzmUnzbtKrroGqFplaHYYTuVBkVatl1if1euG7NIKaYiekTn/qKNi5uqUN1uq+bKM5H6J+3YMHdfcDCjh4nJiIaJyYiGicmIhonJiIaJyYiGicmIhonJiIaJyYiGicmIhonJiEZ3Mdm8rtFCr55JArelMw6CozPV3llMtofAUaPcFWU/XjrbjX49kwnqCHFQW8YvxwzwY0/Y3sYHgYnpHuFwX+6aY2IyomFiMqJhYrov2R8by8R0X9LlbcrhmJiMaJiYjGiYmIxomJiMaJiYjGiYmIxoLBTT7Et2VKfXt8vMBONRmSMy2ljmElhtSqZVTOULWKR4b2G+IYIr/pJnyk1lbvaVYcbRo6zDZa/C6IcNc0Y0TExGNExMRjRMTEY0TExGNExMRjRMTEY0TExGNExMRjRMTEY0TExGNExMRjRMTEY0TExGNExMRjRMTEY0TExGNExMRjRMTEY0TExGNExM9wDVRl/xNvzqsyzExHTPEHvnuO7bG5qYjBa6L10LeuFzG9V2wbZW7uiwrIfav7oKE5NkIEOUMegua3zKBjdQMsYM8axNdJzfSp/FfLLyTtb15aDTnxw9+ixXVRTHNglDnAc0wzNGyYCMRQsp8zJJAlIt/+7wJKgUe4wHZDZMTJonogoXLgz5jV/LePbpMZ5dsnTMWKUh/z7o0hWCV0F7vP1AZ2tGpbhiaHUdvOgcinRM1qP4DF788ibnzmygmaDeUa3SbX/lfLgFpFM/5VUf1swDhzkHJAgJjz6+w+/+4ZsM9/4Pz21comiWzmwd3KePKc/pKkKgScvF52FJH7yYRJaVj87dVCYwzJQTGx9xZmvM3U/XSXSNwaTHKU2O9vtR/MK/V4xI2MWR4bTQ0xIWiklr38QLe7fX2Nu+iUv/GXyC6l3Gew5RmWllCtJFFLka1HmypMNp5dmzNyrlfwGFFlJK+4BH0CYRS73cZ88BdY7d3V2yOye5s53hd2+zxSYwLI9oPDn/tG2fgea0HDskOkbmuv5mFoqpfCOH+ITxp2vcfuU2O995l1PpLqIe1Qz1KchMUlJmf9nDohb/Uq7qo3xPXuQDeYx6C6t2WGmp9FqvdPjbqnfBFZU7T6Wx2QpUIMORkWTrjIcP88mbn/DrfJfPcB0lK7YV8XNnSlGm+efLG/qQlBvuKo/o7/BapjVbor2U28VUP0eE0e2M4csfsf6Xb7DF3QUXlZmvpkuXz4GK4lHW+Yhz/AMv8H2+WrtOvftWpPiatQ/Kv/TjcF5gs9pLKqS4wg5f45/4A/6RF/ivojQFl/d7K+VvjOeSnOAx/SW8z5p70RmWD3NU/USq09U7T703aUu8buAJikMZk5HhcVOFMNnWZyKV2T6oEkL/ijmstyGt7lKRiXzyr7xEpdbo5s8Iy5kyANbU4TRFnaAB5kCwn0nxeMkmmV7E8ncMVe6w0pUgjIvH3OmBrVlQ5RCaG+zV3lF96Gn0r4xbWcL5oJeXgFJ/BGprIGEpVrs4CYjgBESW13ugmEpzPhdTWY3tlw4z2Kp+LBeXLyp1kQ1kLtJp8j6o9DMlVI1jNal6YOg8WeJxLqypruQBn6a7G27WpOuzd1n9+PtPZNXdxxyspxqz1MeRxawoJpn5ud1pNn98t1SmfJJTnyzaWi+McgA9SDGukta0R6/6rbqLtm0Gw3I0bRMfyNxcU6ZnHZeLzg274vzRMiMmt1TCixHkEOa76w/q3cnPK5uQzlyt33Wb6nLxU/kskcVUZqLp5/p5y6/c9um0oVlPqa+UDovuD++zk0QJ5dN1vTnJ1NFdrz7/2b6LqS2RRVMqYRla5BZr6n0Wu9GOMv1zrTUrZtZftXjADh/qJr93mGpasWdqYzVzsEmibUKS2jExOvfjxlHaLjvi09zBMluER6dID5Z8N/ajcecRLc9lT3Hxbvh+FU4T7giVxAo906xw6gZgw9jb2zBsv1L9s+NpN62OIBEF1WDzdoiqiCgmmB94Zo+vHmabWV4oWvteP+votM/jSlvnEG7/9hRTqA+pi/MsXA51Qd3fIpJWV0l3Dk1MTYnDQZvE1iOVfrfYEynLPmtmn1y/Vs0HRSWmMhb88LhnXAP3K5WY5mcwD5pjuQjThFQRb4hbnV49U6yKnA7DnU1h2pVQP649/VUKtu9dHZ3KDKHLXXYtkSAxCZW7oe7TWFypyx2Y5U/Twbeu9n9SS2d2InOWvtGSZVp9WBTGt1/UPd4OwRXfgWIhQfNyVmWZp3zO4aIKqoiGRdgHiUlF8AJDzWO2d6ligJZlaf5vVexRvhIvYUTCCIdjhDAsji3nxCtWDZJvJ9un6y6ie08ocw1KiqiBlBEpnhFQNo3pXlypB9q0PYlXJexw+CQNkGBF8IrewanTnP36S8gDG6yRIdK0wC3AJ6HVU4dIHgKcasKXuMjv8Xk+nmRJOnhfV7GiVpmUXiXdvjNqVX6dDnhcn+KL+vts6dfzGHpx4OrNrj6StC00KGpE678rjw02eOC5Z8neegN1y3O7VEyCcOWDD/nOv/wrWyc28c88CZLSXIg1J9esELTMclILa8gQyVDAq/Cge5Nz8uYk5XsaXb2nzVdtO97UM7wup5jtf/KVsbVy1HZTQBQSLcwOVbwUy9d/9BY/vPQ2e9l4eX5Y0CzzrDhOnTrNxc88jLiETEBk0Z4ApZDau9LJXgCa905etJhhUtSVN+w6xdIcN3I7NMawnZdpVmjIqUzZuHNo8/OfFNVWlriXoidT5cq1j7lx86dottgubRVTGXg1a/4uZSKkgOnX+vDfNyDJqFi2E4YW3wI1XK+a0OPnjq0LSeiycKbbLLNxhOlRjUttpk7XtJ7l6LOPbb1RTE1hHkFEsQGM40pQXNn9HHxmhGM6MaJxLCd6jaOJicmIhonJiIaJyYiGicmIhonJiIaJyYiGicmIxv8DYEUOK4CT58MAAAAASUVORK5CYII=;movable=0;resizable=0;rotatable=0;deletable=0;editable=0;connectable=0;" vertex="1" parent="1">
                    <mxGeometry x="-38.00301355698536" y="553.9956623391545" width="147" height="154" as="geometry"/>
                </mxCell>
                <mxCell id="11" value="" style="shape=flexArrow;endArrow=classic;html=1;movable=0;resizable=0;rotatable=0;deletable=0;editable=0;connectable=0;" edge="1" parent="1">
                    <mxGeometry width="50" height="50" relative="1" as="geometry">
                        <mxPoint x="405" y="476" as="sourcePoint"/>
                        <mxPoint x="48" y="527" as="targetPoint"/>
                    </mxGeometry>
                </mxCell>
                <mxCell id="12" value="" style="shape=image;verticalLabelPosition=bottom;labelBackgroundColor=default;verticalAlign=top;aspect=fixed;imageAspect=0;image=data:image/png,iVBORw0KGgoAAAANSUhEUgAAAOcAAADSCAYAAACxQ9c+AAAgAElEQVR4nOy9y69dWXLm94u11t77PO6L72QymVmPrFRWloRSlVSq6pbQLbfc7Z4YMFojj+2hR/4HPOiZRwbcE8OAjTY8sA0Dmhhuw+h2NyB1qS11yVVSVeWLWZlJMvm8z/Pcj7VWeLDWPueSSTLJm1WVZOoGccjLc8/ZZ529d6yI+OKLCAGUUzmVU3nuxHzRCziVUzmVR8upcp7KqTyncqqcp3Iqz6mcKuepnMpzKqfKeSqn8pyKe7aXS/73VwDwyme/5JHytwprPn6S9BHPPemdz3Ki5IHjn/wUf5kvTn+OfnU68UTlvHjxIm+99RZlZdNytMzriJ/vU0U5/mVU4FFfTuXRP68O8elDPcsiOOmOkG7Xk16Mk3xmXuuxk6CiD/4OXa1LH3qvrH739OsThPfff4/rN2/ifTx+tXhwY3j090mviOvXPm4vecKyTrpf/3rlycr5eVT2icr5ne98h3/6T/8rds6BkQUmjgBFP+8mIQ8fQFH5tMIr6/vxUcop+jkuoBpOrpwRQzjROzU/nvV9YPJJkNVTxxVmvWGkZ/vz9alT/ZRixPLP/tl/y//2v/8Js3n3wO/0ET89btX9qz61nz/mnu736cfs1+k1n1NrH3X/Pvsx+4M82lAp0LTQNEKIJ7sIT1TO0WjI1dfOsX32FpZruF+a5c432+q/kcd9ySfdXA8r7LOv4SQHUNJaT+I9nPQz+/NlVl96faTevYrZZj7qzlv99dSiWP7ojxqGo8ssls/+XQXF5IunmlelgmpyBeWBU7F+nQCi8pmr/WVHQSc4RU/4DCVqxY9/3PKjv7zL0bw5kQV9cswpgahHeH+NGH6ICf7zu7Trg6/+ViOER5wYk62jyuNP6skVVBB5djxM8/3/eW6OZ9+k9VMbmFXBRqW/y1WScj76fDz7alXgH/5hxR/9/d9bK9ezHWHtI/SmSnrlBBHJDnc+oXrMIT/BdXlaEUmf/anVfk53UGF1mpWAD+f4H//7fa698685mjcnOuZnKCcYKzgJhL0587/eR++1iFqiOWHcJdBbAEHZkzHv8xozc/aRL+8V8+FPesD9OZGkm+NZZb2OE37yiW6CCNS8fHWXN96cs7WlKEqIlv13D4kfzKg6+4Sb+snfVFVBlRgVK7CoCsbf+y0+mkz48MMbdCGcYBPU1RleKZ1q/lmycvavXC3koSce8U16EydPjnYf+Zt+L3vk79bW+xGf+pjjZgOj/eYIxnT84PcvcOZcSEpKfML7nyxPVE7RAnQIamjeqzn8rz9A/2IP0QGdVRDff7Wn/kCRHB2pYoj8kNf578If8gv7vU+9dqWUj7Ccyf35PLBOdhOfUVIcHFHiiay26MnyV6IH/Mf/yf/Lf/FffsjGTo1oJISSa3/yEd3/8CEvzRwG+8g1STIXjz6wJgxBNRJCoBDDh1ubfO2/+U/5k5/9nH/+z/9v5svFMQDqKdebDn7s8enPl/66fsoy6+oeedR3eZz1+yxJXs9JNkfDo01EuockCmoDBKUol/zP/8sf8oNzStSCiDkxKPTUqZRiGdjcraFp0q5NxOAfseDPFkWJRBTDgBLPV9jntx/52rh6z4NyPGo9mXJaTprmVQJyopjzZJuJoDg+wbe/gHgPIaDSIUSKaaScBrbawOPSHmtF+ayVKQZDedhAM2TWWO5P58xns6d4/8NHWwNXK9E1kryK8bS/7R+Cc38VUO3TnILH/uLTIOYKJVdQa5AIhY0EDyEEFMUYkzahE2joUyunWAOFI6xiiYjJN+jxz32ac6pI2uVRCgoMY4TBI19rVu95aD3P8HmPX8fJ3iN57SeTk61YGaCrHdyARATFquI0bTXxMa76WmWftOb0zQqUIkaMRgwgmrbSZ16vKILFFgViTF6ZrCyfMQYx+Tlz7HfGYIwBax5r7IuiSK95VusZlRjjI0+D9n8e9Tv5NDAZQ4f3nhgjMcaEX6iltEdYp6hGiqJgOBwwGo2JMaAxEjUe81Ye3JYe+EzVp1NOVYgC0Uq+hI8G059OMaFXuZSOSGr+uPf+qnJdJwJmjslJ4tWTSrqEEaUDCayTu0InECQpplm9+tPf7dHPfloipCSRHr8hn/27Csn1rEZjisEYaxyldbiiwBSWoiixzmHFYKzBOUtRFBRViatKjLOf+lhjDEXh2NjcoKoqjLEJZCIBTfEhzepdX82+c4wR3yWFYqWIWVGiEoNHY1zHnyR3P/ZXO6/Hh0jdLFksFtRNjfcBh8VEy8i9QzVyILCx6bh48RzIkNA1tG1L2zbHlDqkdXFMUTPIEj9TOWV1qZLG03vZn9b2J6diH5aQ3bt0Yv0Ktfv1y7N+6i9DJZ/9m/ZxS7qAoglsIcqajIH2TtanPmN9rj/7kwOCNxDN+r0nkxTnutGQYmMbKyWlKykHFbYqcWWFtS5bSijLgsGwYjQeUVRFUs4siqJRKYqCjY0xg9GQwbCirAaoMUSEECDEuFJQEcFk5YyaFC74QPAhWTHV9Ii6AsQIHg0hWUKEqJHgA0oyTirJutddC8sFYT7H10vwEaOGKlq27D6FG2BEGAwjZ85t07QFXV3TNEsWRqjrBcErxvSbhxKzJdWYtMuIfJblTNvnyviqrmCUX5YqaY7evgjVPDmY9PnkpO70esWaEEI1iAomH/D4eXz093q6b7uCcWQFzZxsvQakrKAaoFIQXEUoSigcUlXgiuQOOkMsC+KgRKshUpUYm3aH5IZGIpEgjk4FG8GpYMWAOLwmxVF7bAEi6TlNLmaMkWgtEJBeGWP+VxWNEcQmgxRDcpljRCR9vkBSJhEchsIrtggYH9HQEqMSFEI+XQIYa7BFgSvLFB5oSFbTe1ptiDGimq6ayNqS9+f7M91ao+vHl1NOkk55WifxUe/91cujXdqnk1/m+kQMtqgoqgGYAmtLpCiQssCUFdYVWGNxhaUqS8pBSVkNKEqHNYJGJUggxuTqmaxsIQS8D1jvwUDQY8wrWce1yRUVVPvnBMSsFGKN8+hDcSDHYmDQIBmATLlxZwzOGqxJoYRERUMkaCCYLsfbgjEGUxSYKiLGoJL80CgKS+haJYXAYbWcKLJycz8jlZKU0il0XzrlPKkjvbZez9Mp+SI8gCeKpvxf5SoG1RhMgXMlpnTYqmBQjShcSWEdRWEpy5KqKqiqksIJQkRtRIIQQyAas1KwZFUV7z3YrHArkC4BZkkhjy2nd2NXsV1yaeMKpEkPPUaykUzwENEVIQZVjAqW9DARCBnskSXBpLSTjWBFMEWBrQRsgViLGptztJI8At+hIce2onjMCoB7xqqUL5soz07Dk2OPU3mSRAWxDleUqKtwRYWpHK4qKKsRlStx1lE4S1G6/CiwRhECKYAKiAhWFTGCtRYRg6riQ0iXz7hk4fI1MRZU1xZINa5iy97F7RUzxJB+FyOSwaA1z6EnS6wZD4nTrQ9yu1XRGIhWCRmNJR8DMRhrEQQrvQvtU+zbNYkIKhCChxDT50V5erT20XJyu/F83NbPxyq+1CKCFCVmOESKClcNsFVBURaUgxGlLXDGYp3BOostHLZ0WCJWbIoDkTWCmi2nqhJi2lQjyb0zRsGa7MaSebpmhXz2D1hbUfq0RoxoCKgGVGNyn1dpqaSBa+Q6HzxvBUYVI5HQx62ZBRWIeCzRgBqDEYtxhsJIyvGrYtTj25bQGbpW8HgkrssinqicDyRMJK4g/P7Pi397v2gWMGGua8zg4ZTWAxn/1XtO9lGf8/0I1hrsYIgbb2CLirKqKAYVZVUyqEoK53DGYYxgs1VMdFGTbkwFawwhhBXiCkoMuYQtKkEiMSrGJndWrEGiSfEhCSFap0f6yDQj15rjRY0p7iNCpuEpIGJXiCoqOQ8aiXK8yCCkY0pW8pzzVMADQSRtGhhELIUYrAiFMRSidHVD2xSILFAarO8IMce2T3+yI8eT0euE+EmQvMxJfK6itudZ+qxsz+JJN1gUXdHq+lesUY7PS8/IG/IDx3w2EQE3HFNubOGcpawqqmpANahSbFk4rDEpnpN0V1hJiSOjOT1kCwRDDJ6ogYBCjKgKaiJRhGA0350Gg0npGUzeyCSjs2AkL8qQ+bDp0RuclYWUbJFFEUmxbr85qEqKEck8N1kDURoiqCSrLxavBrEOigRKRQVbGarSUhQOJ0LrljhrExiUGVRBO1SeKeY8zsk52cV61NFO5csq6UZzozHD7e2knGVFVeVHmZTTCBBS+kKImBiR2OfBkwnog7sIOSWRNiVFUJPyvRElqiFGwFqscUnhFUTN2lXVDDZlNlKKH5OdVWVFODD9fS4mKXDvBaPp/xn5NcYi1iFRcbaktENUknst1mLKCnFrJndRWEoTsWGIdwV1WVI7ixhSukgjNqTc6t9yQOhUfpUSBcywZLC9mVIlZUlVlZRFehQmWYzgO9R3SIwY36WNO7N4RMGI5vxhdh17w6BmBcrEmPnaOe2imdxgNCmamnUIo7o2NGIylVQ0o7WSwSCDMYl6CJJBpfQgODAOWxQUVUWlirEOUUtVjTDZ2haupCg9xdBSWKEwlkFZUFooBGI1Y1kmdNpIpAsdTdtiTIfhM0kIp/IiysPRYh8+/LpRAjEGU1W40UZyabOCls7ijE03cU7wqwgEj0QPYc13Wtd4ktzM9EVSwkTzLzLok/KEGfCxmWyQfFiMrr/9CjGR5MeKEUxMYYLN1tqIxRmHiE1OvmpiD4WQYOjgMGVFEUHF4soIsaYsxxhsstbWUVQVw1hSlRVlYamspRDFSgK1Ehjl6eoaZy02P/SzGUKn8uWQL4YHZY1DyiFmOMIWQ2xV4bIre7wPk1iLSE5rmexGSgZF+xRGn9LI0v/PKFn5clJMFZWU1I8ms3pM9oxl/W5j0gqM9BF6BpFM+iwrJiunQxFCiEjw4D0hBmIoUVUshsKVuKigBZUZJ2sbDUUxYjAq8aZkNKqoihJnBBM7jEZ82xG7jtiU6bwYizGJZyz6TIDQqbwo8ihVPDFC8Hn02hjssMQOB9iixLgiJSFRcuZ9xcIRLNhINCahQtk8KoBJuT9jEmVRe+RW6QPBXEFz7NtKznWqYIioMceWlZlERhCzroHV/rnMArLGgViCGjQE8C0e6DpH5yIBRY1DYsQhiBZUMs41y5qrUgqCHTIajxhWRcp1+g4TE8tJvCcu64RUG4O1FlcUSHwG5ZQcTEMqT/o8/Ji+QUXC5U5eV/m3WxIw4Q3ZEvGAZXlYnknH1CLqeHzB3lOIkLi5pSOUFm8Ea8CYnMTP7qOIYJAEDGExzhJiqlRCFelbsRjBaHouxpRHVI3E0FP3VgmQZDVzfxtBiCYR4k22mCIGsZLIAS7nToUVsd2IwVqHMQUqKR0Tg0dbQxDwweNFCDaR1EXBGoulZCAbSJHiZVc4ylHJxmiDrfEmg9JRCJjQYTUSrGOqSqyXlGWJc46iKFBVWv8MJARRg0SLB2yqA+DB8l55yqzhGvAXDIojnmK3zy6S6F6djZjMjjmOp59868xxWiwg2nygExwxvzyI0kpASCR9MnkgxZoJhDE5h2F6i5f5pfSpIlGwGWntMzwx5TtDJickp1hXKCoSc/5yzaNVQ7Lc1iLOYp3FFBaxJltPQTBYY7C2QGwJxuBRou+QTL2LIaLWIVpmF5jEdJKOgd1GygOieMRZiuGQqtxie7RJZQ2lQEHESSRYi3Qt9eSIoihyvJkIGRLCs1jOgsA2U+YscheET1dh9jfIky5kqutPKWJLQ/UZrz+VT0lPXJGAJdJRsaRcXY9P54+f3s/xCHNb4U3fUOzkG6dR0Kh0ITFGrYnHCq9zSiRvK5ZEgZNcvEyMRE2lXaLp/+v6qMTSSeVdIacuDGrWABCsubW9TU2VKxacBevSv84l4kJ+sUgPyiQ3XLPiG2OwCi5GijKC9fn1ijNQWIsTQ2EHKW7OedKqrLDVMP0esJr6NJmoBH0Qouvbr2hGpZ9aOY/kPD+2r/Ax05wL6rA4jndM7XNTT5aknOAwOH7OV5lx9tgRTuWzRUBLJI65r5e5xuts8AqJin38GhzHbT+bMKJAg+MeEy7pWSIhgSufxw7HVBPZETAScsyZLL3rAaHsltoQMolciTHVVRJy+kIT95WYSQgxJj6rz2s0Nn1Pk48oIKa3mEJIPnSywDaVqVE4rCtQazM3Ibm0Yh3GFogrUmxK/l2IuEIpI0jocsoFnEBpsx9o7TFFTzWlpu9Tkkn1KoEYPE1T0/mOEGNeby6TC/Epiq37wAG4bq/yPxX/gL9iBAyJRFL0+TA54Wnix96pNdSU7LLBqWI+o6gQ9Cx/7c/yv4bvU/O7CNXnit571LLq/orfDVcycRxO6igrqdA5BJ/fHlETcnxpVhREIcd8IWBCQHNLj14xJYQVgLRSzuCJISROrGR3V8yqwBoBIwY1QjQCxhCtIVqLWEt0lmgL1BaIsxgyDiUWcquUBBblrc6CuDLVkiKYWAA59SJKKYLiM8Lbn68EPKWNxmTyBKm0zLfU9ZK6XtI2LcGv2Xchp2yerJya9wwRajPgprnCR7xCqmJrOL4zZ/IVayV98CI9/uI+X6VXz6t8yu5JQE1g6s9ww19hzlWE6ljk2Xsi+tBR4PEbYeruVPIhE+tAjoNCJ1hzrhzpvCfGHgBMdZmR/pHWaQWcRpz3iPdIiJnqmhVUk1JKjEhQJGhiFUVd50DzRmJEELFJuZwjWkuwqS9RsALGYsVhxKY2KWTCgiRWjhMIhlyElon2IjlWdTggqsP0LqoErEbAYSWhrqphFWTUTYMLMcW4FqImy7loliyWi6SgbZuagqkSYsA/bcwpJJP7YK7p+L/r3giPU7VHP98r8ql6PqsIrDifMRcPay6zelD1jvNjV+98us/4nM6MqtK1HU3T4lSJURI3Fghieqo5KgZnJHFLfYfLsefKjQ0p5pRcbykaMQoWk9qUSt8gzIC1qE0EAVxBdI6Q//XWEiSDP6qYGDEhNzKLgjERq4ls72KksIqIzSQH8FGJIhjrSEVgce07hvS9jCRE2BhWirZYLvEs8VXBuCqwBIL3NF3Lsl4yn8+ZL+a0dUPbdfjO473/jGLrdIr7/eMhPHZ95RLt+LiSffqqPg7mP7WbJ5O+KfPjcpqPAoXyOx/zjgf/t7LUn0NBYwy0TU1bL9c6ll3QSN+YDKKxuZQKTI4trSaOrYZUzkXMbm12bZMbalCbyOvGWIwtwBVQlNiigqLAu0S1U2NQsXQYvErqE+RTiZYJfZeE5KKajNiWNpWu9Sapv8uN9GBTovWR0z0SJHVBUMnkBsVHZbqoUd+yLCzNqKIyBkLHsm1ZLmum0ymTyYTFbEZd17Rti/dPAITSztzXouQC0thfvLVK6frVabFPATw86rNO5dlEVz1g5dimaTi+DWbM8lhYcRy649ir1rJ67xpu+DyLxDQdMl/mWycBLl6OKX9Ob4hNCrHmzfZEg5wK0ZhSGLFPkfRVLAa1qaDZOpdiSFtgbYHaEjWGYF2yqmIIkjsW5u8uRCTk85iJuoJijdLFlDa09M8LVgSXWUwZvoGY2sSmikpBo6AxezYidEFp6o66XtK0LUNrsBqYz5bM50sWy5pl3bBsGoL3+Ro8QjkfdDR1lU9Lbn3fjEt5UCHXt8BJVO0Up312SVhKPueiDwek+e+HUdrjastDzz189M/n0STSiuIWS8zRLFnJrEhRJLmxQkpjWJuVyxJNLpYm50F7n6wnvffAUEJ8Us2lcxhnMa5IFSKuSIrqHGoszrpksRECQgcriiB9WiY3+1IyqIsQjcPiVySPlWLaxCBC8jo1N5CWTMDXkOJpI3gjBGNpI/i2pV42lAYKDXSzOfO6xSsg2fIruBDpHp9KeUA9H3A9+w5vD7qpa/U6rdH89UjyqvoC4F6ZIp/ujXi8J1/OAz76aL/k9QlGFZY1cbZIg6qyJYlGUOfACsYJxhVYZ/HqCNaikixo31ng+PCs/ntLBio1gzTWFUk5XYnYAmMd0VisTceUXN+p2RsMxJV7oCGiPsfumSRhRFATUp8gSewmzX1yTUybSKL6ZfIEaYNMFOGUI9Z+Q3IF2JJAS+drlsFTqKfAQDWg2thi5APGOrp6ScRQcFoy9sLKAx3mgOMK+eiY89cvLiqm7mDZJtJRCthS645gUWcw0SawSIsUf6oSjU3rj5mAoH2v3pTqUTTR+YwB5zAulW+Jc4jLDCBJXMG+fGvd2CFtaDHGdTPnEImdR31I4aPmuNJ4nBispA4LarNyx0i0JnVFMQYjMXetJ+loRo9Vkv0XW2AGA5xGGjR5DNFQDQsqNau9xxpDYxNCrnyuHkKn8kVLajy1Di8eVNXjyipfgLJmING3SFvncDi5oipCDEIIlhCLTN/MiKuCmnUrnMSvXRMRMltvhc4mIMimjnwmuchiLT2R1/QKmpaUEGDtRyNoBpwi2nnoQu6ykHjL0TiiGKw1iMtF1cakutOYPtNaTWkY+oh/7cNEgWAM0VhMlZS8MIauK0jzdgTrCkpJjbF96D2bZItPlfMFlFWKo08hPDE98sWkqhTFE/GhoezmqKRYU/rWIEGwseB4ZwHJnX/EpNu7T3loDCmuy2itMSZ3NDCZWZOVW/r8wjrV1KPaCikdEzySiQ6ElLIhRKTz4DNDKZPkxeQyLmcxwWGLiHMWo5Itel6vGgxuTReUrJgiBDFQVhin2NKhZUnsagwBoxE3GKDWESL4LiARVIXOPwO39lSeL0mW44texWeIkixUTNlNlb4jARkwMZkN5InBEiWknjwqqMnTuzQVWfQpixUnVyV1yyN1zRM1aBCiGBCf3VeLt6QKkpiKm6PvIARMbo2SFDZZTg2JAKExlbIZE1IPIE2KJ5Y0qiZnJZREaEjsvLh+jr7KxSTer7WpQ6AanLVQWNCAaIdxDheVoukIdQNdoOs6MPZUOV8MeQg9VY4BQcdt5nGSyMMDEr+YGDRqTDQ71ZRrVJOB1tTyMoY0FzTYkGedRPTY15VjqZQeTSVCJPesjQEJPldIgXpZTeKJavAx4hG8Kj5EYuiQrJyimW0UYyoJ8x34LiknCQlW50GL5GqvCHApJxpVCDFZfSMxz4Q2x5Q09xJyBbYn5GugiAUaPSY0aZRjjBQbY7ReosuGZY6XT5XzhZAHR84rrJoik3Nw6Z/jibCeKfTF0jxiTNxaxeV64Ji4rgr9CISgQtDkBoc81cvoMWArF1av0ke5miUVV0bAZ6RUiLanBSbSTgiWToQuKj4rYegtppLofxowMaz4uhJSNU6UAGoIaEaYTUZpTbbqyfL3SHQCvdaJRiQBRuQug0ldS1BPCB3SCGoFbIspS1xVIYWj7wR4qpwvtMixZskP0/f63fuLGhOV5PgIBCFZG/pkva7Bk5BzkP3U16DrNfebjmZlVo35/SHVTSqJVWCUaCPRJZAnuEgQQwt0UekUvObm0VHXCK7m7n+aObw9GIXJ1t0TgyF6S7SCUbdKMWt+uzEud2gIaVyDgGBXnR6wOSUjyfxKJ2gIeePqCfY2n5N0Vk6V8wWVB1MpD7q9z0sq5bjEZPZybJb7BJnUYxZjV0XQOJurSHt31jzwXRKXOHkOaQpQl3iBJlWTBJtI5WID0Tu8GFoFr0pACXKsHrQ/qJJjQE3xo+mbh+mqvjJqKmMLIc1qEaOpz7rkCNRkIoPRVXcHyW1PUgyakWRjsOKIYvHeI6aj33jisdmgctrg68WWJ6dS1q/6opW1t0WpaXJilKXu7iXiSkxRYsr0r7qM4MbUQFqzNUs3uUk1pjGNNIgqxJiaOxMVFUMImlxTE1BjiWLpMisojUZgRX1cobyZPSAm0QvTAFtNP8u64COtKz+0VyhSt/eVVV8HEiv+bWZCpfSOXZW2iXGr7xB8Gg/YD9ZFT93aF1KePZUCX6Rr23+65rhNCpcUMj9S869URaLO5S56D1ahSGYKabRpNGAmEURIQBMJDY49ayqmFpbGwsZ4Ay0KJk1N1zV5FmfuJXT8XFo5RnZI7TFzO77Ub8ikh5HUxcOQlUwMPTX+ge+rvVufGo2FTHDoY9RVjB1jLq3rCMGvJp+dKucLKp+dStHH/PwFiCQ3zTqbLGSZZna6YpAmXJcFpkz0O5xLeULVdaojNwRLyG3sp/XloozEwunBpdRTOnf2I/LK5cu8fOVVJosF1+/eoZl21BpySxDNSpotaO/K5qoSY4oE5IhZdcZLhIeU/7QmTxDLv+9HSuT0LKsJZ9kSh9BH2AIa6UKq29SQSsj6UjEfnqGe81SePzmeSnmepR9YK8ZhyxJbVZhqQFFVFGWFK0tsVaQhs65EbFJOzeQDQlilUdb9biXT7HKsHVNHPnpliArqGY/G/M63fovgIx+9/wGHu/egSHzeNWXoWGRAbiIGICbRAnPza2NS8y0jJsWcufmz6fm2xoCJOb+akYAcH4ecS8VonhYuSEy5V58rbXwIdMHjfRrMFMJnWM7jccv6p3U37lP5dUmKtx4EMFgrp+TOdg+kUo67urJ6Zn2AJ0mfP/08LIdc/GxsGhxbpGnWUlapuXQ1SIpaJsW0ZZnI65KS+j0MqmHdnkRXJV2SO/aRs0wxMXtCQGJIr9HAG1df49J4gx/+u7/g3Z/8hDv7B5x5/VWKM5upZExzHjWzk8hsJcmbSU8FNMZgeraQCGL6JmAuKWXfhCCDdJq5sT4GgprkBeTrZWJM3R+80nbJWqrvaENHFCiHAwbuAro1Pskgo8dHN6fyq5JjY9Xp45nsxq3gh76Ws6+pPa6cxwvlH06tPLoNiaz+eogA8QyiCGodFCVSDaAapHmdZYUZVpiqSkpbFNh+DH0ekbfiqIaQh93GFafWiElgTl9wronI4NsW03VoNNhGeePlKyzv3+beB28zv/sJy4MZW+c2ufTSOSZdSxuyYuax9IlPYDKH1iGFzbWhyZW1WQmTS2tXHdrTNDKbEFxJLU80o8LGWWgjqj3asjQAACAASURBVB2IwxUkbq6NqHpM9HjfQdvhFM5e2GFnPCAsF6du7YssKbaJx1pMxpUCJ3mYQfTrk16lTVFgqipVZVQD7KDADivssMJlt9YVBa4okzUyqa+PSLJkIUQIqQdRnzoSY1ZJ/c7mD/QhKVOd53OGlmY5Yf/Gde59+DazO9dZHi1pdoa88nvfYaKeW5MZbbaE0aZUzKqvrbFp0yhKrHFYk3sTIWsyfc8JzhUyYm3qnGAiSMCVluGw4sJoA2OEtmlo6jmLvT3CckmxaCjqhnh4QDFbEtqWaDtuH91m//69U+V8UWVF6pa+FuI5FBGscxRVijXdoMIOSlxVUhUlRVFSuAJnXRpD4NxKQQVLRJOFCQ4TAy5Gxs4xKFxGVqHBs/Ce1pOKqC0kxzLwzs//mvtvv83H719jejgldoqtGwZt4OVXruLjHe4t5vhcQE0uNyOjspSO6NLvrJjcLyi51DZGrKSJoKJpGK4phM2ipBDBRcHMFyw/uUkrm4yqijODint37tLcuEmsW9q6pp4ccbS/h7YNxnfc7SbcuXWDpqlPlfOFFumT4M+3claDAWY4oBgMcINEU0ujAJNiliZNfC5E0vQxaxHjEksoRKzApjVcKkte3thiezxCLITQMfML9mYzDidzpqIsxOMXnvHAcXD9Ondv3qSezCi9Mh5t8PqVq2xTcF4GXCo3WdSeiURMmZpMG2NSBz3JvW0dIEphDBW5habChhNGpWMwHDAYlAyHAz64/j6TvRvEpqUIQjmZMjoQDu5/wsLA5nDE9N4urm4ZDYfsHh1w/84NDnbv42dTqGs0NITQYT+7b+2pnMrJRURwZUE5qLDDAcVwiKtKXFkyLB1DZxlGoQqKJeBsGioUjYJL/WqtKBdsxTcvXuJrO+fZGQ4pC0vnW5b1gllXcGFYMh8MmTYt0/mUu82MK2fOM+88cmcXfzTHlkPOvfwKr7/1JuPRkLZZsj0asVUv6UJDJxbE0WcsTVQGbWAohq2y5Nxog+3BiFGVRhhuD0pGwzTW0DmL9x3Xf/oj9u9cp2sHwIDgOwYooxiZHB7yo2t/yf279+jalM9M1L0A0WM7j8sFAiKcjgD80oiwGjL1XIkIpnDYqsRWyZ0tBiVl4RhGZXA4gd1D4qKF0ZCNy5ewF7YRN8BaoY2R4aDkW2cv8lsvX2GrqAhdy2I5YbacczSfsljOCF3LwMMAYSsnf18ZbnDuN7/NlXLMm1/7BsVwTLm1w6KwhNDQ1cLWxll2qpKmaVmElPsclRWbg4qt0YhLGxvsjMZsD8ec29hkZzRmNKiYz2fMpkdM93e5sXuf6WzG7u4ud25/iLMNxAEg3L71Cf/X//FDbnwyTQOCo+JcGve3ubHFmZ1tNjZH3L99i4M7dyicpW19Hs50yhB6oWWVSTmWMnnexFiLrYr0KAucczgn6O0DDn/6Lotrv8DN5hQbG+ibb/K1f/T3GI1GUDcMB2MuXbrENy6+xIZ1+GZBs6w5qmccLWcczWfs791heu8+Oq+hDUTvaZZzbh1MOf/Wt3jzN36DS1eusDefc9jULOZpnEjVDSmriq9c2OFrGy8RbEKAR0XByDnGVUkRlbauae/d5c4nN7jVeZq64frHH3Hz1g3u3b/LwcEBXddRdw2T6QGDwQ3+sz/+Q/SVIXZQce6Vy7z2xncZDCpELKPBkPFwyNbmJhcunGVza4N/+S/+T9756V/z1Veu8Pbf/JTd3V1CPCUhvNii62FAPWv1uVJQ1dTysiqxpcMWFuNSa/XJvfsc/s07mBsfs6GeweYOZ7/6dc6VJQf7+1St5+uvv8ErFy8xrkqa+YLlfM58OedwOWfS1Cyahtlkwv6dO8zv7bGczGgWC2Lb8V6IHNy+y5WvvoavCg66lkVMSX6NEHxL5+D1l9/iK195jeViwd7eHkf7B+xPDvno8IiPPvgFd27f4mj/kMVsTuw8bdcxn01oQpdcT+eoBhXj89t8/Zvf4tUrl9nc2ATga29+gz/e+SZXX3qT4XhE4Rw7wzHbboAzlvliig+ej99/j917d3j1q1/l5vUbHBweEf2p5XxhpScgrEuynkNRKKqScjjAVBVF4ZLlFFBrWHY1GxoYb4x563e+zff+g7/Ltb07/OLmdb73G29xeWODgSpNs2BSz5gspyzqmllTs2gbGt/hm5ZQNywmEw7v71FP5/i2pVnW2KjMfIPb2aatHFo6DKmhVoiGOJuy/8knfPzOO1z74Bq3bn7C/t4e89mcrm5omwbfdXRNSwiewhVsbox54+tfZ+fieTY2t9g5c4bx9pjRS+d4+Suv8eqFXS5c/BGiR3zj6mtcuPJ3WbQlVoSBdWxXFUNxKX8rFq0s21tbbG1v8cmd2xhncYU7tZwvvMhzi9MmERgOh4zGY6SocJlt40QZntnCbgwwZck3f/vb/P4//g9ZjB133v6YVzY3+a2vfIVzoyF117CILYfLCUeLKcu2pWkDrQ+JgeNTYy6/bJgfTZhPZvi2pbCWo8NDws1PGLU1ZnuLcmsDi01VK2IZROHo7n3+7E//jHfefYe2bXONZRpbv7OzzeXLl3n58stcuHCezc1Ntne2eeMb3+DC1Stsbm1z9uxZ1ApLq0QxDO07lMVPAWFDSgoKmsEYQ6QUS6GgvkmMJt9Sd57Od2xubdHWSwbDYSI2cGo5X1jp6zmf50ZCYsANKgbjMWLLVIAsaZrX8KULTC+d53zh+P4//AdcevN1ru3d5bd/8y3eePUqVy9fANvRdi3LrmG6mDOtlzSdxwclqKRuEJ0neE9Xt8wXC6aLOaHr2N7aoo4eqRtcELYGY4ajTUKItIsF0fs0H2UjgUBDV3Jue4eLF85y9uwZds6c4eWXL3P1lau8/vrrXH31KuPxOHXiQ2gzASFNEYsMQ2IJleWQUlJtmrHKUCOlFUIXUPX4qEgXCDHQ+EAdO0Th2tvvcvv2bWJT03bdKSD0ZZDnN8+ZCpDdeMR4cwdjLELEhkglcOHlDb7+H/0jrhaOV7/9LRhWXBkVXNwcsT2uCCYy6eZM2obpomU2XzKbLmi8J2a6nfiO0HbUiwVHiylHzZJ5aGh9S1MbXtrZZHvnLNuXLnP28su4wYBFsyRaR/QdFRZV5Q/+4Pf5O3/nB5w7f4YrVy5x+fIlzl+4wPb2Ns46+grNVSiRK8Okp/ABLiZ6pLUF3qexDyqeaNrUOEwsXYwpVo1Ci2MXOFwuqDtDN+top/M0MDgXXZ8q55dBntNUihjDaGPM5tZmHj4bGHSRc7bgjXNneeUbr1NIYLqcMjs4wLYtblwQg2G+8BwulhzNFuzPaw4Oj5jMZrS+I5LIClYj7bJmf3LE7cM99pZz6rah8S1KhVYl5fYWo7NnsFWVwKmiYDAcYUQpVDBq+L0ffJ/f+s1vMRqVqXA6V/ysyzsewsNtGteg2WsR1cSdRYnaAQEkAU8tQo3QiOEAz16z5KAOHMyW3Li3x8Hde9z+4BbLNrUliz0d81mUM9XTPafAw99W0Z7e/ulOCM+DWDFUgyHVeIgLgWFn2bGW1zY2ubI1RroF+5MDdvfu0ewdcHE0JLZbHC4X3J/M2D2asD+dcTibczidsqxrgkasTbS/wgjLxZz9o0PuHR5xsFjiY8yF1xYVS9N2TKZTojO4qkRJbUYKZxkYRxlhMp3Sdi1DSlLj2FTmZpQ8JDqVeqVysr5tSSTkoZ5B0+d5CVQYrChe4J4KH9eeD/duc3+emEz39vfY359y794Bd+7sEvYOsHeuw2yWOyDoqj/vqeV8gaWvTPk8lSO/ShFjMEWBKwwjVc67kqujIVfHAyrtmHZL6uWCZjqDeklZlezfuccn9+5xc3ePvcmMo8Wc2XJJ3TSpK4KxDIdjymrAoChYLOYczmbM2o7WWqgKrCrRGHxUmqZmNjkiWKUYDimKkrIsU+yYH9P5jLpt2GSYDZBJJWSajFIUiJo4tEoqBF84obOps988wiwKd+sDqukeb263lAP4m8mMf/HuL/jJu3fZu3WX5dGcZrGgXTapc71GimZBGRJLSPoq8lyn+gzK2efRTuV5kD7+SQ2vnsM8ZwarCmCosCOOl6sBr20M2SyERVvT+UDXRWJIU8fapubjjz/iZ++9x637+0zrmqXv8NnVs2JwzrG5tcV4c5NYDTicHjJtFoSyoBgNccMKp0BQOk01k3VdE+cWFzyDwShZKFFKa3FFwaKr6aInaEij57W/0y1eLJ2BgKVTw1Jh1jXstp79dsF+veR+07K7UD46vMOZ/R/zn39vytVB4M6dXX7yk8C16xNsG6gPZjSTKYVzFIXDhwXQYUtHK4nqnwo/U8eHU8v5wsvzaTUBQgiUUdg2JS9VjlfKgp2BoVPPomuZLpbM5g1to2gX2J/t8fY77/DOe+9zOF2wDB5PJEpykQtXULoSExWHICEymc8IzrB1/hwyGuGGFaUI7cEELRwICc3tutQvF8EHj2qgMKkDe922hBjTlOy+IlaViQgT7ThqPIdLz/3Fkjttw+3phPuTjqN5zaReMu86ZkuwI8PApcLw0itn1HEeQ/XaVS6dP8ff/OVfcWNyHzccM9woCQHOblzgbNfw0f0bxGXugJ8BqFPlfEGlb7v4PJeMxRipjHKmtFx2JTvGEYNnulywdzhhd++A+f6E7miGaw45OLjP9Rs3uLe3z6JuaWPIrSzTBK7KFWhRURpLU6Sqls4HBhtb7Jw5i9vewlSOCsP9ax9RxDRHM8ZUiK05Lxx8h4Y01t0hzJzlaLlgsxkTfaRedsxmNfckMrWBthiyoODa/SM+3N/j3Zs3KW1ygbu2pZ4tUW947fUrvLK1zcgWlBq5ev4ir720zaHZoBoN2NwZ8dLVS7TDkvHODjvbO1zc3mK4t8vtn/yI2YGlcErXtacx55dBnt9UChiBkYmcqyzbpsD6yHK2ZO/ogDt795kcTmkPJ/jDCXZxn8P7tziYTFJiXgNeIz6DJBGBLiA+UpUFbTvMaQfY2Nzm0ldfZXTxHK4qKb3i7x8QDxYYVdrlEqKnRHG5IVfsAqHuaF3DkSjXbt1kGpX5vKWpA4tly67pmEqgK4d0RcnNvQV7R3PmuwvKM5azZ7dZHnkO7t7Ftx27esAvRu8y/8qMuF1Qbo/YvnqJn/zsI6a3arYuXeLMeJPZbIFvlNlkiZ/NKe58wnAwYuvVr3Bxa8A7P/8Z09n0VDlP5VcoCtvWcsEUDGKkqZccTCbsTY44qucsuiVNM6eZT3CzKfNljUfBppkqEU2zVfrJ0yQgNURdxdpGLMPhkAuXLrBx6QJiDeFohhUhaKRtGjoisTGIsQzKQepFS99xPRK6wAcf3+DdO3OOliCmoiyH7GrDndke9w4PuX1wyGS2JGpqEHa0X9AcnccGJTRLlrOaDw5uc1T+lPnfPwNsp3g3dsig5Oz2Nn7ZcP3ae5TBUE9mtEdHOL9gaznjkrNcufwa22PHtffePXVrvzTy1HnOX29salXYwXGmU6SrmUwO2T3c53A5Z54rOepmwWx2hJvP6EIgGpPmnQSDGs3TptMEac19gyK66iukAovFnHt37nLrYI96ucQfTJkeHDCI0DQN0ZBaJPhE89POE61FWo+KMCi22Ns/5CM/4/4y0nYQPEybhmVYpgbWEiijZ2tjm0sXL3A432P/9o000EwtOzvbRC35xivfZHt7iYjQNTUf/Pxt3v3ZTUpTcXR3l2Y65bU3X2e4vcFiMqGdTrDtnHlXo2eHzGc1XdsRHz92/lReBNHc1e3pS8Z+neBRarw89FA2HYt6ydF0ytF8ziK0NE3DcrFgsZgxW0yRxRx8ICQ8Jc9Pyf1fBUxqJJuG72blDD7gnGXv9j0+vnObWbNkuVhQBnjt/Evs7JzDlSUdiitLiFDPF3mGr1BbR+M929Zw6cwZvrK5zUVbIlIi4lDr6CTSxTSPxSmc39zmG1df4catGxwu5zTGcLBs2Z/WHNVHfO31i2yO30GYs3vnNjff2Wdx/YjFIuBnCwqB+d4+4gzULWMRXIwcHezT1OcoR1VqvXlabP2CS279/1yWjKlJM5qDp2sXmRtbM28blu2SdjZneThhenDIZHqEWS5wQk7E5xmdUXIeN9KP0+u3ljS9LOAKR9s2HNy/T4wREyJlWTIsSjbGYwabG7QKddcmlNaHfnALOEsTOsQavvvb3+EPfue38eWQg8mSLihtAXPxTOuO2iumadlplW+Mt/j2W99hQsdt7fhXP/or/ubja9y8e5fL3lL/Zgtj4e7Nmxx+ske331FSUMaAOIufTClHA4xvKTSiMeCD59r77xG6mvl8npb3679qp/JLk7758nPK3JKohLrm4GifWweH3DuYsDubcLScMz86ZLa3x9G9e0wPDpCuoSosIddb9uazJ1lESbNRenaOD7mlZFUyqEoKa2g7j0SlFENpUsOwajRiUJYUTU3XdLTLOo2ZPzbIN3jP4cEhv3j7fW5O57xz8zatddTGUDctk+mMOracH434/mtfZ37pCj5G9kPN3mzCj//0T/ngR/8fHcLHzZzZP34JuTAmdB3t7Ag/7xhUg9zr0+CPAqUfw+II9QtCuyCq5+BwCr7LDbJPLecLLX0HvudTUiL9aHrIx59c5+M797i7f8TRbEpdL2kWM+rplOnhEbPJEbFrqaqCLiSrGDPo048PREElzRCJMeBDR+db7GjAxnhM4RxtrJE8Mh5Sp3WvkUHp2BptE3xkPpvjuw7NZVlVVbG1s82t+/f50x+/zdt37nM3RuyZcwy2ttkZjtkqS17eOcP33vgNvvvGN5Gy5Ga34P37t/j5O29z+8ZNzGSB29jmcHeX0JzBMqatl/i6xmqkLAYEk8rDwtGUMNmlWrYUpUUkYoyk+LrvPXw6yOjFl+c1lSIoGj0f37rO0i+4c3eXg8MZy+UyNbaKPlmW5ZK2rum6Fh89KjYNq10pJrmBfT/JKytn9HSxo0AZDgYMBgOaxRITlbIscc4hInjf0fmO0lmkMLhRhXZmdexiWFIOq8SdHY1wm1uMcbSuwjdLds7t8Aff/R2++9YbvHTmPNP5grc/+YSP9u/zs3d/zk/+9M+ZXr+Fq5Xq6mWK8X0KY9NY+9anVt+FoTOKMZYYuqSEIWKdxZUFg7IgLObEeZo4RiIwnSrnqfzqxEfP+7+4xq3btziczGjqFh9S9YU1aaKXbxvatqXzaRyBsbIa0ZfkQZddUYJGQox0wUNUBtWA0WhMbD0vXbzIK5cuE7tADIG2aYjWEKJiC5fmr2hCekHSpGvvsdEz2Cg4zw6uVVoM1ka+evECX3/1CqEQ/ubudd7+6GOuXb/BjZu3uPWzt5l99Al2XhOMsH12m41qE2MTy2hjNGJja4u9esGibrDOYasB41GBUxg7i7ZLbAHOpR5DIgFIyMGpcn4Z5DkdXRNC4NatOwyqkmXdpYE+Itjcsd2SqXUh0OVReM7qiius0qPRvbPXj6PIVSGZMF4VJRfOnuX3f+/7/N0f/IDKOP7Nv/p/2L2/i7Yt0YDvOqRwqSwrpIJMYwxqLaFtcKMhm0b42pltlp2wsXGWi1+/ysuvvcLe0T7/8s/+NTfv3uf67n1GW2doZkvq/SPComZzMMSd3aTcGlNSpVYoCFU1YFAOEV8jUXHVkOHmBqPRkEFR0k4n+BjpxBM05XbBrBT0kcrZz6RPkkuRHlP90E/mWL/2VH5VIv3ffU5zdeOu/nvsChx/9uHnPvuT9JdwLWMITKdTuqbChxRHGpOoeP1QoBgCXUiDciUjsEGVmBVztX6RPJpdVnehxjRWr3CG7//u9/jjf/JP+M033+KDd9/jL//tn3M/pkG6se1QPGGRJpUZTamZoihQZ4ldh4TAb1x5lTe//V3ceIdy8yx/cf1DfvLh+/z7H/6QD37yU7o6UIxGlJc89WKeRteXBeOL5zj3jdeozm+zPRtQiiNE5XA65+jgiNBGRqMNRoNNfKfMZw1ma0CDZTDeAL+kVX3gu8EjlPN4LrsfV5Z+iKvLxgMKCdJD3afK+WsQAQyqYVX3hz68YT54HR7cPJ90jXoTfHxDPvkqNSpt22EyyiqSax9jRCRgxKTBsTGNY/I+gol5OFMPBMVVmZbm/KeqIGogCr4L7Jwd8/f+4Pd54+tfo3IuKRuKybP9kgsc05j3qFgBJwZTKd46uqql6zwvv/wSl1+9zLXdA9679hP+3YfXeeedt9n94EOa+RI/byi8clTfoNrZZGtzk4UxLIxiDw8YhI7NsI90FwAIKNZZNjZGGOvQoFSFo1UwOEbDTQptmN/bp/ZdGlkf13neU7f2BZf1EKOHbeiJjvZLWtX6aAl5PTbxWSGI5qleae2J8aNE9RD6fGY8pqDH8rkx50A1GQ4fI4OqYjwaUbkSCywXc1SVwlo6Y9JYB42E4CHEtJdl1zq0LV3T0rYNN3Z3+fjf/jn/5t//mHc/ucXo4svMb9+nPZxgEIYbGwxGI86eO48ZlExmM+oappMjJrt3GTqLK39Bs9xAzYDx9ibnX67g0HJ0NGPRdZzb2KAqKgbVAPUt0jXY3DFi0c7RKKsB2afK+YJKP+HqUfIcURFWcynzj4lqeGx1cWX80wToGCNiZK2Yxw6UsipJkfu6ZGMM09mM/f196nrJwJU0bQekUfGrYZ/H0k65ZDp5H4Q85FZ5/9pH/PzDT3j3w+t0GD7564+JXY06pdoY4QYl6gyteg7vHjCbz0ESwd8VjjFKERNg1VlheP4sgwsdzdEhWlqUwLRecHY4wnuPek+FcOH/Z+9NnuxI8ju/j7vH8pZcASSAArIKqK2runphi+v0cIwzPMhsTkOTmcx0HBMv0kmjM/8CHaR/QBoz6cC5SqIooyRqTCOTkRLZ3exhd/VSKFShgAJQSCD3l2+NcPefDu4RL97LlwAyAVRXNfMHe8i3xOIR4T//7d/fpSsUWcJOWXDpWpvewS57u3vnzPl1pgp9b1Eo5aviHwpDVI0spulYK2at39fhk5OWlgpoq6HNO2HcH3L7o1t874Nvs5x36R0eUVgbOoQpUBKcT2mahs/Oh3Z+Vbt5FY41OepT9gdQlBhtSMYj7HiItA3KGUb9MUNR9A528QVknQ6Xrl9nYktGu7v40T6ljChVQZEKZmMNdWGES49CAoUTSleCL/HlmPHhAaIceW4Q53nr5g0+ePsGn9z+mOHgvD/n156+ijHOirRSaK0icz7Fqdxg0MoZ2TSjVf1bZXs2fowOn5//5Kes5h1uvHGTX/zs5xyNRxQmOJE0IWyjtcYrECwGVTe/VUoHBvUlXiakHcNgUuDo43WJ9ho/EpTWZHkr9Aftdli7/jrf+P7vsDvqs3P7M44++iEDO8T5IiYeZGRtwWQptrCMjwZkSjFpGzQONTjC+pJBCt1Mc/3qNbIsw4ucxznP6dWRQCgG11F6RWAsqhimmrKqqrrixiT3Ge9z9EuJajBvk+K+R0dH/Pmf/zntVoe81cZlCSZNQvlZ5HYxOjiUlA6TP0lJTNroUB26aBujKWxBYQva7RZeEzzIhQVlaa8sk155jau/9Rvkb79O0jvg3devc7v3EPvgp2itSa1gd3oUT47gqIcaHsF4gGjFqFdicOTOk4hDCof1irt37/DwHjx88IDxZHLOnF9rqqMMs57VaTywsdGvgFQDdapyXPmYjqdk+nuwN2OkQGR6XTAb56xUUaXqqILSGp2keDROlRz0B3SUpt3KSfM2Ok3C9jHB3KcOnENJCOmksbO20YY8EXKT0M5yuutrsLRCZ2WFpVYLWxQc7u7idELr4hXc0hqlSrh3+w59O8ItL2OWl3GtHK0zEi/07txndHuHZHdEZzyAYoA2wECDFsrCxmT8ksNywsNygrc2hH/cecnY15qqvNOT8t5f1Hf7oiSNaKkwLZJWEvDtpIrSxWR2mCa6N9V1RXD86Lq9uwatEa3waYrkOSoVEmVQ1iFZC7IWSbtNnrfQRuO8w7kSXMim14Q28okOIF+JMizlhqura6hkhGkZLt18G9ptlpVmLcv45O9/zOHeIWl3jWub7zB50uNg+wsKxvRUCf0e7TQHbUiUojUqWBkOGEyGSNGnnPQRcfiJQpRQjkY4a8P1CYCDGHIyxpwz59eVmo2MYjT6xJS3XxlFvTTYir5WSaOvtN5mZnGJSoCOeD+iI1BlbRsqjNFTJk0MqpWHXNpuKMzWOiHttMiXunQ6bZIkwTpLOZngygK8RytNogxGKRJjSLRGG8OVC+tImqFamvTNmzwZDhkPRvTGQ4Y7OwwODum89T7ZWoficJfR7jaDyT7X37jGTv+I3JV470JFjXP0+4ccHQ0YDkZMxiNELOAhhpiMVmQmIUkMqckwicFoc17P+etFs17Qr4KbSCAWR1OXtonEsMb8lpWqqqbqa1BlKymno/TUaKWjPatQxkCWknU76DQD0aFJbZqQLy3RXV0mT1OstRTDEcPeIcWkCKdVTI+pNXhPphyd1NDSmkHviN7+AelgwoNPP+Vod4elKxu0L61x5+4t+rfvYPo9clUwevQQ2d1mXPQpJgHNbzIp2NvbZXd3gLUeJR6TBEeUSVNarRadPKed5WRJQp6nKK1w1lGW5Tlzfl2pQt+bxjrnE8S/AhSZrZKG04T2mAEk1J5cUQQGjK+qUVPT1tRRYtbHjcgIymh0mpC1W6A0znqMMaStjLzTptNqId5TpCnlaBRa+9kQ48QkiK9CK4IrxjAc0vKO/uoBy50ue3t9Ou1VyrUrdFpLLO/16d+7i3v0AIohzo/Z+6JATwoUDu0UWhkcjlFZ4BSkrZw0TWm3crI8o9Vqsb6yQreVk5sgwZHAlP1+/5w5fx1o1vnz1SNVqadRavrKJRvTYJQOQF6KwHzGGIwxQao1HF5GG4xJQmhG6+AIUhoQvHW4osTpAqWT0H3MC64scZMCSVISbdBpThpLyVwE97KUGGMQ78iyBEHQowH54RG2bDe8ygAAIABJREFUs4J68warmxskWZvh/i6H978gOzxi8uQRHOxRTIY4W5BqhdYZ7Y6Qa40WQ3ulzeXNTZJVwejAnHmWk2cZaZqynCfkiSYTD95RTMb1fRNeKjSmNF6npa+CEnZOL5uUirZiZV7K1FsbUoVC/DG8DU4QbXSNoaMqT63SMVk+2po6pviJYEtLMRqDF+y4RKuQFaS1hmKCjCaUS0t0Wq3YH1SRmBRvHNaXOOvw3pFoRZYlGB2AncvJhPTxFoNyzNhaDu8+YvjkMW7U4/MHJaoYob0ny1K6Sx1WlpZYW7nAxnqXTicDYH19nbe+8T6dfYf1AT9XeUFLBV0N4gNgmap7pFCzw0tjzqmpf3rmVI3/z+l0dCzu91Ui1YhhKlW1BIrZQFUZ2JSJK7tSERMHojprjMZUcJaRwZ2zlGWBHo5AFFIUdUu+ivHHWjPOe4y7XZaWurTbLUSEVmIweY7VCqtKBB+15GDbIoK1JSv9Pr53yKNbtxn1ByhvyduGtJOzvLLK6uoaa+sXWF5eYXllhaXOKmtLn9PupqAUSZaRdRR6ZMEKyjuUtXhn0V5CumK1YHmPeAl1pj44+F4ac6q6zOicyV4lVUVT1QRH5CvJoLUPWQXQkCps4iGOOTb/rdXUaJtKSIX3ojAVs0YG9xEJATdNpFdKB/zZJIFYihYqpMJMnJiEcjCgHHQpljq02u1gj2qFSpKocsd83hjGEBVqUVU5ZqPVotdKOCrApG2WL65x9e0bXLy0wfraBt3lZdIsSEorQma2UWm8TmMgA50nmMSD9YieQBnaIVYqhQ/u7Dr7STyol4chVMm+szLnWdXhf4hUtWKc9pCsvm+Smtnj7PQiS61UKT6ENLrQrYtKsDUcRtFuliA5hGBLiplmFfk6OT5cjY0Z8wWhJlTH8ANKg9K1w0krxWQ0YDIcMB52WF5ZIc/zmLkkMUdXAuKR9ygdPLhOCcqWdHSbzdcus58b8jzn6uuv8+5v/Sb50kW0SgglaQ4nFq8t2gS8XYvgjYIkQaeKRHvEOJRRoEqUs2jvQvJ91ApANSoA9blD6OtI1cSrMsdj6x2a0Jiz4f9fHVXJ7XUKXgzIVhXAVbs7iSqreAHlQ0xTonCJakKl9oVjTe+Bdy5I31iM7evDhplutGaUDhgNWxTjEa1WmyRN0MagjUFpRWISSpOQ6Gk1i3eecjJhqdth0D9E4/FFgXhI0hxUGgvIPUpnkFiypIM2w1AsrjVZnpHmhFXJ2SBNtUbbBGNLlC9R1oM2KGXqheolxzlfaI19aaP4h0TNsqrZjJpjUcQXprM+3ZmYpTSylqKtpSNDeh0YSXsfxq/jvn6abCsxcF9Vrngdwb6sqVXfOjTjhYAVFCWs1hSDjGI4pJXnpFlOmiahV2eWkuU5idGYdo5JE0xqKN0E6wranSWWlrr0Dg/ZfrLF5u4Oy+uXIW8Boc2DMoo0tbT0KlqXoVY1TUk6XdIyxFBxDmwJZYEuHdoW4VVqKMJioEwSbGf1UiXniypP5wx6GlLNiXgsxvkyQEZeDiVJmGKBQQO6Tv0vMqiqEuJ9aPenlKoLjoN9auIMkUZVikCE0VS4mjFrPSI6Vrx3UVIrvClw4wmTLCVNUvIsI2+1yNstpNMhSxOyPCNrt+h02uyP+hSlw/uc1dVVer1DRuMBrt9DY1GpxpsW3qQopdGZJVFLwAFOlahWi3R5hdSHdoV4D9ZCWaLKElOO0WWBKgxiNFoE4y16PEEVLy3OWU2Ocyb7MqiSjE1YzHmGfDlPYYoldKYAmVJkWRZtY1UzaPhcx1dmqlVCcyLwytehBZFY4cJ82uL077SQGlRkevEecT6EKVD1Z2ctpSmwRYlzrj5Gnmdk7Q4mSck7Hfy2IFIyKSa022063Q6T8QRQGK3QicGbJECQKINKNEaltSqfZhmtToesAO2iym5LSEpUajGFRiUJmGCPa+fQZYlOUvR5bu3XlCr3ZyVlGgx0ksQ8ibnUsU8vb3HVOnSidq6Ce5yGR6psoZpNgyAkAJRMff/4gM6uZepwlIgnNDNSkboKTVdOHi/Nn3FR1fVe8BGuRCkdnUkwznPyzohWu0OWZigBsZ5yPCFNU1ZXVhmlI7wPebptFSpbfJKATpHUo8lCaEjC9adZRqtlKFxYbMQmkCSoskQrUEYjJly3WI8pLSbN0CY9Z86vJwWnyTRgETBYz2YZzjqOfGSLYB/KC8G2iUjMxLFAkIgAonQ8mw59N9F1lzRPAAFThEJt0SAuxASDcFRTxpSpQh+uPrBvMDPDyOtSUTUdUwUU5p1grcOWjtJYxuMR7eGQVmrItMYoKKylnBTYvKDdbeMkZTDocXS4Q3rhEipfwZgMTIokQtJkTiBNE9I8R7mAVi9piiQJKgkJEZQKMaFeVJwjKUtMmqOT0Tlzfn3Jx5dBkaBJEAyLJF+UNwuPMmuQhDBGxZLaK7Sour3BaUgA7x2TYhxCIBHGPDC9RsXGRFQNi+J+TgVvrEbhUWjReCUoiR5cGjZ285IU6MoVXDmeYr5u9UEheG+jY0mDdygnaKvQTihKQ1EMcC4DCsRbynKC1lBODHk7QxsYT0aMhgO886QmR0wrMKdyaJXFbuOEVMTEkKQ5ygSsIucdGI1KYmzXgGiCaLclPi8wWYZOX6rk/KrGKr8qrpGXS8EhJDH3e5oit3DbpzybWYRaqfNcw3eaKeTp6Z5tlIeURVE/Aq00vsrGQRaiG/gmGJibwpwgszb2sfNVmLYiU6+wUnjlojodpHJSca6OqH/K43CUYkl8ybgYMxqPAiqfC8XQ2mqKosSVlla7RZK38F4oxhMSFStjjAEtaKbJ+WmakaUpaZaFmKZ3GG+QxKEjc3qjEBOzopxDihKT55g0e5npexK8Zl8qVarcosmnGq9fB5ptWiQolBaydsFS+whtewjJiRLy5KMKRqp6UMF6TZoMSY0lSz1LXY3S6amXXYWQ5Rl5FlDeUxOkupcK+87XSnmTNEElrE5Yp/9RMdwizUCBkpgXVEnQqUe7Uoc1kJBM0wVNsImTxJBkkGYKbRzej0E52h2DVlnw7LYUSSZ0lzLydo7zh/SHW2SyQStLUMYjpkTLGKXCAmeMJstScpdSehOym3xA/dMuBW3w2uBM0Ai0s/hJQZLnmOy5mNMjyoMCoyYk7FHhqIXsvxeXmOFhnZ5U4//5cELDd7dwT/WleZYr9bM6cyWNTqbjI/ZoRiR4jHJUmK4+GfGP/7BL3t7FFrd4moQ7uRtZVBnjJ+cVJtnlG++OWb1Y0ln6JqU926KbJIasggmJyQPIVGIGPJ/ZfSpb7SQJOdtfoNlvQNX7qbDhtOys0nGhhkdBBQ9wVZ6mtSJvt8mzNKD0OU+/1wnlZ1phjCLJQ81lmiWMjSZZGbB0+T5Z5zA6tkpaPKGdj/DaorSgtZBqhSgdFiYdLlprqXNoQULf0CSosypJUc9WazVgAM/Vq44/+heeb31gsaIwptp16m1rKCSnomCgn5VRnrbfSXZWlVr9ZajiNjpvqlPFTJBTHkOpjN/9zXXW18Pz8BjEDPmD//CAP/jDD8HfrrNtjpECOZE5ZylUTJSg+nxTj/jDf3aTZy0mJx7rJNhOFZisYtK5oU6rWKaTisY3kfGqrafb1c6rhlob/jQ0jmb1x8yJJRZx63p1FNvFC8HhpqITTrlQEK1TvOoDt6LdHCpOEFD6iLHOMd6TeD9dbJSPnupwem1MSMJIPbpM8UkSkhDS4DB6OnOKqqxV3njjCf/yj3/IeHwBR4FJDCLNFfXs6uOXwyQNkuabL+G8lVpWP5jTn9MpoZV9QattsX6NH/7ggI9ubQFfIPJLwiKqF1/OAiY4iVIPRg/4/j/9gN29PX758weUxamHCwTmNJqG9AokUaERdfxO1LrOMWCkOc9s/K8Z+1QxwFgtJcdVYtBVPqCA0sFUrFT6NFUkmaLCoi7GGlsKzkst6U0uZC1Fq52RZxmtdofu8hpJ2kKrJJ7TMNIJuwcKb008XcO6rsauFZhQ+6lM9YoM+uw4p4Ao/LiFcwcsLf0l3a7Cq0nw6Ck7d1ufk6ILfCZwfAbefiZmq5oqzLVlKhKkpujgQXzFzBk8qEFaltYDBak5nRIvkjA2DlQBLqEsNjnYfo/Hdx2okMAdrsm8sIVtvEalO/R6m/T6d9jZyykm6rj++RykdQjWqzpJNl5PJfr04mVKSxXQWUDRjtSVLdmMBIUHHPed2p3hbxhHc6FQAYIIFDhnSTNLmnmSJKC4j0eaogTrQiH1//3vfsL23i4rq20uXF6n3emwfHmdjbfepLV6gTRtobXG4LFJyUAuMPCtoBV6H/KBqdRpQo4thMwhbcKAKnQLfUL6XqUaiGiKfkr/tmHJCPo9hd9W6H6K1ikzE1uo4Q+fTmrGVzOhxYG+yFDac9tVHoHKZlvgCIgey5PJzzoQqriYKBQpIpWqcTYJWsXSQFBqMcOJVCVMmknpUZTk6WlPpCmTfVYvHrK65NG6zz/5pzf4J9+/ivYpWplYnBzv02Iz++lU/e4FSa4h2RaSrvD9f/ybaG/qOORpKHhaK8k2x5zRiXP8WtW0RwMsXLWbECbN30O1ToOx1ew+08QEaRwnaDPOWURZUCEVUKPAGTyWUgxZfolbP9/m8zseinUSs8F40GHgrlKsv0M720TLEjoxaAUiE5zKsZJgvZ9ej9YRsEyhEwU+YOV6BdYonFZYDV4vSnyfix1NBg730YiVrIDllMmf7XL0k8cYbdByBmevIoA+xRt3hzf5P/S3ueffPnn7kxhHecA2NzzFMHRQ2ZU78zFCkMpEDcI95/6nb6+ngXbnh/yL//gu3//9CVmyTbb0b3ny8RPkxwVLB61wbrV4EZOn3MN5l5lxnv1OyvIf/CM+3HvCrY9vh9szx5wzPHOC2qOVROSC579ejZ7qvU+9T+rYaYN7yE8XqZnfwn9SZVZFb2oFi6KNQieCSRVJqmNs15Ok+7z7zStsrH6DJC8wOqMsDOOBJRGPPywY7x+h10skA+1AjEZsK+YO21BNI3G6Rfu/Qpn3OLx4rHgcglMKrxTOnCA5Ze6diOAd+O0S/9cPmfzvv8Dz/NPx+G0NL4fiY+B/psuHvDt37oqaOSrzZ7MIlrPVkcZAOA7BPnPrRRTWNhPH8bwezdPn3CjgQvfnfPCdCd//faJH0rD94TaT//YBVz9JMdHBtYgFQ5L5ycduOmGUCLeWO9y88Mf85S8sf/pvbjMZjRfvvIBBmhR6YCYYY2acMk1nzrF9CDFQMCcyfTjGAomKUHU4mv+1BgnT0wJuYwxJkgRsnzwh6xg6SyndbovUJHhjWdp4zH/62hKXNmKivvfgLZOioJ1alLeMB31akzGuXQICEXqkbltYJ/EHuJWQjCGI83jrsaXDlRZvQ2phBVrwVNFXeV+F2NlJMhKX00GdckpXXrXKxgyqRfAFZ2hWcKzXvzTP3jAm5r6vrEjHQmnxzDFpVMyokZljTI//bAXdxDoL32DO5vhO9M/M/H0WKaD0HbxVaClBVWEJhR4UmIOSlCofdfG9eF6l3QNurPCjjOE4Y3u3ZHA0OtMqXDFnkiR1vWV1PSdKWyBmusdv1DEV9TjVWbd1ut6x+xBV1dBV20SzTpMYR5YJeUuR9w3tQcKo26Lb6bK0ukSnFTGHXEGaBOR47z22KLFti4jDDfq4YoTzDk/Vj8XXvUS9E0QFpky8J1UKLw5jHZQOax2uejkb1Fx5FsBXbaOBE0BliMpqifl8Sq2aeVU+K1+vD7GXBbb+Jp585gjNb6Q+mqJaZ09PFXNHFTceVeaY61nHmG6tZ/ZXx6fHcx91EXmCUFAeVOrC+3iwqgTrLDQ/Hg3krtIJfLTjOJPfLHimYzpg1OlqBn1K3DUgFEy3e+YiqaZl5iH76GQl3kSbVungFNTKhGfn4+LmQwJ6YhLWli+wsXxEajxWRiR5UHWd8/jSYp3DekcyGuFGfUpX4iWhxNXPw6MCyHz8nKqQBWVEkRQWnMWVts7xtaXDWovz7vn4K8SRooftuMLAvLR46o2M/+uaLUP6FHXydrVizkvIasLP+minmZ9qwR7PvKr6uPNX83zHaO4/xa2ZLh7HjzF7ruc7Q20y1ptXZ3h+OilSKYvex8FX1ZFnpXoxjY6aEJaDKgTyNKp/l8Vza4a3622q2XFcV6gSD6Y7q3psAf7E1zFQF4u6bfSPBI+Rih26Q36sdz62eHDoYoLtHwVpmmU4PC62l/AovChcPJ9HcMqTiMJbi7KWsrRYG15lGV/2OZkzXPa8elndMDX3eRGpY5+mCk4lR0/epzkVm1L0+MSvvn8e1lw8zuZZnzaBFrgbju3f/OXkMz//EiAqSmaJTCPNUZ58nIYyuYCE2adRvTs7U86ed9EpGwBfJ/xeyQOopKwc22TmXDUOka9V2/mxVB7bChStiULvoye36sRdOk9ZllhbAiHElOsUozTOuQDJWYSaUJ2OGe7to66NsUkb5wXHlDlDAwaNiMc6TaIgBbx1qLLElmWojLEuVMGUFlvaeeY8WV4Efb5kGttsSrmn0eke9Anr5MIpPTtaObZuPm1SSmMazh/j+PhPGut8j5Jq7V6cTDhP/im/ze4dahwldP0JSkxdYjWVF09jv6cdvbmnWvDd2alSY6NJ00hqD8kAi85RceTsUkfD8HzWotlk3LBbVegdKNTyTKVt2CfCpbjAqEVRMJmMGA0LnO8g3tFK09A/88hRWksxKRhPxqishfR66KLE5Q7rY+6wCA6FVQECM5iDjkQHpD5nHbqw2KKktBbngspsvcO6Gcn5rIchYQ1QtrHts1ftl0tPUzbnJfh0IiyS3DR+nX5q4grMS5LFo2iyc2W1zh79+EQ/6fwnUUgfIx49LIpKNCKqMRF1fe7TP42FcmbB92c5bCNhX+L9UlWn6wW7zCtmM9S4owvEbqj5bPoz4mHCDjP7zUZrgqSuMGQFobQlthwzHntEMkR8RKRPELFBrXWBSXNrcUWBWBvDIip0VPMxNEL05ysATykSfDjWhmR3Z8O24uMYCP1env9On6TWvjhjNu2zk6dD827Ou8qnR5Bj7HSSJnD8m2Yy/Dx7N2k6ztl7oRaM4Wkq9vPbnMIU9nF2/Ce7zU5L84vbS5CcUv3XWOqk+voktbahzz5lrCfd19nnNjsL5kYC+JjnHGziSnpWccmyLCjtJGynI+i0ni7fvgYcc0FF9SEU4jxYR7BdAacUpQJLyBIyBAZU3mGkgtpW0yJwCdhIr6DYehGLnc6B8bStq2m/OGRQqT3zj+f5J2xTep5Wws3vf5bz/3rR1KarPsP0nizkQWEGpW+emlJ48RlBqereN3QZEViQDFGPTRFNhhhrFKG0Y8pyhGBDskLVCgJVawEiAZdIvAssXmMh+dANG08hUCihjOG2JErThCDBddDhp/Jegu18CuZ8HuaSE94/j1013eu0a/bsPk3WON0xFr0/zVimU3ARg/5Dpy9/gaoDDMdGItFmV8ekdJVo4D14b3G+RETVFSt1Tm+18HjBO0dIl5bgkI4hb6+gVEIpQimeMkC540WBMlgf7eqY8Cs6jkmBejWg0s1V8nTSEmaZdBEtksmLfjuNwr3ICXWaqbTYiXXyd/9wqOkQmv0eWHiTF7nkXuD0NFss1PqUqDqWGlD5Ao+GbJ6puupdkGBQ9XIxDfDqavuwLTHjRxRxm+itVeDEYb3HeRtV68DkpUiA7yQkRKB1qFKJKYWvEEPo9E6F5iQ/zqQns4A64bfTPOT5Y5xuX1i0GL0qxqyP+1KF0bzu8BJ8CVUO6Zw6WTHs8XrNpp0+rwvFkS3QhWecQ3XFU+PQInUYShq2ro+2X4DRhErVnjIooY9nFMFiNOgEQU9tUxfU2gqTVvy02a/yPtRrOo+3Zcz8CVfulcJGyS0SapeU0og2aJNgTPKymVMt+PvsKTq/Vs46YtTMd/Pq73G78PS27Vlsy8VUNxl4+RRtnKqgWpTU1TSNhnJnP/ixzy+BQWPN4onZQAsPL40znyRF5+ZLg2HD82w4jCqVEaKknJ67jnNCSCzwhqpfCxLRlJQCAv5PoRRJq4OoIc4XARUw2pvK2sCcEhLvlUiE8yTUVjiZSmgEqxxOGVSFeSSh/lW0QpkEnllsfSY66+Q8yZFUTZMpW56cX/IyRMlpnD+BZkdTZTq9bBsrZFOFAuV55pmGDk5/1hO8Mi84/mZccRr8r77gmK03/U0APcPQpxpJ7UyaYuTWUeDGmOZDYOJn450qjjck7YcenmOvUHkHT4p4G6StC4zrfGiz4IsCUUHqVokOeBBLjHUGEDClPE7HxFEVXyZB0gTJDJK+Esl5FmXuWbd/nnGfZpc8/6N8UbXzZYzhLHRc4r+MI85/frFraGbfLIIGmUkMVJVWEK9J1V+f7pyNc89Kz+mPUuXhVpKzmkt1Dm9D7fXBs6N1EDheGTA5mBxXjkPCgg1hFOstyWiEGYzwOgEFRkEqCjexIdQinhIfi8U12niMURgV1FqtNInWeBOAv74WuLXzjp5z+nqQiOCsrR0ms3RcSxKBkHCha6l32vNVan/FcDNICASU37poT4FWAVtWEytoTEKSpKRZj+zQYtWYyeR1lFI8evSYe/f6HBwOETtgMnQcmoTsYB+e5OgjQa18hlcmtDskOHuss6GYGt+Qnoo0MRgTeoSmNrRsUMUIOxlRDgdfD+aERW6aL981f06nI5GQn7qQxeacOND0pkJTgp3yrAtPUX8n01k0n+Zn6prP4JXVxnHYd/T7EwTPF1885OPbT5gMEhLlELEggtJgPdg7XwTJOmPaRSQPo6afq1pwHXqJggrAaqFJaCw2e4mdrV8+NRW3kzy/Z2XQZwVsvoxjnN4f/LUjCf8t9vssvm9Tc/TkAvGnkppjvrn1/KRjVq41RGLBt0dZg7OV/BNMovHe4USjxGHjlWmJedJ+HF6LqHz6sBeB3DwnczaM6sZ3x7c6HVU6/skRwqaL44RY2deSQU9rMT7f9i/jil46nWEwL+ROm4/OLAjVPOtOBht5dq4rpTDaRKfSrLPqTIvIc9AzmDMMRASIYE3Hl6PKeX1yvG+63ZTRqgBA6NnYzGr1zE6z5vFelgSZZ/iz3N0XOcbpwz4REzzuVqGmh7tewVQ3i4ybo3ked9uUVO00+Yqx+UujE/3TjSnqJUhEiFygNEapump3/v6+ijvVYM7jTFUZ0QH6PwWj8UpTkNR68XT4FSbBScOcsq+iQu8xWBSGAsUkTsBqEmqmwl5zfM07/QQ/Ti/rGK9W7VT40BNFhzBDQBYQCm+wonF4SqaWTlVG1hxh8+/sscP/1W8ajdNJAKGSV31lXz49jYkk2rr1VTeZk4CiUAmSRcA2L5vmJGfzNAEFrdXt0vn2N8jVXey1Mfo/+Sad3zKhPLrZ1IKqV8UJXrmYyygEQ90IWBTvcp1/ydv8c5U3tp+PlZ40RV4koFDh7bzYMU4b2JBjn57n0Ro66Vv8B7/zMejPUWJAhKvf+QD7n/8hyzsbAeBLxWOqpslQnWnx+CoGrCSlRvFmkrP6G9/B/fKnMd/zHwpNS/BqeJQGw+o45Stk3FdNJ6i1YXX44sFD/vL/+nfcuKZ45/0OWdvy2VubfJGvI0rwetHEEhYW5cl0AtdBdBG8glV+wbr65fF9XiH9qqRCrT7NfPN0UkCqH7N88RBRNo7d4C+ucPu9Nzm8cjN4/Sr83cXu0RMHNH1cU5Z2tz/ilx9/TGHPhkz4daUq5XCqvdW/NAyYeUPglau1zUGEgdz66Bf8N//1f8V3v3udP/7P3uTKlRF/9r/8r/zFX9wBQouA47svkgaRMWe0yDkUAdW05L8c5vxV0VmYs5sP+Ff/apO3NjdRStA4fvrjD/nv/of/hzv3Am7tfJXjc1vDcxtoQjbL1vYTyvHkmeP79aKo6KvZ+yeVPHnlyuyUFsCUTJ07R0c9Pu4fsLRU0j+8zsYF4cnjbX7xyw8JltC8o0ZOYE7mZ2Rjt18ll/wKznmWdUdgtQP9vcuY6PYRLPvbe3x66zM++oyG6atm9qsVl1O4FF+VJPj60KyZUuXDVnm485LzS7I5p8Oq4Jan7Bf6U1SpTMfpGfbTr1JU/RrQDG813tft1Kv/5u/zGW77+ZOaOspqkirEcny7ajF72fftRMT3hfjlSk9zE4/tMW9rnpL+ocyIM1znVMGIBoei5soaqZ0Gg57TC9L0Jkp9U2Wh9jEVZC+fjnlrK5dAkwGDh1WhJUX5KuBR2YznStCrphnbMaquzRrmylz/dXkSv9pr8IhovPcoPM5JKCVDIl7QcRn5pam105NNtWuhap0QGvc0NXLV2O7XYmZ8VSmqVbXqOuNc+/WhX+UUamIdOXGhC44F8QYvoeZzYTLiK1oVT1V8eVLezzmd068XNcTTHDjZl0mvqGz/nM7pnF6UzpnznM7pK0rnzHlO5/QVpXPmPKdzei4ysV3g8SDiq6Jz5jync1pI0/4BAaHLkOV5RHyfZUkvr4ZJz5nznM7pGM3GMgMAdUKa5tMMubksyVdB58x5Tuf0HCQ+Ir7XAf5puOVV0ZkwhIT5teWcXjXNFux8Ccv2q6JnBcZfxvUsOseiwovnGET1Ts+AY5+gxz7nKZ63AOsE5jz5DlUAuHX1Sqx/m+0mdU4vlUTQBpSpwKYUXmlKFE4R2h00Uvie/7Bf4vNSCjShVlJ8gMGMLd3rUXghYuHEuVVVhDDzuT5k3L/arYLTaWzRYMo5JVE1P0s0LSNSXvzKI2RaSMSCcTjjQqMiHed8NTKRsN+iyiAgYn6G37WujVSVZOHavY33pzHek7uMPeOhKcX3fuN7/NEf/VFo8KLPmfNVkhJPnu/xu/9oH/QkwPorzfd++3v8F//lP+fg4DIiZnFq2TPoz/7sz/i7v/u7VzDqAMb87W9/m7fefpusnSNK0e/32Xr0Bd4L1joYFqKAAAAgAElEQVQuXrzAxuXLJElCOZ4wGg4obcnNG2+wcekiR0d9+v0+iNA7OmR7e4eVlRVWV1fRWsV5r1leWWJ7Z5c7d+9x1B9gY49NkWTq2JEoULRCacM0OTkw5NrqMpvXX2NpqUurlZMYxdXuI16/CmIcv/sH3ydZ/X3Go4xQswWBWyF0PQKTmBoIzHuH+GYSvZBmGV88eMD+QY++U3ilQDm8CEmWoUhJkgSjFnYZe74H/N3vfpc/+ZM/iXD105bipwUCPqdnk8IBnyDuf8IVP6mlx2/+5rf57d/9j0C+xan6IDfo/v37r4w5jTGsrKzwO7/7O9x4602SLKPXO+Rv//YHjMdjnHN0Oh1++7d/m42NDSaTMfu7uxgFN2+8wfvvvYfW8PDhQwaDAb1ej/v377OyusKF9Qvs7e/RaXfpdDpsbGywd9DjL/63v+TTz+4zKcOEF9G1lFSoANIVBQpVy70oLa9vvsb3v/97XL1yhbW1FTp5wjJ/x8bGXyNe+J3f+z7vfftdnF0CKoQIPa0QUoo0TUmTFJTCOYtzLvBIlLBplvGjH/2AO5/fZ6tf4IyBxOC8p9VqoVVKq9Wm1W6dFbd2yojN19eNnibpv1rXE3Qi8S62pJv29agL5J8x3pOu9VVqO0oper0eP/vZz+kuL/Pa5nXW1ta5du0an39+DwHGkwn3Hzyku7RMu91CgHa7zXA4oN/vsbm5yWg04tGjR4wnY66+dpUkSUjTlPFoTJZmOGcZDkdcvHCBlZULKPUEkTL0zoTQh08JWgVzQKPxM0wVwiNl6UOJh9KRqYO54L1HvMejQt9OKog6iLo6AGmWY5KE0llAhXYNokh1QivLcT60YvDa4I3BtDqgEpyASQKInihBJ4aslZ/GW7ugVOZcjf2SqMJeIticqrKNHIvhiBccYW4h/TIWH601y8td+kcH3P74Iw4P9lFK8eZbb7K6tkZpLSZJefjFI7YeP8F5wYtgfYHWwtbjh/SODlhdW2FpeQnxQlmUgJCkhosXL9LutIMUVFCUJXmrgzYZHo34yEwieA/OCc4J1gvOC8770BreVx1TGi8VIEKdDrzto70sKjB1BfIlaJQ2GJ3Qylu0W22SJAtMLUT0eBM9BVU9bugkJlrhvGBMQjtvkacVQ4aF5DyU8rUhhZKq1V+F5//8zPmrIO89SWJYWenyxcPPufPJbSbjEctLy1y5epWVlRWOjo6YTAo+uvUxW0+26S4voY2iKEfs7W2ztfUQ8Z6NjUssLy9x795d+kd9ytIGc8oLxhjSxDAY9nnt2mW6y128gJXQm8RHf4j3gnMe6zyltZQ2NLW1hBYIU+A5al+SV+Dia5G3LWANKbQJrKSNodVqhf4rUc3VSmGtRbwP4Gyxfb11jsKWaA1ZntHutGm12iQmQS22OZ9G55LyV0tNQIyvktq9mKqms1X3549v3ULQvPf++1y7dg3vhb39A0RDfzDgo49u8b3vfsBKN8cYBR72d3dZ6izROzxgMhmhdTjecDBkOBzRauVYGxg1SxI2NtbYfP06ewdHHPVtXQNbIUZopXD4Ggyygt9RBAZyLjB0FY2opGhd5A5UPT8b3yAiFMWEJDWkaUpiDE5bvLNYH4DTMQlKKRJjghOV0NRoXEyC/auDtuFRFEV5LjnP6dWStSXD4QCtFL3DQ370wx/yySefkGUZm6+/zpXXruK9kOc5o9GIsiyig+cSeZ4zGY95cP8uR0cHJAm89c5NlleW0FqxsrJCq9XCOYf3nla7TWoM3/zmO6yvd1GqRMTVUtM7j3MOVyEaVL0zXfDsOlfivUWwoIIkDZ7dKTNWPT5rQRpNhNQYNILYEi2eLNFkSQgb+egYQoK6miahm5nzQYKPbcFgPOKwf8TYlngFw3LyVW5kdE5fd0rTlG63i4iglWZtbZ3COu7c+ZQr117jteubvPPOO4h8Qv9owMbGBtvb26wupbx983UMwtbWFkVvTH9wRFGWeIE0a7OyvE633Qr2ohSB6cZjyrLk6pULdJcylHEoiUZjnRIbrEujdC0Ag3vHgzhUtOeV8iAVqN0UEb+K7Vc4MYqqM1lAgxfvsLaMKm2Cc8GujVAWoXeo1mijgzreMiQmwRiDTgzKaEyWYsvynDnP6dWR1prN65skqWI4GpPlbbJ2h8FwyNbWFmvrF7hy+QrOCXc/u0ur1WJ7+xGtTPjOB++zcWmDJ48fI0ZjnaXX6wEakxQkJiVNM1ZX1oKDS2uGwzHOleTKkecJ7VaOMRnOQWoSEInJCkKe5WHRqG1FyPIkRl2mJoOKHtvQnyaquxVzVjkThJhtZmLbkHhc46cLQGiWG9RZ0/jbTjKIzXTTLEVEmIzHOH9iEsKz6dfPU/ui1/O8NuAL5H0t3E/xbNTDxTbqq/bYeu9ZW1vjxs1N7ty9x2g0ITGG5eUVPvvsM5aWV7i+ucnly5cZj8agoNVu0+sd0Ts64tLNG2xubvJk+wmJSTg6OuKod8TS8iory2uAr1VOpQ1plpKJB+9pt9ssLXdZXlqmKEryViswJwrnHN3uEt57tAlt/RDBueCcUUpmANS8VL5cmSYdVd3GqtQlQpdsHRv/ihdKa+OxwSSaLE9J05QsTTHGgAleZnRAtbTO48WTeB8Y+aw3vsoI+mrFA1+QlJ++OM3reTONm1nJ8/s+7RjhN6k9ivWAT9hv/pgnh8Fe9fMTES5tXObGzRu0u11Ka+kP+gyHQz786Yc8ePAQgNdee42lpWW01rQ7XXb39pkUBdc2N1leXsJ5h4lezjzPaifOwWEvhCm0odNZRikD2pCkKUmakOV5cNAkCXmeB7s0y2i1W2gTGDrNMlASY8hBPQ3pRR6lSgIinwnhGRUXQ1WJTYUSHcxXH73D3mOtpSyLECNFUFpIEk2WhXFopWjlLdIsJ89bpGlWX0eIl6ZnlJwxeOv96dz489J2ZmLMz6+ZOfMypc1JVDHMyWesfhAE8X6m6Y3SBoVpXNPTxtdklqZUO2mfKmzS7G1VvZX6r1Q5otU2spj5viytpygKrLWg4OLGBg7No0eP2d3fp9VqMRwO+dmHH6K14dq166yvr/F4K8VoTVFMuHv3Ljdef50rV15jb2+fxKQIQpoEdRUUpbUoY1BKUxSWcVHSShIm4zHD/gjxism4CMxqTJ1UMBpNgnc1SRARrCtQAoeHPa5sXI1JHhZFiVIeIQmJC7WmEptYiiKmLoSW8s6HfX3o8RlkdZDKRTGOkjmo4Uma4nyIk3oviLegwSQp3rkzMGdzbpzmIYss0L6eEhKof1okGV7Fan+y5KpCAaUtKcYTRqMRvV6P0WiE0ZqV1VXW19ZptUMAWikTs05OGmvzXIrZ886/F0Kq2NzCVmWpCIDFC1TlDsFOqtomQt1T9UtWcrz3fP7557z7/jssr61xaWODJM3ZO9jn8LDHysoyg+GIn3/4M5IkYXNzk41Ll+gfbgOws7NDO8+5fu06BweHPHj4gOFgwPr6Ba5e2aTdhtXVFfqDMR7FuCgQUbhSGA5GDAZDJuMyhFq0IWRZBYeMaqilIh6lhDRNODrqUUwmOGvxurHgxe2VECUs8fFIKAZBInxm2Edktkmmc5bRZITgsTa0ua62rWxYZQxaaZIkwyn7Iul70lAFTqaKv5oqsNQTqDoWHCs5OHa+uW+eqlKrmT9PS12r1Ts929Qt9MUID9MWJb2jHg8ePOD+55+zs7PD7u4uw+GIPMvY3Nzkrbff4rXXXuPChUt0ul1MkqCVAVV1dKyOPq9mVhHv5vDn1dGo/jYyexRgrcO5IdAHlaB0cCxonaJVgkLXBRFxVsVJJo3zvTopqrXms7uf8ZOf/IT3v/UtLmxcZv3iBW6++Sa//MUv8SIsLy2xu7PHnU/vsLK8wsbGJcQOGQ6GLHXbbG1tsdTt8ujRFg8ffsHW1hbXXnuNlZULLK+GBfGoPwQUnU6H4Xgcnp33eO8YWx8Z0sdEeKkLphMTpKYXhzGaNA23aDKZUJYlWaKnWMGAkpDGV983HxlQVOi6B7hYcYPEhSB6hxHCmJwPjXi1ZjIeU6DRaahosdbF9L+Qenh2hxAe8RbvLbUaPh12fVFVt+BKBa4y9oN6P40dERvC1raYakzYmOUR5ue0Aibc5OnEVyruHwPGletapHEOVHSfC3iHLQpsWaCNIsszlNZ48ZRlyXg8onfQY293n/v3H/D3f//33Lr1Eb1ej7IsUUrRbrW5d/dzHj78gps3b/LmW2/yxhtvsLa+SpJkaGNmx4iPjolK5VQxFkejWXG4jqBuOYpyzJOtT2lnj7l4Kf6G8OjxPR4++gFFuUOeL3Hx4iUubVym01km0QqtQIlqrHlNTUWC/eRfLWa/iHD79m2ydou822V5JePq1dc47PXY2d7l8PCQTrfL460tHnx+n/e/8RaXL10iNeCcwzrL3bt3KcuS1ZVVeoc9kiTFO4/RhtFoRKfTIc1SFKESJCSQa7wTrI0+Vlct0iqm4ql6vvloa3ovtFpthqMR1jq8qBrlXRFApZ13ILH5gsS5JhrRvu6EXS34XkIWrlGh7yk+SEuTGLQxjMdjRh7S1KF0aD1daEHGI4yoF/HWBqPXJCVG69BUtGEDifdY5yiLktF4xHA4xHthZWWFpeVlINwgrTToZmWLC3dS6bokSASGgyG9Xg/rHJNxgXWWdqvF6uoa3e5SzGEMKqBzDmstRVEwHAwpigntTofl5bUINWEwSrDFiEcPPmd/f5eNy5dZu3ARD2xv7/DJJ59w586nbD36goODPk8e7/Lw4QMODg4CVL9SGGPIspSDgwOePH7C7Y9vc+nSRd648QbfeO89Xn/jdVZWVsiyDG10VERVUHmcx5Yl1gWPYbvVCmlfWoffvac/GLCzs8PHtz/m73/8P/L939vh9/9gBYXg8Xxy5yP+7f95j+3ti7TbK7zz9nt881vf4eqV61y4cJELq+vkWR6diQ7BxQUr5H16LzhbzCyqL5OqkIW1lg8//Blpu8u7771Pu9Pl9Rs3GI8mbD3aotUK+bF3Pv2UjbVlbty4yvJym/29HbzW9Ho9Lly4wPr6Oqurq7TivUrThKPeEcsrqyTaMBwOKSYTkjQLaqkPjhxQdX6tArSEipTQJU/XloVzwtLSMqPhKKbb6RhHjV5e73CuBEmo+nfW3gIfso68gG4seCFdL4RSRBTipL433ju0TkmylMQkaGNwrYREG3LM2ZEQJpOCXq/Hkg/ZGirWynlrKYuSwXDIo0ePuHfvLp9HVdAYw7vfeJdvf/s7rK+vk+dxhfOOSRE8W61WyvJqN/wW60S3th7zg7/9Ibc+/pij/oDRcIhzjuXlZW7efJO33nqLtbV1jNFMiiH9/hEHB4ccHOzz5Mk24/GQq1ev8sEH3+LGjZt0u8toPFsPP+f/+3//ir39Xb7znd/gjRs36Q+G/OKjj/j3/z5Iyd2dbcrCU5ZSp4k1KVReHLG9Ha7PGEN3qcvm65vcuHmDtbVVkiQhyzK6nS7tdockSZiMJ+zt7bF/eIACLqytc+XKZVZX10jShOFwxKNHX/D55/e49fEtnjz6EW+/eQ3FhbBiI+zsHPLhTz/j3t0WSuV8+NNb/O3f/JiLF6/wxuuv8+6777C5eZ3l5Q7DwSF7+9v0+wOKSYn3Hmc9n3326VmmwHOTjxrOYNDnxz/6EUma8fa732B1ZYXNzdfZ2d4Nz3J1lclkws7uLteuXWR19Sq2nHCwt48xhrW1EM/cuLSB84JWoczKWcv+/j7GpEwmBUopbFkyKcZ4F6Sf+KCF+ah5qSozqOmPjCpvkiSMiyg5o9Ss0uKds2EOEKpOqJvQCyrWqigTmbJq+CVBe/HKo0Xj8Djr6oJrjSLR00SERCdoFJk6kTkba6k03lfamcDHtz7hX//r/5719TVarRYiQjkpGI1GjIZD+v0+jx9v8ejRFrs7OwwGA0yScPXqFd544warKyukaRbtOhfSmxDW1lZ49503g+u902Fvb4+/+Zsf8Fd/9ddsPXrMuChwcfXJspT1C+tcvnyF5eXghi9tcNgMBgMGgwH9wRHOWdZWV7l+fZMrV6/SbXcwCLs7T7j72Wd45/j0zn0uX7nCeFLw+PFjHn2xxZPtXQaDEc4L00p6mftL6P4cm8wqpdg7PGTr8RM+/NkvMElwRCRJElb8vE2SJFhr6Q8G9Pt9xHnyPGd1dZWVlVVa7RZlWXB4eEivd8jg6Ig8GSLehEZSyoACO1EM+iX9vsZ5y0FvwuefPyZJUlZWgv126dJFlpY6TEZD9g/2GPQHlKWFmBR++9N7T3GFvQQK1gPL7RX2dg/48Q9+xNHhEd/69re4dHGd9997lydPdnBAli/xZHeXe3fv89qVK6ytXaKcWPb39hiPCsR7ytKG5PK8zXg0Dgv7ZMzOk8dBRIlHiUeLR4sN4AZxDhuiduZDWl6AkQjmkACJShDnSLSiHBeMJlCkBd4L+IJWpuj5wKAVCF/l+KtyF5SPJWcVIoMIzkbPro5eWi8oZ9G2CKpvqUiTFrnJUOIYHvU57A8Xd7Y+7kGk/qx0UOfu3bvHn/7pv6HT6ZDneUz8LSjLEmct1jmcnSYeCwKTgv6nd/nk07vxiBJVREhM8KB1223eeP0677zzJnkr5/79+9y6/Qm7u/s4Jw1PqGJSOAbDLR58sRXU42qcKngzvfhYQyf0+kPuP9yiKtsx0U7WSpFlGXsHI9L0DihFWVoGgzGDYUnpqnbuzXDH3HRuOrYQlBdK6xmOi7DHjLQ9wcLrD9je3ceYUHqUpCaqPp6y9BgEfKhFVFqHOJ8onBWsBx/xY5x3FNYzmmzzZGcnTBylMErH8qggdaNrjqP+8JUxZpIkKGVwpWDLCUYZnjx5ws7OLuVkws0bN9EiZEazt7dPURbYosQNhyx1uly/fo3hcMLu7gHD4Yhh/4idnR2yvMXa+gWWV3tMihKRcK6gogppmnG4v8dkeISTlKn6Ge9R85lUeRxK0Dbnwd27tFttbFGS7yqGa3e5cmVCu11wdLDNw3uWYtJGm6lHXKlgrhgd0v2MnnrKg8/D1w5MrQ2TyZje9hOKw1280biihZ9k9J2j3ztif3uX7Udbp1drVawktzakU/X7/ZmGus16wcownvWWzsKZVAnIzgcLoCwdk0/u8mhrC/D0+0dMihLrFS64xjAqQlAoMKLQovH1SjXN2vCi8eIQ78D5KpEjMGU4eahScI6ynKBUEZww1lHY4IzwVI6o6fifJWeabeKUUjPvlWpuc/zeSqP+kKiShVInmTqNlI4TKi56lXcQD+iZBAOl4iIVHUw+jq3KdvGvMOZZ5dZmWcZoMsakKdpoRpMJD+/dZ3w0wKgQqxzHvFiF4vFkxN/8zd+yvLKEEs9g0Md7z6SY0D/sYZKM7d0DsiynsCUojYk2vURtbzQY0M5zhBSUmTJnWLbDM6DhIhNB47h96xZ53kYnBmdGvHv9Hh98sEy+eoGf/vQn/OTHKbboRH9IPJ7SoQtfRFjQDRyjynkpjbBJWZYMx2OOohrujGFkFJPJhP5Rn2I8Rvr9s8Q5pV7RgyrKTFijYt6TMIUWfd+cTF48/dGIwWgYbAMlsSYvSgcVVn2tA1ZLlmWkeU6WZiRJSpKYgMFiErwIR/0e+wd7lJNRnNTRShABHwpqRYSirDJBYgEuMcY1R8+LOFDdk+a1PTOjSiRgpHqpsWcqzcP7cM9nhhRnV2UX+ZjVsmiszbEg1bWpZywzL0YiQqvVotPpoE2EldSape4SCjjcP5gJX1XS3JaWrcdPePzkcaikUtN5owWc8wwGQ/r9YbQLG+eMZc1ZmpKuriEkYZFreKqr0AZKZpjT4xn0hwz6I0Q5CjVkPd+lLHIAth8/4dFDsGU3aNBRW1EqaGIV/Mk0ZCgzr3Dfg7PUeY9PUgyK0ntsfBJdpem2O6y326dhzlD1XaUpzZyUWQatvJnPk6RwTIpSy5lwU2Mw1yMopcnyNqsr6ywtLaMwaJNgkhRjkvrG6Kg+pGnCytoFVtcuMOgf0TvsMRwOpmoGhJQsCQZECA+F+Jg0xOXxa3m69JzXGE7WIubusIqxtOreIngJC0bQOObPM1WbfDUBmxP1hIUhCtrpJH1FVIXPtNZUKD7ATDLKzF2dX7SjCRKi/L6e3AF2pLr+uYPUqknF9lVKHo3Pur74enGIYScFSAzJpaJInZB5ReZD2CwxBd5qwoz0wbyI2ow6dkOnKm3z2pQOTiBBUCIhBFiZRo3V6rmZU1SQMvNq6fSezEqE06aIzW4fmTwypigNGjqdLpcuXmV9/TJZ3sLaYI95H4K/RWEpyzJOCkWep7QyQ5K0uHChw8rKJfpHh/QODxgOB7XkjyOoGaFW9SrpxzyTPR9zNlfQRffo+LVHrUSq2BvTzw3M/zp2W/1eZaXE6bzo+IsWyy8jja8+R5VAccIpFy3SSPDZhKWzAvAIzD0NSSw62tQZM6MbVGZFrV3Me97DGcIfRSKKxAmph9RDK8/QOnjsQ5JeBT4y26KhjnMuEGJzV13/X60l1cIl6gyg0rOL1HFMmrMkUteTrTp4dZO0odvucOHSJZZXVoNaKinOao4mI0rrsdbX6XXeuzCJVYgrOec46pWIK2nnLdqdDq1WF9C0O0t4XzLo9xmPx0FqxoD0wsWHKZOeRnI278dJau08c85rJOIF0dI4awX72JCeleSX4+ps8xwVkz5TxX4JZK1lNBr9/82dyZMlx33fP5lZ23u9Tc8MBgCHhEEh7BBJCwz5IinCQftgO6yj/R/oP5OvCoeP1skRuuigsA+m6YCksCSIhEgBJNDT21tqyUwffplZWfXe6+7pmaGYiEF3v6UqMyt/2/e30TTNnfe6S6twXsLjJvsoHz5wsd1rpu/GernjLpITqEjN8Lsnk4o5GBh+OMbY9wNriubfXcJs/k7u3nl0EEK0LXMd+yEPe87F5cCpRBTRKtDGcP70Od/56Lucnp7jEX/i9fWavu8EDbZjSJazLqnT2hiMVlL/xTrc4LDDms1miykKqqpguTwCb1kulmy3W15dfk3bDgEqGdWd6IBOhOnFrrnbdPQ7RJG/d2BH0/UnByyqO+nNgLaq8fM+BF/7EJHyUMI7zNHfznDOcXV1xWKxoCzLdM9Dc7lrvN4875FWnhnB371Xas9nDmDuU6Z6h9R8CLOaEechN8qeCYcImccQ50T/JhysYENIZJBmsVjy/vsfcH7+HrerLVdX1yGsStTY6CQmHMYJcXoPBWOEEYEDD1aCjZ3DOU1ZFCyWx5ycPpFiU7evuLx8JXZppvLmalb8caftGHjzPhWTQ0BTBr1PpLfK/40qtU9WlAp7ELQ1NWN+B1Tsfc/ibQ+tdTIz7sMg7nr/sSbS+L1p/PeE3+2c9xHtj9eQdw3tdsDZ/Ozm9/PJxp4T6HzcZ94cIE4/+3l4RMkZi0rHi+5TqfIbxt+juE/aujLBbaSo6pqnz9+nak755devuLlZhcTVoL4OHjvYzC4j2GQeQqZGUivCP/HDOLTTku6FBKWzaekLR1GULI9O0EbQ3uuryxTk7DM7e6re7h9i6KsALOy+G/d3qqrJ/J13Id1oioCPYMNY8iJRbeJsD5NAh6T6uxhVVQUf5P3jPgJ+6Hzv0lZ2Bcke1VY+kBi7DEPXWnFxsXuNCMztW9NDXttHyI+u+B5vcpe9OXcl5CO6W5wLmFw4yFVd8fT5+5ycvcd6O0gZxEGqa0uSu0vxjvGnLC7MR6K9gzEmh9Y6B86GVhQ+BLZ7rLVsVVTNPc734C1aF5RlRddud7bkPsKcfG7vR/fZq1lWvSdT8VUU0/u/64Hka1NJIjzkgL9rexMkcD1qVg8lrH3uJ3g8YU7fPPz83tV+vIl58ejSmFNDef9GPgR4UFqjHSijKMqSs/NnPDl/n2GA1TpIzGBbjsZ1PIgzFVkRiDyAI4QaLoxn3DmLZLZA14k01lqjDfRdR9tuWDQlVV0xhEz2iDI+lDAfNmKfj3EfE7CTgUAuoMd3H06R5/cZJK970N/GiM//dQn0nYy9l50ydy+/POryj93XQ997DeLcx/H369f7iDO3TWEkbo9kfi+PTzk6OacsG9rOsllv6HspayjRMaPPKDm51AjcCGHO5xUKLXkjh9xKDK9SYIzGuZ5t2wZ1xGGdlEYs3ZJFUVGWJX1IjL3LuH+dLcwtlpww83lH9V2Wud9Gfe1bZ89k7iR/V+M3ucHVdE4+sbcxSf5Nr/nm49HEGQ/RIf9m/lDiZ0YCzSqYAYvFEWdPXmDKhu1my3q9pe9tUFtdukaUnrvzUpO/hYjFTitCjdDBDqggSb2XOkEei3Whzosf8F4qDgxDh69qqroeCSSzk0dgaKZi7tu1/IGp6S/7AKNUsj++rwhBFQ9n6HNbfwch/zVJ0KIoQnztu1ehHzoOrlkB3r8Rcb7t8UalMfcZ3nPgJ3h9A9ABWhcSexiiKrTWlGWDd5rbm1vatqNr+0CIYn9pJdH8kUBk5FI4qLqZbeaDAVYUZQJUtNEURSHFg33PYG1IK4pMQK5tB4kQqqqKmFvpncep/X7QOZo7eS9C9xEEuqOJa3QDSbSJQWsjprM2GKNTA9fJbSYAe0gk/w0hBmMMi4Vk4bxuvam3OeYRUofm8puybyBn6o1KY94HfY/ugLA5EWUMtpZRirKo0bqURNlOko+tHSQHLxCcxaG9DcI721ilQI/2p/wYw9imaKcmFu52DvxgwVpJEpfAXSF3pVJcqylLCicEHN011tndde8DYTIwMCfQKHl3VFWvQpkRk+qb6hDihS9CULV8JoeHQMIVPSrlXux11fwTHDzvfYhzNgel913fhcPI5qFxaJ2HvAj5a/fuUcLnRuafzeru7z5ivLOi0jnxOhfsTqJ6GFojao0J3X232xZrXUBtMvs1pDi5KBlyVTBDQHx230D98RXxx1YVeKnGLcTvKLVBVRVd1+O8JZrWRfcAABhVSURBVDVCDRfT2lAUJV6Le8Yai7FBmkXt9oAtGtXwHHAggj17kNyoZOiU2TDa6FqNmsYc1dAhhU+yWcL6Z6bFY0CZtzW01qnCXT7yud1nl94FKu773mMY0UO/M851ygJVdo3X3eNDLse3otbusztzDuni4dCRmmIenJSQ6LsB21vJVMeTgpw9QqjRroxorNp18qetCrZDCpr3lmjj9n3Ptt1i7YDGU1YlNRWV6dhuHV3fErsfD4PFDlLbJcUAKIVVPk5v177O1dc9hHCvi8NLkeR8XQoVQrriPUbGIza1oSgLVKhPI2DSqLr9U4IxCQkP/vD52LHl2Y9ZvO3x6DhwEZvp17elixwi6jcO37tPxRA3RCAwpVgsFlJt20LfS7C6dT3OKhDZGmw80oR9OPRKhYQENToOlNbBnbk7D+csXbulbxVu6Oi7DTb4O7WRzk+Lqua4abgpFFfXguZqI8CRFGgCkloaHkhgEqPkTB8Jc5bv7DLjPHB+OuS5x4wandYetYMIhjnnQr9WhTFQlgV1VUtVWyfpVjag0oJM//qlZRx939N13UHJF+eWn6N90nSKNTxeQh36zttQ+XfV3Nf9/oOCEB4+tJbg8vnmx9C+xWJBVde0fcd2s8F5qKqas7MnWOu5vr5le7PCeY1WBo8V4CUkFhMkxqgahnt4RGx4Lbai2h8oB56ht9L+u99gbZtsOZzHW4XyFU3dYEojpUNubzHa0DQ1VSWvOZ8FlitIlde9T4HKfpb2c/Ax3SERtIqpRxYJwg91UrGMoXthj5Hk3lifSMoySsB/3/c7h/shttjbHt57Li4uUjewu+6/T7WbE+c+wPF1kefXtWF/HWMvkMprEWcO8o+Scx51H7lhWZacn5/z5Pycbui5+OYbrq5uaNuWq6srQNO2rVTwM2XwWXpJNg42pqiSM5dDLsH8XLnNpyuqrRSy6hhshxRfjqivlNa3dsA6y6JZcHp8SrttEakn6K1zQ+iVEV0/PprFEwrcgQbinqipkgrBhtw3ZZXtcGIICuV9AoOA8DMk+ZqxCoDy4AuJfIogzD7Gmeb5jg9lzrzvAnjmY06w+RrmavAhn+2htb07ZuSZ3/J17Nh9r72WnzOPVIl2RNwspbIan8mvaTg6OuKsFHdG1w9s1luuri7RqqDvHcMQymCScUAVrxHTm2Cu4StA+fi9PZsQ1uvtgB16rO1R2qJD30XvDd4XOGvpOinXf3x8LNXcN9f0oZatJ1ZgI8XVJvR1D6gz/z0o30HFVaMysG+HM5t1spCwp7FJToxYigCSAEWjXp2DSuOD36feCsZ7t/X0eAJWSnN0dCyF3LLLHNJzDl4HhVRmUQG/8CPz8hLGKQw117LulqhzgZJ1033Uit8Wn3sUIOS9ZG+fn53yrQ/e5/TkhPOnzxiCCgWEAlJWIJ+Qi7moa46Ol5RGoZzn9nYlhK0L+t4yWI82RZImyeYOm+Vh0pckDRXaqumYgb67SO/ELTPYJd53aONC+UGN9hqDoTIVRVlS1xXL5RHHy4ZfvfolzUnDomkYbJ/CB5P9R/CIzokzEe3swSffo0KF6nA7841z9n7nuoqeRe2paoNXLuyKxqsCrwweLSCV8+ANBFtZK4VXGp8aJu1s4QNQjcdLGqWk7frc7hX8YESPJ1IvmCwxeiroDuSZPnFPR5fZGBziGUvn5D/jOJRf6eP/M9tR7mlwqsDp8dX9az383uuO11ZrlfI8fz7wn//TGZ/+8HcpS0PdFKPNCck2iyfZFCVNo6lrh3cN2/YFXSe1epQW0CdUBJohr+mu6YW9vruI4O7ZlAhsjofdorRL9qlysWZoIT0atcKUJXao2HYLdKkwRk0IM2LNgU9nMwzq7nTyaQkpqB3QXkpT7OXoYZ07l/Aeo97nB98/AhTOb1F+oDAdurjE6w3aK5QuUAUYHYp5WbG3nR8g5O7PpiZ9O/YwhOmnHjEUNM1A01xS1btIrdY6SMKQaRS6U8dyNNqYiVoYiVI0Np1V+yc7cwSMIOtlku1nRLsnZgeHl671Da76hq35hN7ELKPxXnLu7+qJc/+4C9y6hziF2ztn6Lv3aYoP+fT78MMfKEwxoMx6RBDTjcIRVhZPl4hDKZ1Uk6hiyed14Pa7DzAf+zbw4Hao4KbxWv6hQQ3yjyCPbajfgiCkVnn6wGRMoUCJFpDuP7FnxrvfZcOpOJfsp4bQIkEe9INQPq/xUhyTtvXY4itq9Tk//PQZf/RHL7i8FImMT5050kSdszhscsdMt0mx3Tr69v4pvO7w3mMKz4cfPuXoeDHryibEKQEfwkhsJND4TPZoRCmYJFW42z0Be4NEIGk0fsZW71yDKSmqJWcvPsCbc6wbY4VlblOT4C5CewggN7et7yTOKCX+4edf88f/5S/48//xHtZZlFYcHVUsjqTSwGB7vNYUdcXRyTFnZ2dYa9lsVokDbrdbNptN4jbeQT8MYnPaEk05nTTjJL2fcn2ZV2Z/QejVIkwi1tyJhbEAlO5RZpBIm+jecY6yKKmqKmSkSEu4k5NTzs7OePb0Gav1ii+++ELmmc3ggKU7maeCJKmFYSB1ZwOw5ELidyRQv3OFeFGNV1KfzVLw8fda/t2PNN/9+GM++vgY1yNNdaIDdjIfF+uA7l472FreG7gjrPAxI5Z8KYoxnjknTqWyUpZkKr38cYB2VBIAKuJz8/vuWeY4pyD1HgTUeJw+oR+eoPQnXF0eUegzimKQ1OCoRsH0HB7wb98HDu0j7OwWe78S/i+qRqGkhqrWitPTE87Pz6SIcd/jNZRNw7Pnz/jWt75F3zuuLm9ZLo9YLBqur6+5uLjAOUdhSgZrubm+ZbNt8U5hVCkujmxBEJ3po4QRe0NL0a/JTAXttban77dSvCuLl9XaYYynKKVlQkRyy6KgKiu6bUvXtpRVyXvPX/De+y/4gz/4fdabFX/6p/+dbazoHh7cqMbuHniVfh1D2IkHMkX6jH7LmJeaggz2PgqpGuec53ufPucP/+PHfPTtIzn01mJdj3U9zOzZdCADt09BFeEwtK1m6AoOUMOjh1cOz5rn751ycnyE0n1Yw+xzmc1pg2q7L4sJIk2FgtqKvUQ2WMtdsbPRXn3ACvDK4twJTfkRf/Zn/49l88/4y89+wS9/dSXPMJo7al5raLq+h448KAPuVWtHXu69o4ucwis653C6wKPBSKVx1Xu2q46byxWgccOQ+lLgpD9nVZQ09ZK2HVixBRsSqTUEvVeMdpmt/FSx2YxwPR06MsXaZ2FWIZi9Y7B98nV4H2q9Oh0anRr5HXEDdRaJTrIKT03fK15drendr/jiF7/AFBqnFLmLNar7fi8XzpDZZG8qEmobvhs06xDNc3cYm4o+3XD/v/+7LX/yJz+lrGMd2xjksQv8SIK6xXuXADQUqSr55as169v+7mPwiOGVp2p6fvdf/TYvXhDMltE+i1a6D+u3zjMMUppUXESC0O4ON7Hhpzf1dxJn1F4eihYrwJg133m54r/91//Jk7N/4Ef/+kfYAa6uVvIYVbz0/WrroTF3C0Xp+7hGRkFMp5hJpWCQRW+3LRevXlEWFcYUDIPl5uaG9XoNSAvAKYIZtRiFUvGAulBKBMCnVgsRLImFg8PyhWDxDHYQlwkQCwaTPunwXqeiYCr4UzU6hRcWhUjutm2x3vLZZ3/FYlGjlcakIPRIDyqb0TgisrjPuZ5mE+0fP9YLOkSY86GVZnW74vZmNdpQSqVKcTvPCi+BHS76SkVyRpvv4hvpn/L2h2J5UvLyQ4X2BXYoD+IKc98lPOxQ7xv2LuLk4ZJMWjVaisLw4uyMdlPwF5/9Lwwlv/f7vwd8ye3t6mB02uvc/62H78WLaa2p6gpTGKlqoHXoDGwpiiokTAtHXy6XaG1C3Oow2g0+FKLW0Ra0WWqWGm2Q9Kdh1E5EIuAFmRSb1oOOppZJqmLahCjDwt9RdTZKUVe1hO9pJSls240AWjHmNWqJO5sxbvRhwjy8j/cdzMOBBPLP+v01a6WBrkvq9Lhulf33bobyBU19Tl2e0/kuMROZ+GRxmChVPYkJjmvM92aq+edbJa879iUIjK6V/YBRTA0k+ZHH+lRKF5wcHfM7P/iXfPjBSz784EOG0Gay7fswj/33i7/f52/Nvx/904/qlZLbCCjxaZaVCcW+pASI0UXIR/TJ31XXNc55+k5agcvCNQSELQVrRwkVpChZMHi2BKKCorzHDgN2kO5ZKMl6SVE9OdgxsxGi9AJQwQY8PT2hbmo22zXr9QalveShqjE9zbmY28l4oPBR4yWaRBGMjQxhcrCQwIJYCEz2ahcMyV1G6SGHCCaVXAMxjENNvkNIMI+BHfFf6m+jNLsFTu6BIh405IzUlVSUcD57xjmalu0NQQqJGTVeJy+ep4K54NNq882KDZV3o3XuW9u27VitblI8clmU1PWSRV1wfPKEf/8f/pDzsyf8n//7E/7yr/86aV6CPCtgtJHnkjDXDKZYCjvficE8Sr1R89ygllkLyqVNU8phTEXdNCyaJcaUOGfpe0FDRxBEep8IlwsTd9nBzPZwNO1yYEjekAMb8ixdHuc7VuGOYW/JUe3H6JIcGvd4CdZuO54+PadZVFy8upAsFqNDV+5ARM6hYhFrP71WxHKTxZ4Ewcgl4zyVUmijRfUMHZN3XQjjdbJXiV21xq2y5BsYASk5RKOV7mO367ins2c7l06PHR4nZobyFEZS7WxgYiowuvgc0ne8T8Wa46uxV8po8Qebn/G1yDQVOqUmjjs15vi6aI5khAPSb/by8pq23eKco6kblouO7WLB5z/9nK7raZYNn//scz799HfYbDZ0QxeuMYJ8c3Aonok81HUnQCJpgQGZUCLJ30itFR+aR1uJuJHJaZSSygFaaZq6ZrADXdfS912YiYADckB04hai2o6HMz8kcuiF25hYuCsQqHMO64LzObHdIMLIfiiVbDCrbCLUtKlG/l6vRWKePjmhaRpW69vxM1qNTERDZCxjsG0kfHZOeE6gcaR4Wi0dl6MKGtc8AQnwSQtImkSmqrvMdRTEZXjec7Uqlyx+hxhfx4a6c3jPtt3StttwfROktoFInNFuzn7HTrUklUnUuHYVru+ithKJVwfin61BBwJVGXFO3TeK9WotHdH7DmMKLl5doC4VV9eXOGc5Oj7i3/zbH7HZbPj5L36OHSxlWeCVgFc64ClRM8m774FUhsht62Qbq3GtI+G+gc0pPZkGvIPBuhBnS4jC0XR9x2q9ph/EFuy6bUDhCqCQCKF4jrSGWX0eeSgqEWpurzjvR/evEonj7BAqGHhSNYRwjVyNmnO0/CDGdKxu6Pn64hvaocX73L85nccYVuaDvUwKMEjE4kdumnPMnOg0OnQXGzXwgzZoyn7ZBYCCzNghrvm99/18J0NB17WsN2uMKalKMzJiRmanU22nIA99INdoHvgYfTZeV/Y6V2t9AhQTG5zvQ5S4fleCSYF0Q1FKIIOzXohUG25vVzhnub6+4W//5u/4xy+/5OrykrIsaKqasiowRUXTSGX7POkg3Ts8qyhB59I1gi/WupRq92aS0ztpd2A9g9ZYayT515QoBDnbrLfBvvRoA953eKSYltLRD+lHiRQI6ZAzF0hRJYTH4GJLtdSOYHR9hCc+lTRKiGie5JurHV3XsVqtAsIZpW30ufpU+HkOckgCeVTPXJL2kTukv/2U6JJ9zHTdu4QWVbj490wHjvt3B8yTVPl3BgWNc7PWcn19jXMjDqG1pm4a6qahqqRnp/ceo7W4fUKl/ohCA8K85yq4ChG3M6odPW+7jMf5WBp1SpzL5ZKXL7+NcwL0SBDNltVqlbS6siz48Y//t4R0WpnvphDUvKhqTs/OqKoKay3L5ZKqqlLR9VySzhsctW2bXt9ut2itWa/3drZ+vSFJvcEGU56iMChUMKwtTbOgrqUfyWp1hfUbjDY4rzHaopBSlVpJbxNycCRaTN6n1+N73jnpfOacbGYkzmBnOZ+1fYscNpOeSquU0jTvMyrdu0PWjRuwg0MVjHZLbHgUmYlWId1SUdcV7z1/QV03bLdbwNN2Wy4vX0kcK6SwwJyo5aC4HQvwoGSLwFb8Y/KlPR/fA1K86xEZnkSHtcRkhqIoKGsBikxhEoqsQ8zsol5QFiVFUaDLkggMRm+ACiaDSxJnurYYEJUYZ9pmH+qNu8kcI3E2zSIx3sFa2nbD7e2tNPXVisIYwLNerbj85pJu21I3FUpp1usNXd+zXC4ZhoFXr17hnGOxWLBYyHWrqqKqKpqmQWvNxcUFq9UquX/6vkcp6bTetu2bE+ccClZKuNNmu8GogUVzzHK5QGtF261o1wMDPYWpAwFI1JFXAtzkqG1Saz2Jk05UQ0SKOmtT6wSVOm3FZDI/StKoDhLSrFReeX5UNSI4ZIwGU9L1LQ43PnCX980E5Q1KGeqy4ZPvfsL3f/sHNIuGbbvFec96u+FnX/yMn/7077m+fhWYDRlREuzYafWEKWCVSdmk7vtEpHgF7m6iO+TaeWeEGvZbOnRH20K0kr7vJ8iX0JjCaENd1kHqSHGwMnTEPjo6oior2bdQxd+HL6fzR9D8M41mPDMSZRWT9ue2nwi2kI8M1HXF8fFxBmKK5nS8PKYpar75+hvOnpziPdxuN6w3G9q2TZpXF0JC1+s1fd9jjKGua168eEHXdXz11Vdst1uMMXRdxzAMNI0w9bdCnFpr8D7VVRVktpeGL0Xw1xQFJyfHKDUw2DXr1ZqyMJRlhR1gGLqIpSRCjAiqPDO115YiADHKe3R6GCKBorT0KmaBpGMQWskn0kUpn7UKl2sMg9SwraoK6wecCq4AH8t8xmoIsGiWfPjyO7z84Nt88u2PWZQV31x8TVXXPHv2Hu9XNU+ePuf49ITPPvsJF1//KgTdj9J4jAPeE0zgpf9oVFejrEifCxJkbtvKW2EfZ5B9/P3dCtCY0BAJYm4DzuxxD3YY2AyWrm2TtmOMxhQFtzc3lFVJYQqKUKGwrCvKqkQpkzEz0tlJN2LvHwBZWZipEIgAjzFTAMnoAoWirCuWywXWOo5CXjBA13Vst1vW6zXW2tTMKUrIL7/8MhFvTsha61B8wLw5cSqlpTqd8aGjlwspZC1gMIVBa4U2iqapQB1xfbtgGBzL5THLxTFGr2i7S2wI48sx9InEiNwS8DE+NGi72oNBIVmMjujSkYMuD2TipoFZ49zsmSnhpMPQs9m0ImG1ljhL60eVNhl9cPbknH/+L77HRy+/w3C94q9+8mP+8cufY+qKb3/0CS8/+i2s8xRFhTYF1iPEmcAL+TcnrAg2pZYMhHQqLdJ/EmMaGydlhDiCI4EwtZrTx4Hn+nbqDnkfQvOsm2lDamdukVGiCBFhEcVVDENPP/Rsthu0krziwsg/U5YUVRlsWVGZl6FWbtRwUoG5yPhyBDyqwlonQG4K5ETCHdegjcbhOT07ExeRggWj/38YBrquY7PZJIJcr9fc3t5K4ELbUdc1Whv6XsyqYbBU1dTd8gbEKRxZ0KkCQZp6rBvw3slmKYXzlq7bAgPD0FPXoqMvmyOWyyO811xd3dIPMYlYnLrzCKwJ1OxHwkibTqjfGqUtJInhI4ISU7VyhDs7H3mARexW5qwUk8YQSqjs2oVPnz3nvRcf4LzjZ198zt/+zWes1teI7FWcnp1j6oa6rFkujsKhjUnXbpSCc9WdEXhyTuoX6RCGGKW9MUVAAEXqgEpawK6JMHKnX4fNOQwDNzc3LBYLhmFIwIisUZio1hKNNaqlGc5ApvFE+9qLdmadw/U9vt2KK0PJuk1RsKnroNFJ1fmqqSnLKrymkrYtZ0aekYcERHl8QM+dvBeJW42/F2VJUZbBXp6eiKIoqOua5XIJiCBYrSRE8vr6mqqqOT4+4eZGgh7s4FAhqcG5ISHajyZO5yRdrCgk+sc5i/NDSonSIbig71vWa9i2CkKWemEKSSUL6Vt5SY1IoNFX6gIxeqYSwTmPkT/ISHfvXOcIZ5LI+VcZD2xhChbLBS9fvuT4+Jgvv/kFN9vr6UXDQ1RKUdc1dVXhhgHrJS+0dZbl8TFP33tGc7RktWm5eHXBZrtBacVgJYgB74IkVGg/AiNlWYKHfuhFylsrqm1akwr2WIHWRSjVEQjUx96k2X5kmsFDpOfbGMMw8NVXX1FVFcMwCEpb1zRNgykkabowBQaTSXxPrOSQjyhVpwBQ+BckorUw9D3dZpOkpCkLyk2VilubcPaMiZ6FIlzL45Pv3YcWjoqMOyTG4pyjqqpJ5sw+18kcIxkGi9aG5eKIpl6yXolktc4So8dyN8//B0UNGB8PKj/OAAAAAElFTkSuQmCC;movable=0;resizable=0;rotatable=0;deletable=0;editable=0;connectable=0;" vertex="1" parent="1">
                    <mxGeometry x="175.00463350183827" y="553.9929411764707" width="231" height="210" as="geometry"/>
                </mxCell>
                <mxCell id="13" value="" style="shape=image;verticalLabelPosition=bottom;labelBackgroundColor=default;verticalAlign=top;aspect=fixed;imageAspect=0;image=data:image/png,iVBORw0KGgoAAAANSUhEUgAAAI8AAACTCAYAAAC3d0pzAAAgAElEQVR4nOy9SY8kSZbn93siopuZ+RLhEZEZGZnVVV1dWw9Z3eSg0d0YEASI4WF44YUEPwDv/AoEAYKnwfDKA68EeOCtAZLAHAYEOOAMBmQv00tVdWdWVWZGxuqrLWq6iAgPIrqYubmHu0dkRTaZkoh0M1NVEVGRJ+/93yJPBPB8W74tdyjqfXfg2/L3t3xLPN+WO5dviefbcufyLfF8W+5cviWeb8udy7fE8225c/mWeL4tdy7fEs+35c7lW+L5tty5mJvcJIzN0PI1dONbI/c3r2zP8+U5eiPxfPjoEf/gJz8hSVPEyzYlvVXfHOClq/P6Sv0brv//tSgE7cGLx72jde29QlBYgZ//7c/56vMvsLa5dN8bief3fvpT/tv/5r/mqNjDlA4v7p3wHi9gBZwGrzXeGGp1dc1fF/GIfB2c9DdTjHVktUe34MTjlMeL521Xt/eCQlHPUv67//6f8r/8T/8z5aq5VOsbiaeYTfng0QOKz54j/+pvSKjfqmN9B4XAcQSOE/jLwvAs3d2dr5Pr/H0mno8by++Wwn6tUTgQj+AIPP3uxYpjnmqO/uP/gEezGVpkJzm+kXiUUjRlxek//+fwT/8H9qnegdQKnfF4BOFf0vDPpOYvrpnIb8XWZhER/th7/is/4R+SkWIRHJarOE+3Wt9cLJaf5QU/uP/PwGv8FXrVDQCzxBsbckpmXGZfty8S/+9RCBme9pq7vy7C+ftMkN57NDCj4YAWE8mmwfcL8zZFRoQleIrWoJyglEFEsQvs3kjbGnUZj3tHxCMIHocLHMhf/7p/nyf66yphBC0NHksAz4EEbo97ZPTX4nGqxUuNEou+Qk+6JfG8+9J1+n2RxvvCPO9iMQw99wRSGqZYbiiirir9UvZX9/U9EU/XmfCKs2LKx0f3WWbJFbfflgnfrAT+d8eaRfB3nCDxd9WINtv7cFGSnZ1BXfZXO/J5m/G66Vu9d84D8N3H3+E//Q//MX/zcLbzuocr7UC++//daeBO5U2M47rL4v2bK9j13Oj/AD/49Fcc/V//El5+ucHB34ZwbvPseySegJ0csH9wj+/94B+w+HD/6tuvGWzn3Z3EgEddqUm8+WGL+N0q8XXE3l26C9dS3m1wyscNTP/iz/o23ajWuxLQbYjvPXOeIKuJk+i83n2byLUcwsf/7tT+XbGHaNxVhBctvlddi7b1WzfpZLO9XQR415G4S3lvxNNRuET9zYtcCV6vA7W+H8Lbr+SOdO9SvPdX9quzX111DeTuRDsqLoKc3Yr011/eO/FAdFMokGvcE9dqD3elgq8JiP+miosqtAEsgZ/d3BT49uUbAZghcJfrOMyV1yLh3GXAHPKt/egtylsQz9vQ9+4JU12dW1UHzfbdGxEFQURtPTuYEa59Vq5uU+R6opRYwd36HP/5GIx1qZu/OQF2A+KJcDS8cfztbsxRtj53tmoRQSGowS516TnPAJrDmPthAu7IeXZLOxnhqOvKWJBGwvbDd5FRPy89GXHRLTvdE02sUotG0ICOakfX3juLzRg+7rh8Q84zwNu3IRzZ+DZwEhFBS+Q7YzAk0fvudxBeb/kcay6XuVO3ynf2qTPWXYp7Cr+PReWlen1Xrcd3VYjfsMj2avNoEgTw4m4NmDdGXkJTxhsUBjCo3tXzDouP73PFfH9jMA90Y+/ptNzO6N593rgXLk2A30EHIrLxsN+6QXZoPj1P2dHoVouxja59iWERsmHe74iw19C6oLorpvo6uuq4j/htnDi4J/4/r6pfWa548y0auAyg/fWcon+um9PR42/CKLA5150R8Hpc0+E33xND17/eB3UVR4ReHI+b2BXn1fnQx99+U+WbRzxd6cJTu69bYHpYxRGl7JqIHZPbS8StiQgE9ObhH/xhHSW9ebouScUo3q5rqiM0F+/t64h05yWi0VGf37HQemP5xhCPMLBh7/3A2YnjvA3eRgO6La76Z68y4vWYZIfIikQ0ntndkDcS0V2cY34A5W+a7l2G6g4H+lHv3ofF6htDPMjISOjHCmf8v+/+xt/8xqObIm3XgHdtwJaWJpsA1w+kMbR+eXLG91xdrp5QNb48qmb8xAbQ3oHnumF4X6bOGxGPiiA2uAGvRBPX1rEL8CrAxqlXEmJvpfNjRSIZ+2rGgySXahtW5CDaNm/usUr3W49FruhnT8SbyCI80wHUq97wKom2gwhjnzcXy5aGKV2FAz9WflAyLtX5FkUhaKcQL3GHy24ZeyM7j/YenKJEM4u/7brvqiu7O9j5sxUinkRqlPgB6vQQZ1tJj7/K9m+xF92o9+JnoBPvPN67+C+IDi+7fWOeAbB2YnMYwkA4SjGs/m0g67t6rxoRf4njdHhql9bY92lrHCxQY9EodBytuwWC9V43wKBdgkLTaMFe4Tx7I/F4gg+llYRKchpf9b+Pl3k3UDcnIUEjJCRoSUiUR6sOjIbalFweCBlR1oaq6gXXaUDxnrGhrsNRnhA57XYy+6E1P1K3uzHoiGQbawxtMKIifyXnETY1tV1c+SYj2ChhKcHOk8bxDGaCq7W47aLQhOBiG+9RWDLWMsWSjewQl599M+cRqBU8TTw/M549myBe4fEcHR3xycffQYmMiOcNakQsDgU+IfGG9Ls/pin2SdRm6EVvubhkh+lW56C/ey+DSIq/9cTkfA9QCaaYkWn/qqnyOB9u9ID0nCqSdySU8dtuCNkd4mR4cADrnm0zxJgD9J3sf+tIVvDMZ3u8+t6PuEgTxFsEoYv4uWzP2j0vqcp4/vw5r09fxzHSQMIzpdkTQ+I0yRU7ed5IPOKhQfF/y5r/UU5BGcQpEOGPfvQ7/Of/2X8xsq9Ea+8WYu27LWNeZVDeYLyQ5AXrwwmJbMa5dHjA9399Dxw9fmOEnI8YYHhyaD2KF9RAjH5zNkY9Hd5EjcSWi1yruytgEKHTnECCWOw7POZKBEKRTcwCwytsc6JNDh773dmJYgdef3jI+j/6Y7Lyp1jnQl8l4JRxM9I/BNKJ00i4Rhv+9//tf+VPz55Frt2iaGgo+R1T4dTVrOAGmEdhreZk7fm8cYg0UZ4Lv5Mn2McfReIJr+y920k8TkLoxSCuZWPhe2eHF+vwjo+T1E+y9GJrY2H18qmbRhnqH/Whn3zvutvx3uO8G3Gw8MHFifcRO9kRT91ghBK4Enh8ZGeDGAtsLnyVjee6Pvr+v+6lY6ygHyvz4bMaWZMB0ML6wQErv9/5azYud2MYqpVomQ6LzHuHc8FW9lWq+aWtukEOfbPQOItYh3O7Wc+NtC2/w5rqnMNae5PHr6zTjVRkEdBCEIFRk+nAn0h4efproYioXjPr2Xn8re9vz7niJHmP9wEBeg/ehcHpjG0+xhc777Au3tO7HMLEduJwGJfhPcZ/GXGrDnzHl+9Y18Bl4uLo2hi87iMU2GG8nquEezQuEK6Xyyr9+Eskbgd4r/pF5GRooxvdrp3rzABvZefxftspud3z2P/IPZQMbLofDASlBKMURsXuiww4SgRRHTFFQtriPGPiLooCrTXL5XJkG4rcxLvLokVpXMRw3vtITB7lBaU6Cy5ohsXtIuH3luKhJztGaZP/hb4GjS90Y4QWR9UFulGbv8tWdXGx4RXeBbiwCyvt6lpgYoGAtnq4zdevLLckHtnx2faIT3oeefkxLfQZMToi6IlHBK1k4DqdbJeB62yOm9/wR3nveoLw3lFVDVW1ppgUWGv7ierwWLfmPTLYhpAIdBQSvd5qJGqUH/CPH2t2Y2PSmCn0XR2hl0gsPjrVvR8AtvdyKe7Zd/d3XO6KWfFCxHMjUNkT5oDvruQhO+Oth4W8kyNwJ86j6MyFIiDKoZQKkxlFy0YXOpdD/50RHgmjreAS4Ywxy+BlH4FK3xGL73GLd56zszP+6q//irqu+YM/+AO01r143XBMRpYc6MoPsztqo+N8veEl4hsvPuKcjkN0qHf85n6jvwPrAK8UOOnvuMrBOhaNYzuT264WQDHE+gh4F/f2xveyHRFsaQrbvvjus4pT2Rttd5RbE0+nqQTCUWijMNoE14LIJRWx6+Cl32TzuhoTzkaDw+QOq3T0NxKQcw7nHaKETz/9O/71v/rXaK356U9/2terlKILlxgmbmAefjTBghpgrIxMBhvcNUxITwCyTQiXgfvWYG6Ma3zd/trArQaxa11cKF4uE54M4SwoUC6+Qe8zHIv8aAdjGPcRD70G6QzlTsTTNaFVIByTGLTS22vtZvUxiPJx3MsG4O1X3ojbjAmq/20gyp/97Gf8yZ/8CZPJhB/+8IeISATGgyHRXdKAuoUaV+E1Ts/xfeOy/UwP8K8jItgghKs4kXMOURHIQw+Y+3FwgTf1vCVKYnwXZShc2mPQM/rAlW6GdkK5daKDbohFFEoplFYYY9Ba94Dzykev/Nn3GKD/cUQkm5oNm6BXBjGE92RZzu//3u/zsz/8GdY6FosFtrUorWjbdqhDAs4Y9+smxLLxd/ueXZMe2fR4XLbv6oh21/M94cV/2g/aZBcaHIZLEIlgPD7oe/5Jr5j07fWEOpICg0n+yr6Oy9t51aNMVCoQknfjPYuX772uIic+qpBjtNBNbicq4supMfMNxTuPd54kSfjDP/ojEOHTTz/lwYMHrFYrAJJ02AvfDfj2fO0ioA4Yj0XKNhDY5hqbYHqT+LbDUq8MCpOR5tmbL3xv8xyIJDCdIP5VXHQR18VgNOHqlE/CKBTm8stfKU/uqG0NALHnCnHyugYv9aH/3+UrnhGL7b7TEZEfrLA7nya4H+JLLpdLXr9+zcHBAd/73vdYr9dkec66XGNbtyHfbypmx4Sw+xU2taHL4SOXsc3ANndhvU2Q6gDlA7cf+jPUMga7MIhKHwG+68hmg8sO3Ro0qtE7dP/enbbVqcjhs4v2CmvbIC87MN3T0BYL3F7BDFjFqWFljI1vvUocLuzgFKG97r5yvcZ5z/7+AQ8fPcI5z3q9RmkT9nJvEcFNtr9s45s3Pdvhh15lHs1Ur3lGgDae8O7v9ufx9G1gvG7setFO1AI3F0jXfT/qg+sXOuwkDtn4s7PcQWwNW0a8tzhnsTYMjuq0jy3iGYjG9wQwGL/CPc7F7bN+k3h6S/T2ao6vNl6hPk6I0pqqranmTRgkD6I1REtyZ2j0bBvI+gY2yoZoGWle40ke/x13qBdT1+ClDrP1hNJZ07t2R+PoOy7ru8XrB7W8720kHufpYZ2/LKLpOJjvxr17xcHCf125NfFsB4t3anJ44S431SYLHxMCdISzKf/HltaNdws39USzOQCj7x1wHvWz0y6CgFC9Y7RT17u+jt/lKjC8Ue8OjrGrXF483btsirmxpinRZsbo3m4gOsIZE00nrl3H6YBgOY5VuLFQG/GvKCHGfenGZRjd68udVfXx346AgozdbHwTLwwsd1xH74KIGgIjQgkvprY4T19bXzqr9ahK8AGIB46kN4bD+y5iZ+hLtzDG2sjogc3PnXjZ4ihvUrf7cRnfSxg3iVrZhskimhf6cfMejxv2rXXtdhUNNW4Q6KVX6fs30lxHkuMmaPBO2lY30GO7iXMOvNuwfnb3Xq5g6Ha3+oOsHqcQ6VwYMPIh9Gpqx2ckqqsbFQ9VhJW8S66L0Pl13Jhwtjhrv/pH3/uWOuLpxcj1hDMmiq3qYtnSh0Z1x5XZ39MZCS+9tYRfNuiITbqS7od+2MaqQ4cddtS9Vd4J5+n+Ou9x7vpV17/Y9jw7QdRlZfIyA+jXWY9fek1hS6T1yZ5l5FIZrvaDdt07jYmn77cMQmAMQjsVetzXDbAfbrxqYDa49LgfoQHPpg8qLrzAri/h3g2B7Ifv3YIbe/svl0HEvWPAPJTxIG+YuGVjirae2XrRMeveZlvbz7I9sVfcuI2CvRvU3HjZ9Tjs6oTXgeltRzOOl+wm5un3WnVE19lORqJtfN9A/FtjuHVfHy8VuXC04kRxJT0xb45VBMvOM4pJCEtXBtLq1962gbCfz2Gxbpe33nozXh1KVHCf77jWfe887x0Avm4lbgI83wNLPxr1bdks45H0EsUTm0Qi0te53c+xqrxBJiIb6X5ltEC2h3ZDS9qhifkIbtVI5PZzN1BFVAs78ez753q027U3Us8HrhzfcYPBjMwAfV86JWD0w863ulzemnjGnmpBRjs3N+NCxiImfN5cwdvFb33evrODQldlb+tuGgZ8VF+/sn3fr34Qd7/kBtvf6Jlsipru/jHb31B6Zdz+5pt2UisskE2iC0TdidFxX8ZjDiMqQJBg2xIi1xma69p2PmLLLk6kq+UGRPRWqvp23A3eo/pGN4e5WzDD610v+6Mojz9sEtNYlb2ec41X9OX7fLeCd47P2J612e4mK5dLRLDZth+IaYPbXpViZcyJBjtWtyeiE/l9SMgmaW40LsQdKB0u8uN+h7fQsW42rsHI0nslhn2nO0YlNtaVjRXRUf+1YDreus1aR9WO3RXX2Vj6Pnh/5eQGUURU5rYGz4+fH4kF2ST+MRYaiCxc36TtEbbbboTN52C8Lq4fr+vySG+0M+bCdFzODdcveb6uxjpdeefbjce2kq4Lw8WbE9B2nRvfuwm/gWTeklgbJYT0Dl7pzZUXvg6uhQ3e138a9o0rBhPbFo4ZPTbmwDv7GwlIOQ82WPBFB6u5v0zb77V8LXvVtyd7JwFty6Kb1j3SLjxvwDxd22+wu0RoySVR2q3S3bWGT75b1YwIsWt3bLi84cv64DU31lNfLHn+/ClOOR49+Yh8to9HYW+5+L6u8rUmOhjv/txFQOH3rYG4xbhsaFZXletx+VDXtnHwjdc2IX0A3ztjJjcIaAd+H+70gHMYr7CLJV/87d/x13/9l1S24vv/zk/4zg9/zHTvAFHfjKNh37oXb8IdHdDbCeukA9ub/xhBjN9kue5drro24KFNJ60ixAEriDtUx87G7sbRA3HbTK4S7mUTquNzXn76a0zVkAu8+PJLnn7+a9blip1Znt5DuTPn2TaOjfdTARsrtec9O8zzm8WzzUx6sTMGnrcZt12q9HW3y7h/N6PgcZhKb8/ruZWMcOBIjfYBI41Dog3CTGnSqqI9P2UiluRghssUpVGcnZ+wd/Yakxt0kob6dhpLd/C/TuP0N7Hg3Ky8ldi6xDUY2zC2XiBqxU52Xevdk1sNxGHYQpm3ev1LYPdGD219356MnerAcPU6Dtb99WB8ULmV9yRaodqW81//ks9//QWvnz2lPj1m3tbMXctCe8os4fnJax4/+ZiHjx7x4N4DZpMpaiTGBvA/EiojAh2j+OtE9U3KO8M8MvIfXaEVA2Ev1PYpvMEjHlZpWEhvUE+3rbU3vHezzc1nN5SiflAvq9LXN3dDTuUJ236BwihU3VAen7F49ZpXP/9b5k+/oqnX+KbE2ZambTivFpzYmqdffs6vfv4L7j98yJMPHvPk8ROefPwx9+/dA6VovQtbeyTuPu2Ztu/bHoDg2/GgdweYRyAYuFKbEumU2tFl2dSaxr6f2xDSrjL2GW1e2Anl3/CL3ICARn1jhNdF+mwdRoTcCKn32LNzzp4+49XTr5i/PkEWSxIXNjFmieEwS5koTdYUTNo1rVKITmnnCz57/decfPEV69Nzmu98wt7+PkmRo4sJGBg2g4fR7hJBeP9u8hd+PdrWtjZ1SRpdoYV1v24R0thA+O5LxCVXXNn1y5i4uzIWAS7K2rAJr/MnebRAqg2pc7Tn51y8eMXLX/6a46+eQWtJPWhraX2IULB4sB7jPffTgsl0Qqs0aIMDLi7mZAjVq2NerCrqg3tMDvbJDvfRezN0nqGTBFHSv2VwIfnezHEDO+uV5evNSTgmoq3l2r+OQG8y3hYT8SchHsoxftMbcKVQh+y+b2Rp3fVMx2GuCKcKvd/qT2AuYf++CCTiSRCmKkWamur8gmY+53Q559WXTzl5+gxb1+Ac4j2N97TWU9mG82rNwtYhdYoLQ9RqwSrVB6WvyxI1nZFND8hLS7U6ZvnVS3yWovcmpLOCfDolneSYvGBysI/J83jCEOhYzzXnxVxb3gnxCFti5wrgux3ZFnwqsefb1r7OLrJx7+V231RGcWSXr8ElLXGrd+PO9J/86KexXiaAVoIoS6odGWBa8Bdz5l8959UXT3n97DkXiwvwLib997TisBKArtaKVhlKlVLZcR8C19B9S8JenpNPJjitKW2LdS4EtjUV7fwMi0enCelkQjqbcvDhI+4//pB8OkVMzCM2dr3csrxDztNFvF13IPzu48UCDcnm9agyj1HUpSe3K9tJJJtt+ktE7rfodoRv+vuvob7ecuMxiWY2KygySLUjwbM6X/D06Qu+fPEpy3IOM0+R5xhRpCrBOmgQGpOw9oJrLG3TkmohMQavVL8ANBrpTteKXNF6T+WgduBMIL7CWw6MRpskgGet8cZQtzVNU5NREFyiNytX4cp3SjydW/86cbJbO+pQ6FUxt1eoxNvMasd924Qjm9TDgJz9ZULZos7NoPWRQSrOrggYrTEKcJbGWda2IdsvePjkAflBFnZwtA00oCWj8YrSC2sHJ/MVL8tz5uUapzTKeFpFPDEdlFeo7jREP+pT7JfTYHA8McKPHj/i0aMP0WmGShN0mqCzFJ0meOlyMm4G8u8cv2tA0deAed5kV7n5tdvYIG52r9/BoXcQTVf6wDV/qXf9/quuTu9pqoqz45oz3+Btg44YSJKc9N59pkWBRjACFycXnB0vmQPPqpZnFyVfnS64WK4xJgMxtNbjaBDjSExCmiYYk+KdxzqLiFA3NVVV47yn9i2uXmPu5fygyJgc3SOdTgPnEbDjXblvmqYblG9OEu87lLclrl22nF3P7Ir16izJHQF5HzYUOucRP4gXwYMyFPsZk4MgLLR4FuWXvDp/xd8tSr5o4azyrBqN6D0+PPqAD44ecn56zsX5M46OphiTkGQ5+XTK6ekZF+cXPHjwgPPzc168eIEXhReNSjPyw/vkh/dwaUo9MrR2ITJhrbyFmhXLN5Z43kQY754rXb7vsi+0I5Wo/3VMZ2xw850ZQuHcsIvN9RjKYW2NyhLqVPF8vuB5Ba2kQIZy0NZrnjy8z3fuH3D8Cj568oDj4zOWdUvioJ4vWJ9fUDz8kDYpUF6H+gWUaPb2D5ju70OSRKLq+j/8DevGvyEx+/XlHRPPXSf8GtFx4zrufu9VHGb8o7/0W8RpIhC38GwbSX3/O/SmUQ+iYHJYMP1gD3l5glQtxoX6RDnOz5+zODvi+48fs188ROeGz79cMl815M6jlLC/v4dzUFWWVhJqFbjf1Gju7+0xKSbRyuxjFoRxGGpnhwjvcVcPxTvnPDcVBZvlZiz0rhxk6+rG5wA4b1/PeEtNX68ImzlzwuUuN06W5+zNJmSp43x1xv2TMyaTV8j5PO4dDxOapIasyHDe0TQNkimccyRJQpIkOOex1qFEIUr32pjxnvuTgvvTKak2G+izzwBLB4LVZvfvUN4J8XSD9Jb46/o2bkAQ1w/EZe52JeG8hee5b6KfqbjwPSidMJvtk2cenRsef3DB4cFXmFclLp5znSQJDx4dUsxmvDo75fjkBU++8zEmSTF5FnJWVxV1VWOShCQxiA8ZURPxPDzY42A6Ccn/ojrf6bF+1Mmxlf+u5a33bY23vH5d1HMt4dxgot/EDW/c1rVlpH1FMCT95AVb0nK14uRUcf/ejNn+AY8/+JBHD+4zeXpK27Y4F1LfKZPw5cvXnL54wWp5ztJ62hbSXMiUYNLgcjhfnHG+mBOOf7FkRnH/YI9JkSN6CPmIu9mhF66DYfC9uCc2t8yOWPcNn9m6wq5VcJN639DirUJAb0I423u8Lv02qmKwbgcCb53FC0z39tnbm3C/LHny6IiD2VcslnO8d1R1xbOvXvA6UWgRlCR88eIYrQ1GL1FK0CbBqIRnL59RVvHAF++YTAoODmZkeYLoSCIuHhDj43aekegKH+XODOidbPrb8AHdGfNcfu72XGBM0Jvfb1LnTeJbxnvar6p37PL1Ecd47/EOlqsl8+WcNNfMJhM+eXCPw2nCc+Nx3uKso2kbtMlIkhQtCuUUznmqpkZEyCRkAAteNIfy4cipB5OCR9MJudHIkK835rQep3V4N+UbpqpvT/7Nn7sJh7kOHHflpgQUP8XvIxFOCDsRicLCWuq6omka8J7VUmG0p65WiBJUs+Zx4WmPNE0Dzpt+ASqa4aQeH+ry3iPOkiSGe4cpzmrwDtc0fFBocttQnV/gBBpvcd7Ttg7RiiRJyPKcJEYhBkEmm1b3W5SvSVXf3ZkrJ/htwPYb3CHhlpsA6qHsEkc364rHe4t1DUoH3GNt+O5cS1M3GG1YLEIcsjGKSWr48Yf3ODItIhq8Zr1uaOoW7wUrHkuXvV7jXch7nWc5eZ6jVEjUuZgvOJwl5FpoqhonnqquaZxlvliQ5jl7+zNSo1GJ6c0K4kPSy7uUd0o8HXJ5A769/uG7NnzdxUHxuVUVtw3TNEbjnWe5XgOWNEsQpSgmOVoZylVJojV5nnLv8JB79/bR7kNSZ3HlGrzCWeH1/JRyUeKsx4rrz/rqQkWUKFzrUaIoJhNaFK0TjmZ7fHD/CE8IBFvXFY1taZuGyWTCNJ9glEbHE/zetnyzxNYd2ee1ROHfQJNj4H+pXtl9IV7tIgG89xhjmE0nGKOAluVqHhI/AGW5oq0tVVVhlKJar8gyjVaOQkA3lgKNF6F1jsyHY6q8gsYLjbV0GcmM0mRpilKaxAuL49Pwjo2lmq+4OD0DrYPYspbatlTrCiUxZ7YKSa4k7pbtfRd3KO+MeG6mb92sjpuW4Ay/LTjfbHDDyb7xZfCUX9m+lz7n33Q65fDeAYKjXC2o6wqRcHRB2zjKsqGqaowKmRvL9Rq9UEhisG2Dsw1KBxXcJIYkMbTO4VqLE4+oEKKRphlpmqKUwnnP6+NjlFJMiilKh9R5jhDN6GT7GTkAACAASURBVOJJODZqeaICyI4G5z6Wp9vtdNvxfzfEEwyrb9y9+aY63pxC8arGR5raDrvPrrCC8b7tQESbTw0hV9LHFsFogH0IMHfeBY5gDAgsFguWqxLvFbaF1jpEEhKjaFuHVgrvBa2jhxwHCiwOj6X1sLYtpa1prGVtW5x4lNcoleIV1G2D1hqtdThoJRJNi2fdNlRtC1rR2JbGWS5WSyyCTnNMluOQ/oyKXVruTcu7E1v93Pkr0fsbdJg7Gqx8r41cSvw0WlG7qt4YNrn0Yahr8wegOzbJYr0lz1NEhMViwdnpKYv5PLbpaZqaat3S1pambbAitI2nqRtsayltRd022HjKocXTuJbKNVgPTjxWCIRQrnDOkiUpiYQg9rQI54BWbcNyXZItFzTeIcZQNTVN01BWFUonTJsmurb04GG/gQZ6VXk37om4irvTg68innEWiMuV3LFtQpLqjhD64KjO0BuDkftw043osK5jl/vV+6e2tbnI2bz30SIspEmC1pr5fMHFxRxrQ1JKL6HdPM9RhaGpawRPlhkePXrEgwf3Me0aXy354qsvaZoWRKO0RsWzPJQLKX+duD4LapIkGGNw1nJweIggzOcL9vb3efThB1gJ4rRcr2naFmMM09mMopggEsSdRBvQRp7rW5Z3ynm8dzgbEltuF5Fw9sFOAoqT7d6QVm5XcfghRZzbNRhDcqMOdPZ92qLYjT3lo2O0x/3qbTloQJEkKWmasS5LlsslANoYlFKYeN7FarWiqVeUyxK8I88SXr58RdtWpLbh+OSExWJJOAoyB3TgDoQE6RZQxpAYQ5YXYHSf7EDHdxIR1nXFYrWkJeCbqqqw1lLVNZRrWiconYQdFTCk5r3qvJA3lHerqncrdZQOdvs67OZAYZJuv5vIM+xB8qP/Nov0/qVLLO5Sgx3Xcn0aWz/iNp36pkRITUqWZZjEUK4q2taitcG7Bu88KlEoHbQb6xpaV4WjMHWC1oo8zUhcd3ZoCCRzOGzrcRaa1lE3AewarUPQutF4JbRti7hRInElETArtFIBDwGNdWhTorUJKn48FrNrczvU5zblHe4Y7c6z0ly1l6PPILbr4e7vbVho91jnI+5E1BVtd2XgHmM13Y/Adkwg1afhpTf1d0hJKU2SJqRJQts01HUVsnApwZvgTvDeo5Xi4OCA+/cOWSwW4B2z6YTHjx/zW598BNWS8uKUvemM0/NzqrqiLCtWqzW1bamtjRqUp2kb1quSPMsAMF7wSYrzjrppSNKM6d4ML4JWmqZpaaxjvizJsow0STGRK6pu37ofDeQty7vZehN1PaXUcJ70lWVIMzLGGsEDfBd9y3cHckcD5bYoukw0HScR8X2G+MhaBkwz9jx3oqx3P4AWhceyXC2oq5K2rUmSIMqyNCPPDPtFxnp5wenx64BnygpnHctyzhc0rE6e4aqS45fPcE2NOIfyDYlpyTNPSggtFaURFc4DVeJJVThD3XuhtRWttVjruJifIV+BiEYrEzmYp1wusFVKmmUkJkFJOKnI22GP2ftT1cOQDttn+uW6gxT8yHbSE4+P25BvzzwH7c7HHZBbbUrHmToA3JtwQoJvpQYy2QLJbqiiD2MQkeCsFKjritWyxLYNaWpQKrgjXNWA84gT/NlL6hdfsK7WeKfwNuyU+OLFZ/w6nt1BxB2p9yRaSKfCvTzr6bkbN+cV1rY4W4GDShSl87QuuDCePf+CL5/+itl0j0k67Q6Dx4liJUJaZBzsHaCVCsD5qjNhb1i+Bguz9Fngd27b2C23gpJ6B9TfJ5cc2Xc2vN6+u2eT80SwRBddPI4H9wRDmhsBf6W6Iw4i6PaC0Ql5Dt6miPZ4Wtq2pprPWdYVJ82KdnlGvZ7jfIV38UhuhNZamiao673j04F30h8/5ayNXMXirA19Qmico3WeWinWQN061nVLXTfxzLGUvWIfJeEAPYfHiUKJQinpj8t0HV669aiH8o1wTwypY2//Gv3+KRlrWf4KIh1fD387M8OQXbTDQ9L/Fi5IPLM8/OZcp4WpkGDeN5H9K1RekE1mFHJIdZ5y9uUC52E23QOBcr6grCxJOiNJdXRjCK0PRBscoT4e0R0ArrPxIDylab3CIjjlef7qBcZ4HtybhPPOPCQmZTLbY3+y17+1F4XXmizLwkKTbkv13cM03pmdZ+OwjauMhH6TA2xdvVvbnQU4ij/fGw133S1bHKqzAalNMB8zb/VJFqKY8w688oEDWBe4RlRzjYqrWjtMTGZuFayWOU/nLXv7Bzz84Lt4D5+//gXWZXz38ffJ0gwdj9l0BCux9fTZ4/txif3ojrcUpWltzar5U5qm5ge/8wOmkylVVfHZL3+F1wkPPnpMmqaRW6r+aPLu8DYvvj8J8DeubVkbnH1a6z7B0K4Iw91Rh9tEpOhS/N+mhCTvHde4ZiX1oJcBFPeTM8p33OuukVoYmRgiR+syunrrcNaiRdCFDlwjLp62tWAMz88WrCQhTwpOa4+1npWeUBQz5jajsgl7xT6SJKFu79E+LIYtYwaIA3GIeKxtWJZLDg8fcHp6xvHpnKaVYNtxwq+fPaO0lk8++YTZbIZWgZP5zhwS30NE+h2pty1vRTxt21KW5XDG6BuclJtJv8fhDgJehX+3KF6Gfz136Ihh+17oD7Ydx153F7vfhwyp20m8h8EnquBKFN5ZEq1AEhpXU9UVHofRBus8KM3jJx+TJAnPX7zk+PiMe4dH3H9wxMnxGXVd8/BBzd7+Xq/hjTW9TqkQH4hHG0Wep5TVkuWq5P7RA5Q2/PznP2e5Knny5BOePPmY5S8/40///N9yfrHkRz/6EVlmqKLFuanDIXaz2Yy9vb33Z2F2tt8CR2eM6956fD4DDEcTwRbX6U0ol19i45eRlbEzcXm/eTZpZ4fpdCR6AvC90c+NiKcXdn3VvifuYc+nx/vgBHUuiKwWR6pNqF4HJWG9rllXNWmWYJKE87NzIGAd6xynZxc8f/GSvb17ZHnBvSPDyekJL4+PqdqG6d4+SpsgsvqOd/88WglZlveiazLZQ4mwfyA4L7x8cczDR08oJnt8/Ml3efHyhM9+9TnOC0o8i/mcpgnefQ/84Ac/4HvfK96Pb8t7wbkgbhSa8YIJ18eaDhsTtFkRjPcVXSodsXT3dRVGWT42VAzuhIh9IjgO7o+YiKEjnpHIC1XGNa8ERWf5Ha51ccht6/C2RRJLngaPedM2lFVNbR0GYbWuePHyFdY6krTg+ctjXrw6IcunVI3l7GLB/t4BRw8e8vzFC7589pzDdcX9oweYJIkn53TvFOKF0iLB+ZaLszlNHTzr1sN8vqIoZjx4+IjlYsXZ2Tn79w558p3v8NkvP+Ozzz9nNb9gcRH3hwkkWcq9owd88PgjrH0P7glnPXVtSYyAGoPXfrkM9pUwA9eAaRmIYsxvRKElniUOI5fBgHdEDVTrOjfHiMN4GR1jNOqHQMBZPeGNMFBkhz2njBZjheCdBdugvGKaabR4lquSsqrRWlGuK05ev+b49JSDg0PmZcWL1ydkxZRPPvkOznqWqxVFMcFrxcGD+9Su5fj8FJ0m3Lt31I1c36+iyEhTxcX5CWW57hfOxcWCl69OuX/0AXk+ZbFchL3rWvHwww94fXrCxfk5Ok1DwgNsiBkyBhd3a9j34dty3mPbaKW1LgQvRZtJFwDe6UFhztzVxHPFF087iBgZ7Cze+d2+MD86gxM2yJjub0coG30Z7T3rjIXOx7BPCYmTrEUrHU6Fsg1YwRYFTdOyKtch7kYUq+WSk9OzsEUmSZgv5qyrmvv37nPv3n3qumExX3J6fkaxP8OK5/DoPsoYTk5Paa1jNpuhVFDji7xA8FycXrAqa7wTRBSt85wcn2N0zoOjD1jmF6xWK45fH9N6xwdPPuLo6Ijj42MWyxXrdR3cKEowWtO2Lev1mrZt7zT/b5dKlwH49trLyJAml6Zu+yy8URmDZxmcp0IkBjcQA9F7Phy4BgPOgQ3Z2cEeUSMT/PBM51X2fhBN3TntXSYuH4lWVORSIihjUEbRtMFKrASMQLsuWS8WpCIUWYpdl6yOL9hPpjyY7WNsQ5IIznhW8xNss8LkBdok7E0L7Lrk/Pgl8/NTHjx4yMH+Plo1LJdz1uWq95k55zk+PmG9XnP//n1EWrLMMJ1OEAki+quvvmI6nfLo0SNW88VIIRCsdSyWS8qy5LoD664rb71jtLWdoidY77He9pMW7+onaVCPL5dO1ACj8I3NM0c79Xg8CD2WiW2Nt8U4OhtGh3HGabShs904NzAcopocvPCBIJULtqAupEQEJtmEPNWUqwW2qcgKRd2uKRdL5qen2LpB1gllWeJqePzwQx7tp2R5g4gj33dcUFNVaybxAN7T+ZxJAoXJODm74OJUMS0UiTZosRS5BBOACC9evOTpl79ib+8AkYKmdngMDx7c58unJVmRY4GLiwuOjo44Pznl7OS0t2dVVc2L5y/4+OOPUermWcLG5a2Jx9lALCKCjT6WAGJ740iYCj+EN1yqBzaudYShIqPqwgguPdsZ8bbEz7hO1wlPGazRWyQU7StR75JAOhKPY7TOEhwI4SkVY4nzPCFVjmW9xLmWthG0cnhb4W2FbSrECN5VHN0/4Ld+6x6tXSLisLZiVV6QpooiMaRJRdVUuNUZjYWsmJBq+OLXn/Li+a959PBeAMfWUdcN4Pnqq6ecnc8p1xXnF+cYo9E6Q0vKV8+fMznY54PHHwFwdnbGer3usSJ4rG1ZLBaUq3LDDXOb8nbEQzwMfmQM7GP6fJyo+LFDPjuzEvYaEHR6u/MSOUp3zKPv5zqeQEZoQPXE0JONj6xEBotJd9hHp5j16rioDolHDhUCwPxIM3PehqTbIqRZxuGsYC/T2GpOkQm29SwWZ6yWc+p1RVWWFFlOUaRcnNe8evkKPGS55uBwQlWXfPnlC1prebC3TyLnOEmY6IRnp+ccH5+gTYKtKl4dv+TLX31K1dR4KzhHcI76sK/r+NVJr1Eq0QgaRHE+P+Pi/Ix8Mg3hsSfHiHeogErDeztHW1e494F5mrblYrlE6aCuW+doRxrLYHhTgRux6TRVSno2Giat7cFqp5t3nEV8D17COaZ9lvPobIy+pxAa1vbEJj3FdBgsHiYigo7HiSgRtA6b38QG/NLt/060QUSD1CjlyDI4LFJSXeOkZppNaJuEX/3qJU9/9VnwsjvH0dEDzk7PmF8saVrhy69ec3hvn+9+7zs0bcOzlyvW6zXNkWKSpyjTkheKqixZrdbsHxyyX2SIzcHV1GVLva7xcRyUBPuWs77n8s438bpgm5LVxWkMRhNoW3JlUSYYdJMkRRtDeX7Merm40/y/FfHUbcPp4iJYW7WKnGPwUAdRE04W9mhcFG0+2mE6EBomywU+NlaXR4Y68SHkwhGcel6CKyAwp0gECCIOJBChwJCo2kWNzQexpAWMaIxSJEaR5Cm5VhgcRsAYUC5wnCxNKCagkxaRmiyxGON5PX/Bi+evKPIJM9PynUf3ODlRLNclhpbjkzOa2pFkE9q25OnTc05PT3DAulqTGM0LzsjSEFno/CvadU2WJPhmCa1lknoOp/dQHxyxrtasq5qqqbHWBhwWIwY9YTNg549TKgSEOeeomgrxkJqEYjIB79FaY4xBa8UvfPObJx4AlOBV0EgckdU7BuIQ1dt/OszQxg39AAT8h1IO8ba3z6gYQuBUEErOug2B51wIVQgq/HBSsNagTNiSmyhNqg2JNnjr0Hiy1KDEosWhozfcu4Y8SygSTQJkqSFNFEaBrWu0sUxnGVmW9aEZWhkqUbyuwvkQ92cHPP7x96nqlqppqFvHl1895/XrE0QZjg4zIAR2mSQNibvxpFk6EpUW7yZMJgVt07BcLJhOpzx4cESR59R1jbWOxlqsC47ZLA/bjts2hGNoHThLF4Rf1RV1XZGYhEkxIcsyRKTXYJuq4q9+9tlIE715uTXxjEGriPRhjaIEWqLaF1Z5gCZqMOSpwEKdU9EwFbUYLSiC4a0LdVBKoZUejH1RS9YipMqQKoUxijTVpIkgqkV5i1IWUYEIjShykzLJchThDKw0MShxKANae6ytaZsaoxW0La6qyDIVgrLSFKNyytUK1da0tkUEkjSlcZbDyX1+/ydh94JJg2d8uVrTtpaqtewVBdWTJ+jEIFqR5zlZVjAtJrRVRblahYl0DmM0RmtWZcm6rZlfXHByoplOpxwdHWKUYl0qjDGYJNiPytWKoiiYzWacnZ1RVVXos0lYr8swlj4FP+tjmpXSzGZTvPfRVWHIU3NrwrkT8YxJVOEpIi7QWqOzNIBd2+KdRWuFVuEB5z2iApdobfAuB6AXNvwnRpN0RkAXTsfRxkRVPEBz54IHe5JlzPKMLNUYA1o7jLF4X2NtE3Zptm1g1WLJTdip6ZzFtiVKKxIM4sB6R5El5GlGU9W0okhMGBbXOlqiecBBVa9xzlFMCmwLZVmHqDwFphbS1NBWFdYKqcmY5TmZ0iSpweFDCKlYjG9omopyfk7bthSTgiKdId4irsV4z729PWZFjiC0VUWS5zy4H7Susixp6wojQbQ26xWuqUg1TLIkzIEWxIQ0dBCc2FVVYUShvMP7Bq0t+TQP1uffBPH0pjYRDgrDb3+QR6+6kKYZojy2EZxVGKXAO5xrsW2LjsA6AD3Cmd4KdKJIjEf5sLLFQSIGk2ha62ialnW1xjpLagxaN2S6IkVoq5rWNeg8QcTTlDXOqqh+R0u3FVoB70JEnhdB2aCuVnVNmib4FJqmRmmNs56mrsA5EqPRMQDdOU/TtEhZhaXjw0a+ul4jymNM2NVgTIGykCUGrYjcxQabT9tgYwSh0gqF6k0CcYlgdNj9kBjNer0G72ibGu9zbOuo1iXVOnDCOjFkWRoWX5KgJGz9wXus8xilUVphYtiM9x5rLUZbUgONCcD5axdbGiGJirF4YaYd+9k8xPNojbAK226Nx7YW24QN+k1b4X1LppLwEtrgXLCeaK0xicK7htXygra14SRfrWmsCltZmjX1ck5iDEZlLOcrKq2ZTgpWqyWiATeldQ1lWSOkgRPGhI9aK1wbskUkicE7z3q+oKljOv0sI8tbRITJJMU5R7kqwzkSpCRZhkmincWHcAYVtUHngmYXDhQUtE4jiHVY61itligVtgav1yXrNRgTbC5KKfIiC4Fgzka3SlAwksREXKeZTArKcsXF+Rl4T2ISijylbRXT6TRABwl70tumQYtCaxU5ehqMudATjojCCKTG4ExGrnXcCHDLrCBvukEQtA9b3FJg4ruD3CGrGtqTM0yes7e/H4Cua/EOmqbBVzWzYgqSYkWCdiOCdy2+DaBZtKCxtM6RxF34weDpWa0WJMZgW0uRGIo8p6lb2mpN4yFPkpg4ICQ3qusKnJDlgV1760KwugqpS5BgJ3HehdNkonboYs4b1e2HkrALNBjTguXKJAkTpdFJErJ3NS3OCWkyITEOawMn0XHPegdYkySNhCJkWUprLUWRA2G3yXQ6pW1bmqZBoSjynCzLMcawWMwxRpNlKda11OuKPCvIszzgSO9J40Js2xbXNORKkfjQH09LogQIGq1PNLW3KCy5A102rKsFqqopiKo/QYExSmGks+TtJqg3cx4POZp/XzL+Swx7tJ1lhU9enPD9/+PfxhVbRLwTOt45J6dZjkHhsDHWy4ezwq2DNsTFtB8ecf79j7F7OaI0TWPRPrxJta4xxjCZTMnzjCZpUFpYLhZU9Zq92QznWpQo7h3cp2ktTdOiBUQL3gWx2alq6/UaYwxFUeBSS9vWtG2L94629SyXS7Isi1GSa6bTKY1zuPUarTSt88EntCoR0SRNwHuiBO0VWoXJbFqLqACSrQ31Z3lO5qEoighsDd575vMFdVNT5AVJkpIkccepMYgKHCVJEiZFQWJCKl0Bjo5Lsr/7FHt2GjRP25JEkdc0DW3bkiRJUN9jxGBdVTjnmShBe6jR/JMvnvO7kT5ctM+90sITafgz7EbYyq2IxxP2D/0hBX/sU2a0g5X46Yvwj8716SMmulkRoAXsT3+IfPwhx7OoqjuLq9tg78BTlmF7S9MGQkrShKzIWZclq3XZe9yTNMO2LYv5RdjJaTTeBteCtZb1eo1SiqKYkaVpHEjFYjHH2pY0Tbm4OKMoJhhjehxSx4NGQnhpy3K1CtxwktLYFq8gUSaGpThaG9K5YduIM4iiLsQ8XVzMMcZweHhAXddhO3JT9+EmZVkCHlEK27Ysl6uQVmU6pa5LqiosgI9fLjn4P/+K+tPPMAiaYEHehV6GoJXL5ZPRVQ/UHv7cJ3zkpT+deVe5FeZR8YFdnpDBtLf7endPVzqA5vAgCpMGMVGt16jOgBXVV+dCMutxTHSSJIE1O9eHwoZVpphMJoFwPP0BH51ZQSSIpiwNQDHDc//+fbIso7Vt5DoB3Od5Tl23QBNdJZ40TZnN9noFoYvhFhHqusZ5x6QoEMlp2pbEGNo2cOLOaNe2cadF7NPh4SFVVQHhvZqmoSxXPYdSSgesFtXrNnLXVbVm5kHiYUrROdFb0m9bfGQLGoX2BuUSxMcjmnaUG2CeUBoZZOJVuDw4AHbv+hwFVPQ1COE46KpqmJ+d46aHTGdTYJhoCGzexB0GSRI81cvlAq1NbydRcX92lmUjYCiYeI8xBmMMbdsGZ2cMGmutJc8DxrC25eDggLZtqeu6d0Za62Jmimin8sP3tg2YxBhD0zbRZmPCKTR1jXeeLM9w1pFmKSqC4bZp4yJI+0i+JDGkaQoUPcEH21BQAKqq7jGU957sZUs8ci3asd6udDOn8SRRNKre7XO53IrzhK0hoZnLZQi3ulpwXb4iCDpyDWMS8jyPtokgasqypK7r/tku6D7PC4qi6OW6tbb3lfUhGj4EqqdpgnWepq77rFre+xhRp7HOgg0qrnc+/AWsc2RZ0Ia6Sby4mDOfX/TGUWMMIQJAMSmKYAFuAgBummD1zeLecnwXIBfAe900aOcCkXmPMUkA984xmUx6Ttu2NmpmeVwcYaPidBo0uSEgZfPv113eaVo5d0vME57zKK3CJCkVtRgfM6KHQcuylPW6xjnXc5c0TbHWRjEy7QOkQlSc78FomoQJUXockyxREzLgTa8prVYr6rpmb7aHTSzL5RKtgkgqyzLgkjjJLnIkrVX8pymKgqZtWZfBmJilYaLruiZJEtrW0rYV63VIPFDkRbRaB24WFklK0zQkacjBY9uwvalparI8Z1KEgPW6rqJGNQpB4Wpc83WUOxLPbtq+WjpeLh1E89DjkDpm7ez9VjASXXnAQlrjvaMs19gocvIsR5TQ1CHXcV3VrKqSJDEBQ9gWLZo0y1AicRIbvHPBj5WGTBPdDKxWy6A6R+NeE/2GrR3CP5poM8rzvOdmdR0ycXUiU2vFfF6yWq04PLwXYp4iiO5TnUSuq6wKYtAGcdY2Dc7awLUko20a2qahilyzbUP2jBCsT//vuvG/iiNtP3NTznVL4un2Y+7uwG1yXIyJR2nV4xobQWuW5WHi6qZ3CXSDHpIqBRHnnWO1WqFiOGxd1SwWC9I0JU8zJGpIdVuzXCxJYhavD77/7/Lwk++HvMivPufZ3/55xFSG09NTrHNMo+goihytTSC4GHMUxGkA9gEE257rBY+1xhOILJxeU+M9JElCmob44YuLcyRiNeccvnas11WPm7QOoD/PM5y1lGW37ypwwLKpKfqglGF+rpq7q2f1dnPXlVtzntsSyU2KkiC28jztJ6Jp1nTxxZ1TD4geYwt4bNvSVEF9T9Pgna7Xa7RSTIsC71zI/WctTRMSCyyXS37yh/+Yj77/u1FLgsOPf0xx/wmvv/gFX/zN/4MxCZnW/VbdsJWnpWmjNTkC+kAcAQWGWGAfCBrHfFEiSK+Kl6sVeZ5zcHAYuVPEanETXmdrEgnv1xFQURQ0Tac9hsRPQctbc75aMGlqpmxzj98M6vlGJDrw0bjYZfjsgGIHgpUKK7WbTK010+kM27a4NhjQUpNQ1xVFnlNEXDBfzEnSlCRNsXYwDj75/u/2cTDOBWuzzgo++uG/x72Pvs8v/s2/oJofYxJDmqS9jcgTogmTNKEocpz3VOuq17K8dyyXS7z3VHXIfdzN6mq1ivHHId1cnnfcbNiuHQgqZb1eU5Yr0nSPPM+iayN46/M8pyxLTk6O8acnHDU1e2z4q39j5RtBPNZaynXJujJMJxOKoqCua+bzOcYkzGazoHFIyFG8rmouLi5QIqyjfcQoRVmug1vCQ9s25FlGkqaI1iwXS+q64ejRh4OYiMMthKhGgCSf8JN/9E94+euf8/Tnf0ZdzXvw7Z1DZyFJkgCuaVitllRV8I91oRVpmqKjU7PICw72D5jP5yglFEXB/v4eIsLLl6/QWvPw4UOcs9R1NIImgTjv3bsXdojGMJemWTCfzxEJeZ8n0+kGV/5Nl28E8YSQ1HDcvI2Hc3SDsl5XJEkajHpaUzcNi/mcxSL4veq6Js+yoMrmWci9pzrvtiExITF2lqYBNJvBTqJ1zFPjB9HYhc0+/t5POHj4hK8+/Uue/e1fMI0H2TvnWC4WWOtimEMdEmxHa3gSRWjTttgIzMvSoqPXO4Bm24vjzjTRhRF3e8izLIDwLillnhc451kuF+zvHwTM93z1LfGYJGH/YJ+iSFgsFjhn2d/f5+DgILL7EKqRShaJQvPgwQNs2zJ3FzR1w0pK0ugXMiZhMp32YZlKhP29Gd6DNmFLRkewvtsT5oI7YACq4ftv//SP+eSHv8fJ0884/vVfUVU1Zbnq96vNZlP29vYooo2nqtZYG/LpBG0q2JHyLCMvCtqmxXlPURQUxYS6rlkulzGaUkXs46PFuupDSkXaoHGqwf5FWd45k+k7mbf31vKo6DTFZBkijiwLboq2bUjTDChCIuyqjt5pTVFMgvOvrplNMcCCSwAABtJJREFUZ9GS3O2VD469Lgox2GWCib9uapqmihZnHSfL9f40IYRJdOaBLm1Mun/IbP8f8vi3f8wv/s2/wL9+FnGVJ88z9vcP4qQ68jzn4uKCsiwDd0wSptNp0CDTLBotM9I0o66bgOdsS9u0gehcwHkdASutyWPoqFKK5TKI3yQx5EWB1u9vCr8RxIOEiL6qquIW2JKTk1MO7x2SmCTG3SrW64qynJOmKdPpjDTNmRSTcGirDc83dU3btOR5jovWW2M0xiT4yrEu1wC92wF8POh1yOrhYirgzmfV/W6yCT/5R/8JFy8+5+zLX7A4P2GxCEA4TdMQKEYI9czzoscraZqRZ0Wvua3XFfP5Eu8d0+mMSTGlLFeslhdoo0nTjKKYjMSW710gk8mUqjqlrpuNvr2P8s0gHmuhtSR5Rts6VqtwuFmeT8j28xDnLAahxeiELA1HEGmdoLTGOlBi8N7y8vULlIKPP5qgCWdBiMC9e/cxJqWt22ihDeKlKHIQoW3agEtMANz9lqEY0+MiYFZKcfj4e+wdPWbx+inP/+4vWK/XXMxXzOdz6rruuQSiyLKCvJiQ5vE9dBocryZYz5umpW6WmP+3vfPpbaMIw/hvdnbXa7tOgiJvilqQEPWF4iDUGwWBlAjEB0AiJz5CK/UrtF8CqTeUC+ecUEDij3oCiQaqFlURqmhIQVHrpHUSe/5wmF3bcdexHceNqfIkYyVr7+7M7uudmXee93mlT7FUcoSzptNfln4OqVMSlyXM+UxNv4JSlqdPd1BNfdptGaVp7il0FODLAnG54NQutKHRcL6SRkNhtKFQmKF0pkSjqVAKlCKZZUUoFdDUIYFn2VeOS62tUwtt6FSEwU8cfS6qVXfIsYDXErJ0ms5phmA3vtGJj8cAflSk/MZFZl+vUNt8wJ93fmZfW/aaNfYbDdet5ApYBNvP9jBI8oUCYeT4wumYqf7sGfuNBhoP6UdYoZLMNB5SBgjPoJVCGYFB4suQXKGEMgI/fNLqWk8CE2E8DzY2+fGbn/gt9JF+QC6fR6smu/V6oibv/CVKGzw/IIwiwFE/lTHU67sEQQ4/jNC6gRSKwANhNcpot4iZaNnk8meI3/7ImYtIpNU80eq6SKI10vgnt3xCMh4xbTVR0bGPKJE7/y4/rH7J1r//OLV2z0VkNvedTnIYhERRDl/KFjXDaE0QhlgBe7t7aKVAuIXiXOgSvTWbCqWdwzBMyOz13TrWaN7ZrvPedo3iCd23EzOe1KFlkNzf2OLrjU1+hQOC3J0EpnThz+DUQl0YDq0IVESSvc6mnJS2JkfCNsVYKMcxi58/Brq9ss/XLev/w9aBqu9/wrerq3y1vNxqg9fRANHDk9e9KRn3kzSnI6l1+/OegA1P8KaVvJooWPdaOhoXTvDJ45pq8GkAOzSpZQz+uuPEDmy3PD9gFD1I3MmmIs74xoHZOOazpSU+XFhgdXWV5eXlg5aRUa0shfrOz3a3r1M3saYtCrd04kY+w3IaRsPJdZgDIp1RdF/Ew2YanftklXEjjmOWlpa4efMm8/PzPc/fq02H1fWAsTEch8f2KO69brpefwxgPML9WtcZ2PbWESGSV5Nwb18+xHHMjRs3uHLlCuVyueV3StFWBzlaSZHG6Xut16wfF6TZu7TfFwiXWdC4rIS9bnZ/AnwyVtDGxYo3kaQO8VEW4toc5lGPlNRlwHijYeKSjgsLCwtUq9V2V0Z7tjUKXIcVuGS2OC6zu/lZx9X067Bb/CokgYjwtH/orelrPEZYmCky/fEHBNMQ2AbD6iVnV9TVyiCpePCFtXz6AnrsYrFIpVIZ+3m6UalUuHz5MteuXWN9fZ3bt2+PfMzzGC4QkhcuJbcwCYs88zI6Gks/WMBH8poNmZq/iLy/5vJ4ZaCv8fz1cIOV779jKp8n99YFnAzK6ItxngXPgPEEDU8wg6D8AowniiJKpdLYz9MLpVKJs2fPcunSJe7du0etVjvysaQ2/O5ZfvElngZft1XQuuHyZgwGzwrnQFu/y50/7ibpLbNnhYeaY2lqmrlz55AeyFT48RhGKI6Z706uRfokGn+XMjs7y/Xr18d+nkFx69YtVlZW2NraGnrfwID2YF8KJwyRXM+exjPg5ZU2uTdS8HDzb548fpzJUOz75NnZrrGzffRvx6QhjmOXcW9CUK1WmZubOzAeOgrEc390YcjvZadPqRdexknO/w6dU/tqtXrk46RP88zCcEVklG6cGs8EIY5jrl69ShzHR9o/nb0eZ+n2B3Xi1HgmDHEcs7i4OPR+vRyAx1WycGo8E4hHjx6ddBUGwqnxTCDW1tZOugoD4T8JsBpUvQtYegAAAABJRU5ErkJggg==;movable=0;resizable=0;rotatable=0;deletable=0;editable=0;connectable=0;" vertex="1" parent="1">
                    <mxGeometry x="475.00286879595586" y="557.49720703125" width="143" height="147" as="geometry"/>
                </mxCell>
            </root>
        </mxGraphModel>
    </diagram>
</mxfile>